<?xml version="1.0" encoding="utf-8"?>
<!-- Generator: Adobe Illustrator 22.1.0, SVG Export Plug-In . SVG Version: 6.00 Build 0)  -->
<svg version="1.1" id="Layer_1" xmlns="http://www.w3.org/2000/svg" xmlns:xlink="http://www.w3.org/1999/xlink" x="0px" y="0px"
	 viewBox="0 0 407.5 514.6" style="enable-background:new 0 0 407.5 514.6;" xml:space="preserve">
<style type="text/css">
	.st0{fill:#ED1C24;}
</style>
<title>Untitled-1</title>
<path class="st0" d="M340.1,491.6c-0.2,1.5-0.3,2.8-0.5,4c-1,4.5-3.7,8.4-7.6,11c-4.4,3.2-9.3,4.8-14.5,6c-9.5,2.1-19,2.3-28.6,1.7
	c-6.8-0.3-13.5-1.3-20.1-3.1c-3.5-1-6.9-2.5-10-4.4c-5.6-3.7-8.9-8.6-9-15.5c0-0.2,0-0.5-0.1-0.7c-0.1-0.2-0.2-0.3-0.3-0.5
	c-2.5-0.3-5.1-0.8-7.8-1c-1,0.1-2,0.4-2.9,1c-8.4,4.9-17.7,8.3-27.3,10.1c-20.9,3.8-40.7,0.6-59.2-10c-1.7-1-3.7-1.4-5.6-0.9
	c-4.7,1-9.4,1.8-14.1,2.7c-0.5,0.1-1.1,0.3-1.6,0.5c-0.2,1.1-0.3,2.2-0.5,3.2c-1,4.4-3.7,8.3-7.4,10.9c-3.9,2.7-8.2,4.6-12.9,5.7
	c-5.1,1.3-10.4,2-15.7,2.2c-10.6,0.5-21.1,0.1-31.5-2.3c-3.2-0.7-6.3-1.7-9.3-3c-6.7-2.9-11.8-7.4-13.2-15.1
	c-0.4-0.2-0.9-0.3-1.3-0.4c-6.3-0.8-11.2-4-15.4-8.5c-4.9-5.2-8.3-11.3-11-17.9c-3.7-9.2-6.5-18.8-8.1-28.5
	c-4-21.3-4.8-42.9-4.3-64.5c0.4-14.2,1.5-28.3,3.2-42.3c1.6-13.7,3.9-27.4,7-40.9c0.2-1,0.2-2.1-0.2-3c-4.5-11.1-5.2-22.6-3.5-34.4
	c2.2-14.9,8-28.4,15.5-41.3c10.9-18.7,24.5-35.3,40-50.4c0.6-0.5,1.2-1,1.9-1.4c-0.7-0.8-1.1-1.2-1.5-1.7c-1.9-2.5-3.9-4.9-5.5-7.5
	c-2.1-3.3-2.2-7-0.9-10.6c1.4-3.7,3.6-7.1,6.5-10l1.8-2c-0.1-0.3-0.2-0.6-0.4-0.9c-6-9.4-6.6-19.5-3.6-30c2.1-7.2,5.6-14,10.3-19.9
	c1-1.3,1.5-2.8,1.5-4.4c1.1-17.3,3.1-34.4,8.6-50.9c1.4-3.7,2.9-7.4,4.7-11c0.6-1.2,1.3-2.4,2.1-3.5c4.6-6.7,11.1-9,19-8
	c6.1,0.9,12,2.7,17.6,5.4c11.3,5.1,21.6,11.8,31.5,19.2c1.3,1.1,3.1,1.5,4.8,1c12.3-3,25-4,37.6-3.1c7.7,0.4,15.4,1.7,22.9,3.9
	c1.4,0.5,2.9,0.2,4-0.7c10.3-7.4,21.2-13.7,32.7-19c4.9-2.4,10.1-4.1,15.4-5.2c2.4-0.4,4.7-0.6,7.1-0.6c4.1,0.1,8.1,1.8,10.9,4.8
	c2.9,3.1,5.3,6.6,7.1,10.5c3.5,7.7,6,15.7,7.6,24c1.9,8.4,2.9,17,2.9,25.7c0.4-0.2,0.8-0.4,1.1-0.6c6.9-6.5,15.4-9.8,24.6-11.7
	c7.8-1.6,15.6-1.7,23.2,1c11.3,4,18.5,11.7,20.8,23.6c1,5.4-0.6,10.5-3,15.2c-2.8,5.3-6.7,10-11.4,13.7c-0.5,0.5-1.1,0.9-1.6,1.4
	c-0.1,0.1-0.1,0.2-0.2,0.4c0.4,0.5,0.9,1,1.4,1.5c6.2,5.9,11.8,12.4,16.8,19.4c3.2,4.8,6.1,9.8,8.7,14.9
	c6.4,11.9,11.4,24.5,14.8,37.6c2.8,10.7,4.1,21.8,3.7,32.8c-0.5,13.4-4.1,26.5-10.7,38.2c-5.5,9.9-14,15.8-25.1,17.9
	c-1.1,0.2-2.2,0.2-3.3,0.3L365,272c0.2,0.8,0.2,1.4,0.4,2c3.6,12.1,6.4,24.4,8.4,36.9c2.4,14.1,3.9,28.3,5,42.6
	c1,14.2,1.3,28.5,0.7,42.7c-0.8,19.4-3,38.6-8.5,57.3c-1.9,7-4.7,13.8-8.2,20.1c-1.6,2.7-3.3,5.3-5.2,7.7
	C353.1,486.9,347.6,490.8,340.1,491.6z M91.2,176.6c-0.2,0.3-0.4,0.6-0.5,0.9c-5.4,14.8-9.9,29.9-11.6,45.6
	c-1.2,9.1-1,18.2,0.6,27.2c1.6,8.3,4.6,16,10,22.6c0.8,1.1,2,1.8,3.3,2.1c5,1.2,9.6,3.8,13.3,7.3c0.4,0.4,0.9,0.8,1.5,1.3
	c11.2-18.4,27.1-30.8,47.2-37.7c-0.4,0.4-0.9,0.7-1.4,0.9c-19.3,8.6-32.6,23.2-41.3,42.2c-0.4,0.9-0.5,2-0.2,3
	c0.6,2.2,1,4.4,1.2,6.6c0.6,10-2.1,19.2-7.2,27.6c-1.1,1.7-1.5,3.7-1.2,5.6c1.1,9,2.1,17.9,3.2,26.9c1,8.3,2,16.7,3,25
	c1.2,10.2,2.4,20.3,3.7,30.5c0.8,6,1.3,12.1,2.6,18c8.8,41,49.2,68.5,90.5,61.6c22-3.7,39.5-14.8,52.4-32.9
	c11.7-16.5,16.3-34.9,14.1-54.9c-1-8.7-2-17.3-3-26c-1.2-9.7-2.3-19.5-3.5-29.3c-1.2-10.2-2.4-20.5-3.7-30.7
	c-0.6-4.7-1.2-9.4-2.2-14c-2.4-11.3-7.6-21.3-14.4-30.6c-10.2-14.1-23.3-24.5-39.7-30.5c-5-1.7-10.1-3-15.4-3.8
	c0.7-0.1,1.4-0.1,2.1-0.1c4.5,0.8,9,1.3,13.4,2.4c16.7,4.1,31.2,12.3,42.7,25.3c11.5,12.9,17.4,28.2,19.5,45.1
	c1.1,8.5,2,17,3.1,25.5c1.2,10.2,2.4,20.3,3.7,30.5c1.1,8.7,2.1,17.5,3.2,26.2c0.6,4.9,1.3,9.8,1.5,14.8c0.7,13.1-1.6,26.1-6.8,38.2
	c-0.2,0.7-0.4,1.3-0.6,2l2-1.1c13-6.8,25.9-6.7,38.2,1.5c13.1,8.7,21.1,21.1,25,36.3c0.2,0.7,0.4,1.3,0.6,2.1
	c4.4-0.5,8.4-2.5,11.6-5.5c3.2-3,5.8-6.4,7.8-10.3c3.4-6.4,6-13.1,7.8-20.1c4.4-16.2,6-32.7,6.6-49.3c0.6-17.3,0.2-34.6-1.2-51.8
	c-1.2-14.1-2.7-28.2-5-42.1c-4.5-27.6-12.4-54.5-23.5-80.1c-9.4-21.5-20.8-41.8-35.2-60.4c-0.6-0.8-1.2-1.5-1.9-2.2
	c-0.6,0.3-1.1,0.6-1.6,0.9c-5.6,3.3-11.4,6.1-17.5,8.4c-19.1,7.2-39.1,10.6-59.3,13c-1.2,0.1-2.3,0.4-3.5,0.5c0,0.9,0.1,1.4,0.1,2
	c0.3,5.5-0.6,10.9-2.7,16c-4.4,10.5-15,16.9-26.3,16c-15.7-1.2-30-14.8-31.4-30.7c-0.1-0.8-0.2-1.5-0.4-2.5
	c-12.5-1.1-24.9-2.5-37.2-4.8C115.1,184.3,103,181,91.2,176.6L91.2,176.6z M306.6,68.9c-1-1.4-1.3-3.1-0.9-4.8
	c0.2-1.2,0.2-2.4,0-3.6c-0.6-5.8-1-11.6-1.9-17.4c-1.2-8.2-3.4-16.3-6.7-23.9c-1.7-4.2-4.2-8.1-7.3-11.5c-2.8-3.1-6.9-4.7-11-4.4
	c-1.9,0.1-3.8,0.4-5.7,0.8c-6.7,1.5-12.8,4.4-18.8,7.6c-10.1,5.6-19.7,12-28.7,19.2c-1,0.9-2.4,1.2-3.7,0.8
	c-6.8-1.7-13.8-2.7-20.8-3.2c-14.1-0.9-28.2,0.4-41.8,4c-1.8,0.6-3.8,0.3-5.2-1c-9.2-7.4-19.2-13.9-29.7-19.4
	c-5.8-3-11.9-5.6-18.4-6.7c-6.3-1.1-11.6,0.6-15.2,6.1c-1.1,1.6-2.1,3.2-3,4.9c-1.6,3.3-3,6.6-4.2,10C78.1,41.9,75.3,57.8,73,73.8
	c-0.2,1.7-0.8,3.2-1.7,4.6c-3.9,5.9-6.9,12.5-8.6,19.4c-1.6,6.1-1.6,12.4,0,18.5c1.9,6.5,5.8,11.7,10.8,16.1
	c5.2,4.5,10.9,8.4,17.1,11.5c18.2,9.4,37.8,14.5,57.9,17.8c9.5,1.5,19,2.6,28.6,3.1c1.6,0.1,3.2-0.2,4.6-0.9
	c9.2-4.6,18.4-4.7,27.6,0c0.9,0.5,1.9,0.7,2.9,0.6c4.5-0.4,8.9-0.8,13.4-1.4c12.5-1.5,24.9-4.3,36.9-8.4
	c12.7-4.3,24.8-9.8,35.9-17.5c4.9-3.3,9.3-7.3,13.2-11.8c2.6-2.9,4.6-6.4,5.7-10.2c0.2-0.7,0.2-1.4,0.4-2c-1-0.6-1.8-1.1-2.6-1.6
	c-4.4-2.6-8.2-6.1-11.2-10.3c-1.5-2-2.5-4.3-3-6.8c-1.7-8.3,0-17,4.8-24.1C305.8,70.2,306.1,69.6,306.6,68.9L306.6,68.9z
	 M40.3,487.3c0.2-0.6,0.4-1.1,0.5-1.5c3.6-13.8,10.7-25.2,22.3-33.7c13.1-9.7,31.1-9.5,44.1,0.4c11.5,8.6,19.6,21,23,34.9
	c0.1,0.4,0.3,0.9,0.5,1.4l15.2-2.4l-2.7-2c-19.4-14.9-30.8-34.5-34.1-58.7c-1.8-13.2-3.2-26.5-4.8-39.8c-1.7-14-3.3-28.1-5-42.1
	c-0.3-2.5-0.6-5-1-7.8c-0.8,0.6-1.4,1-2,1.4c-11.1,8.2-23.4,10.3-36.6,6.8c-4-0.9-7.6-3.1-10.4-6.1c-3.6-4.1-6.1-9.1-7.2-14.4
	c-0.2-1.5-1.1-2.8-2.5-3.5c-8.9-5.2-16.8-11.6-23-20c-0.3-0.3-0.7-0.6-1.1-0.9c-0.3,1.4-0.5,2.6-0.8,3.8
	c-2.2,11.6-3.7,23.4-4.9,35.1c-1.4,13.8-2.4,27.7-2.6,41.6C7,397.3,8,414.9,10.5,432.3c1.4,9.9,3.8,19.6,7.1,29
	c2,5.8,4.7,11.2,8.2,16.2c2.1,3,4.7,5.5,7.7,7.4C35.6,486.3,37.9,487.1,40.3,487.3z M309.5,166.2c0.4,0.6,0.7,1,1,1.5
	c11.7,14.1,21.5,29.5,30.1,45.5c8.4,15.8,15.5,32.3,21.2,49.3c0.8,2.5,0.9,2.5,3.3,2.5c11.3,0,19.8-5,25.5-14.7
	c2.7-4.7,4.8-9.8,6.4-15c4.4-14.4,4.4-29,1.6-43.6c-2.3-12.4-6.3-24.3-12-35.6c-6.7-13.2-14-26.2-21.1-39.3c-1-1.9-2.2-3.7-3.3-5.6
	c-0.3-0.5-0.7-1-1.2-1.6c-5.6,4-11.9,6.7-18.7,7.9c-6.8,1.1-13.5,0.2-20.1-1.9c-1.1,4.7-3.2,9.1-6.1,12.9l1.7,1.9
	c2.4,2.4,4.3,5.1,5.8,8.1c2.3,4.8,2.3,9.3-0.6,13.9c-3,4.6-6.8,8.7-11.3,12L309.5,166.2z M81.4,274.1c-0.1-0.3-0.3-0.7-0.5-1
	c-6.8-10-9.4-21.2-9.9-33.1c-0.2-9,0.7-17.9,2.7-26.6c2.8-12.3,6.8-24.3,12.1-35.8c0.4-0.9,0.7-1.7,1.1-2.7
	c-7.8-3.3-15.1-7.7-21.6-13.1c-0.6,0.7-1.1,1.2-1.6,1.8c-8.4,10.2-16.4,20.7-23.8,31.6c-8.9,13.1-16.8,26.8-22.8,41.5
	c-4.2,10.3-7.4,20.8-7.7,32c-0.3,13.5,3.8,25.3,13.1,35.2c4.9,5.2,10.6,9.5,16.9,12.9c0.5,0.3,1.1,0.5,2,0.8
	c0.2-11.4,5.4-20.4,12.8-28.3S70.4,275.7,81.4,274.1z M86.5,507.4c4.1-0.3,11.2-0.7,18.3-1.5c5.4-0.5,10.7-2,15.5-4.6
	c5.9-3.2,8.4-8.3,7.7-14.7c-1.2-10.1-5.5-18.8-13.4-25.4c-17-14.1-42-13.4-58.7,1.5c-7,6.2-10.9,14.1-12.6,23.2
	c-1.4,7.5,1.8,13.4,8.7,16.6c2.3,1.1,4.7,1.9,7.2,2.5C67.2,507.1,75.4,507.3,86.5,507.4z M292.9,507.4c7.9-0.3,16-0.4,24-1.9
	c4.6-0.7,9-2.2,13.1-4.3c5.5-3.2,8-8.1,7.3-14.3c-1.1-10.1-5.3-18.7-13.1-25.3c-15.2-12.6-36.9-13.8-53.3-2.9
	c-1,0.7-1.8,1.6-2.4,2.6c-3,4.9-6.6,9.4-10.7,13.5c-2.1,2.1-3.6,4.7-4.2,7.6c-0.4,1.5-0.7,3.1-0.9,4.7c-0.6,6.3,1.5,11.4,7.2,14.5
	c2.7,1.5,5.7,2.6,8.7,3.4C276.4,507.1,284.5,507.3,292.9,507.4L292.9,507.4z M44.1,322.7c0,4.8,1.6,9.5,4.6,13.4
	c2.1,2.9,5.3,5,8.8,5.8c3.8,0.9,7.8,1,11.7,0.2c8-1.5,15.7-4.5,22.6-8.9c5.4-3.3,10.1-7.7,13.8-12.9c4.1-5.5,6.1-12.3,5.9-19.1
	c-0.3-6.2-2.3-11.8-7.6-15.6c-4.6-3.3-10-5.1-15.7-5.3c-6.1-0.3-11.6,1.6-16.9,4.6c-4.4,2.7-8.5,6-12.1,9.7
	c-4.7,4.5-8.6,9.7-11.7,15.4C45.2,313.9,44.1,318.3,44.1,322.7z M336.1,111.9c8,0,14.7-1,21-3.8c7.1-3.1,12.6-7.8,16-14.8
	s3-13.9-1.5-20.4c-5.8-8.3-13.9-12.5-24-12.9c-6.6-0.1-13.1,0.9-19.4,2.8c-5.9,1.6-11.6,4.1-16.7,7.5c-6.2,4.4-10.2,10.1-10.8,17.8
	c-0.5,6,1.1,11.2,6.1,14.9c2.4,1.8,5,3.4,7.8,4.6C321.5,110.3,328.8,111.8,336.1,111.9z M183.6,205.9c-0.2-1.2-0.4-1.9-0.5-2.7
	c-0.5-4.2,2.5-8.1,6.8-8.6s8.1,2.5,8.6,6.8c0.1,0.6,0.1,1.2,0,1.8c-0.4,4.1-4.1,7.2-8.2,6.8c-0.1,0-0.1,0-0.2,0
	c-1.1-0.2-2.2,0.2-3,0.9c-2.1,1.8-4.8,2.7-7.6,2.3c-0.9-0.1-1.7-0.3-2.8-0.4c0.2,0.3,0.4,0.7,0.6,0.9c2.4,2.3,5.3,4,8.4,4.9
	c10.8,2.9,20.3-0.1,28.8-6.9c0.6-0.5,0.9-1.3,0.9-2.1c0-3.1-0.2-6.2-0.6-9.3c-1.2-7.4-4.9-13.7-10.1-18.9c-4-4-8.4-7.6-12.6-11.4
	c-1-1-2.6-1.3-3.9-0.7c-14.1,4.7-19.5,17.9-18.7,28.4c0.1,3.3,1.1,6.6,2.9,9.4L183.6,205.9z M195.4,167.8l-0.1,0.5
	c0.8,0.3,1.6,0.7,2.3,1c7,2.7,13,7.5,17.3,13.6c4.3,5.8,6,13.1,4.9,20.2c-0.1,0.9-0.3,1.9-0.4,3.1c0.3-0.2,0.6-0.4,0.8-0.7
	c4.7-6.8,5.8-14.1,2.8-21.8c-2.9-7.4-8.7-11.8-16.1-14.3C203.2,168.1,199.3,167.6,195.4,167.8L195.4,167.8z M294.3,172l0.3,0.4
	c1.8-0.8,3.5-1.7,5.4-2.4c1-0.4,1.9-1.2,2.2-2.3c1.6-4.1,3.4-8.3,5.1-12.4c0.2-0.5,0.3-1,0.6-1.8c-1.3-0.2-2.5-0.3-3.6-0.5
	c-2.9-0.3-5.8-0.3-8.6-0.8s-5.1,0.4-7.7,2.3l13.9,2.9C299.3,162.5,296.8,167.3,294.3,172L294.3,172z M259.9,172.3
	c-0.9-0.4-1.6-0.7-2.3-1c-3.3-1.2-6.6-2.3-9.8-3.8c-2.5-1.1-4.7-0.6-7.5,0.4l12.8,6.5l-11.3,12l0.3,0.5c2.3-0.4,4.5-0.7,6.8-1.1
	c0.5-0.1,0.9-0.4,1.1-0.8C253.2,180.9,256.4,176.7,259.9,172.3L259.9,172.3z M97.6,165.8l-16.3,3.2c1.6,1.2,3.4,2.3,5.2,3.2
	c1,0.6,2.1,0.7,3.2,0.3c4.3-1.3,8.7-2.5,13.1-3.8c0.6-0.2,1.1-0.4,1.6-0.7c-2.5-3.7-5-7.2-7.2-10.9c-1.4-2.3-3.4-3-6.1-3.9
	L97.6,165.8z M132.8,185.7l0.1,0.5c2,0.3,3.9,0.7,5.9,1c1,0.2,2.1,0,2.9-0.6c3.8-2.6,7.7-5.1,11.5-7.7c0.4-0.3,0.8-0.7,1.1-1.1
	c-3.4-2.8-6.9-5.4-10.1-8.3c-2-1.8-4.2-1.8-7.1-1.9l10.1,10.2L132.8,185.7z M242.2,487.9l0.1,0.5l7.1,1l1.8-8.3L242.2,487.9z"/>
<path class="st0" d="M186.3,484.2c-3.9-0.1-7.8-0.7-11.6-1.8c-15-3.9-27.6-11.6-37.4-23.7c-6.4-8.2-10.7-17.8-12.4-28
	c-1.4-7.2-2.1-14.5-2.9-21.8c-1.3-10.2-2.5-20.3-3.7-30.5c-1-8.5-2-17-3.1-25.5c-0.7-6-1.4-11.9-2.1-17.9c-2.6-23,3.9-43,20-59.7
	c10.5-11,24.4-18.3,39.5-20.6c35.4-6,69.8,15.1,80.6,49.4c1.7,6.1,2.9,12.3,3.5,18.6c1.2,10.2,2.4,20.3,3.7,30.5
	c1,8.6,2.1,17.1,3.1,25.7c1,8.7,2,17.5,3.2,26.2c1.4,10.6,1.1,21.1-2,31.4c-3.7,12.2-10.8,22.2-20.5,30.5
	c-6.9,5.9-14.8,10.4-23.4,13.4c-0.3,0.1-0.6,0.1-0.9,0c0.4-0.2,0.8-0.4,1.2-0.6c18-8.4,29.5-22.6,35.6-41.2
	c2.5-7.5,4.2-15.1,3.8-23.1c-0.2-5.3-0.9-10.5-1.5-15.8c-1-8.7-2.1-17.3-3.1-26c-1.2-10.1-2.4-20.2-3.6-30.2c-1-8.5-2.1-17-3-25.5
	c-4.3-35.7-36.7-61.2-72.5-56.9c-27.1,3.3-49.3,23.1-55.6,49.7c-1.8,8.1-2.2,16.5-1,24.8c1.1,8.9,2.1,17.8,3.2,26.7
	c1.2,10,2.4,20,3.6,30c1.2,9.9,2.6,19.8,3.5,29.8c2.2,24.9,21.2,51.4,46.7,59.7C180.2,482.6,183.3,483.3,186.3,484.2z"/>
<path class="st0" d="M182.7,344.2c0.3,7.4,0.7,14.3,1,21.6l52.1-5.7c0.8,7.4,1.6,14.6,2.4,22.1l-69,7.5c2.2,13,4.4,25.7,6.6,38.7
	l-23.5,3.8c-0.9-2.4-5.6-43.1-5.4-47l83.8-9.2c-0.3-2.8-0.6-5.5-0.9-8.4l-66.2,7.2c-1.8-16.4-3.6-32.7-5.4-49.2l79.4-8.7
	c0.8,7.6,1.6,15,2.5,22.5C221,342.4,202,343.2,182.7,344.2z M179,341.3c9-1.5,17.8-3,26.6-4.3s17.7-2.4,26.6-3.6
	c-0.1-1.5-0.2-2.8-0.4-4.1s-0.4-2.8-0.6-4.5c-22,2.4-43.8,4.7-65.7,7.2c1.3,12,2.6,23.6,3.9,35.5c4.7-0.5,9.2-0.8,13.7-1.6
	C181.8,357.5,180.5,349.5,179,341.3L179,341.3z M168.6,389.8l-14.6,1.6c1.2,11.2,2.5,22.2,3.7,33.4l12.5-0.7
	C169.7,412.5,169.2,401.3,168.6,389.8z"/>
<path class="st0" d="M188.6,484.5h2v0.1h-2V484.5z"/>
<path class="st0" d="M187.9,240.7"/>
<path class="st0" d="M90.4,57.9c0.5-8.8,1.2-17.6,3.2-26.1c0.8-3.8,2.2-7.5,4.1-10.9c1.6-2.7,3.8-4.9,7.1-5.2c1.8-0.2,3.7,0,5.4,0.6
	c2.3,0.8,4.6,1.9,6.6,3.3c7.2,4.8,12.9,11.2,18.2,17.9c1.4,1.8,1,3.7-1.1,4.5c-1.9,0.8-3.9,1.3-6,1.6c-4,0.3-8,0.4-12,0.4
	c-1.7-0.1-3.3,0.6-4.4,1.9c-3.3,4-6.1,8.4-8.5,13c-1.1,2.1-2.5,4.1-4,5.9c-1.2,1.5-2.9,2.5-4.8,3c-2.3,0.7-3.8-0.3-3.9-2.7
	S90.4,60.3,90.4,57.9z"/>
<path class="st0" d="M291.2,57c0,2,0,4.3,0,6.6c-0.1,2.8-1.7,3.9-4.3,3c-2.1-0.7-3.9-2-5.2-3.7c-1.2-1.6-2.3-3.3-3.2-5.1
	c-2.3-4.7-5.2-9.2-8.6-13.2c-1-1.4-2.7-2.1-4.4-1.9c-4.5,0.4-9.1,0.2-13.6-0.6c-1.5-0.3-2.9-0.7-4.3-1.3c-2-0.9-2.5-2.6-1.1-4.3
	c5.7-7.2,11.7-14,19.6-18.9c2.2-1.3,4.5-2.3,7-2.9c3.5-1.1,7.3,0.2,9.4,3.2c1.4,2,2.6,4.2,3.6,6.5c2,5.4,3.3,11,3.8,16.8
	C290.4,46.3,290.8,51.5,291.2,57z"/>
<path class="st0" d="M142.2,114.9c2.5,5.4,6.7,6.7,11.8,6.3c5.8-0.5,11.2-2.6,16.7-4.3c4.1-1.3,8.3-2.5,12.4-3.6
	c5.1-1.4,10.4-1.3,15.4,0.3c6.3,1.8,12.5,3.9,18.8,5.8c3.4,1,6.8,2.4,10.5,2.1c1.5-0.1,3-0.3,4.5-0.6c3-0.6,5.3-2.8,5.9-5.8
	c1.4,3.7-0.3,7.9-3.9,9.6c-2.4,1-5.1,1.5-7.7,1.2c-4.1-0.2-8.1-1.2-11.8-2.8c-3.1-1.4-6.2-2.9-9.3-4.4c-2.1-1-4.2-1.9-6.4-2.8
	c-5.5-2.3-11.7-2.4-17.3-0.1c-3.6,1.4-7.1,3.2-10.7,4.8s-6.9,3.1-10.4,4.3c-4,1.4-8.4,1.5-12.5,0.2c-4.4-1.1-7.1-5.6-6-10
	C142.2,115.1,142.2,115,142.2,114.9z"/>
<path class="st0" d="M170.7,92.2c-0.6-0.4-1.1-0.8-1.7-1.2c-4.6-3.6-9.5-6.8-14.6-9.6c-6.4-3.6-13.1-4.2-20.2-3.5
	c-4.7,0.6-9.3,1.7-13.7,3.2c-0.6,0.2-1.1,0.3-2.1,0.5c0.4-0.5,0.5-0.7,0.7-0.8c8.9-5.5,18.4-8.8,29-7.9c6.8,0.6,13,2.7,17.6,8
	c2.1,2.4,3.8,5.2,4.8,8.2c0.3,0.9,0.4,1.8,0.6,2.7L170.7,92.2z"/>
<path class="st0" d="M264.7,81.7c-1-0.3-1.9-0.6-2.9-0.9c-6-2.1-12.2-3.2-18.5-3.2c-4.6,0-9.2,1.2-13.3,3.3
	c-5.4,2.8-10.5,6.1-15.2,9.9c-0.6,0.5-1.2,0.9-1.8,1.3l-0.5-0.3c0.2-1.1,0.5-2.3,0.8-3.4c3.4-8.5,9.7-13.6,18.8-15.1
	c11.8-2,22.3,1.2,32.2,7.3c0.3,0.1,0.6,0.3,0.9,0.4L264.7,81.7z"/>
<path class="st0" d="M190.2,105.7c-2.4-0.4-4.5-1.6-6.1-3.5c-0.5-0.4-0.5-1.1-0.1-1.6c0.1-0.2,0.3-0.3,0.6-0.3
	c3.6-1.7,7.7-1.7,11.3,0c0.9,0.4,1.2,1.1,0.5,1.9C194.9,104.1,192.7,105.4,190.2,105.7z"/>
<path class="st0" d="M254.3,114.6c6.3-0.6,19.2,2.4,24.3,5.7C270.2,120.1,261.9,118.2,254.3,114.6z"/>
<path class="st0" d="M129,114.3c-4.3,3-16.9,5.9-23.5,5.6C108.5,117.1,122.5,113.7,129,114.3z"/>
<path class="st0" d="M130.3,106.8c-7.4,1.9-15.2,1.9-22.6,0C115.1,105,122.9,105,130.3,106.8z"/>
<path class="st0" d="M275.6,107.3c-7.3,1.7-14.9,1.7-22.3,0.2C256.5,105.2,270,105.1,275.6,107.3z"/>
<path class="st0" d="M270.8,94.9c-5.5,3.8-12,6-18.8,6.2C257.6,97.3,264.1,95.2,270.8,94.9z"/>
<path class="st0" d="M113.2,94.8c6.7,0.2,13.2,2.4,18.7,6.2C125.2,100.7,118.7,98.5,113.2,94.8z"/>
<path class="st0" d="M88.9,497.5c-4.3-4.3-3.8-10.6,1.1-13.6C94.4,487.3,93.6,494.7,88.9,497.5z"/>
<path class="st0" d="M69.6,484.3c3.2,4.5,1.2,10.5-4.4,12.8C62.1,493.9,63.7,485.6,69.6,484.3z"/>
<path class="st0" d="M75.9,497.2c-3.3-5.1-1.4-11.1,4-13.1C83.4,488.5,81,495.6,75.9,497.2z"/>
<path class="st0" d="M310.8,485c4.8,1.2,8,8,4.5,12.8C309.9,496.5,307.5,489.8,310.8,485z"/>
<path class="st0" d="M304.5,498c-4.5-1-7.7-7.9-4.1-12.9C305.7,486.4,307.8,493,304.5,498z"/>
<path class="st0" d="M291.6,498.2c-4.2-1.7-5.9-9.5-1.3-13.4C295.1,486.5,295.8,495.2,291.6,498.2z"/>
<path class="st0" d="M84.4,297c0.7,0.2,1.4,0.4,2.1,0.6c3.4,1.7,6.9,3.2,10.3,5.1c2.7,1.5,3.3,4.2,3.6,7c-3,1.1-6.2,0.4-7.9-1.6
	c-2.5-3.1-4.8-6.3-7.2-9.5C84.9,298.1,84.6,297.5,84.4,297z"/>
<path class="st0" d="M88.9,322.2c-4.1,0.7-6.6-0.3-8.6-3.3c-1.8-2.7-3.6-5.3-5.4-7.9c-0.4-0.6-0.7-1.3-1.1-2l0.4-0.4
	c0.6,0.2,1.3,0.5,1.9,0.8c3.2,1.8,6.5,3.5,9.6,5.4C88.4,316.5,88.9,319.2,88.9,322.2z"/>
<path class="st0" d="M76.8,334.3c-3.8,0.4-6.4-1-8-3.9s-3.2-5.7-4.8-8.6c-0.4-0.7-0.6-1.4-1.1-2.5c0.6,0.2,1.2,0.4,1.8,0.7
	c3.2,2.2,6.5,4.3,9.7,6.6C76.8,328.5,77.1,331.3,76.8,334.3z"/>
<path class="st0" d="M352.1,77.3c1.5,2.2,3,4.5,4.4,6.7c0.8,1.2,1.5,2.5,2.3,3.6c1.8,2.5,1.3,5.1,0.2,7.7c-0.2,0.6-0.8,1-1.4,0.8
	c-0.1,0-0.3-0.1-0.4-0.2c-2.2-1.1-4.1-2.6-4.5-5.2c-0.6-4.1-0.9-8.2-1.3-12.3c0-0.3,0-0.6,0.1-0.9L352.1,77.3z"/>
<path class="st0" d="M342.4,101.2c-3.4-1.6-5.5-3.6-5.5-7.3c0-3.3-0.4-6.5-0.7-9.8c0-0.8,0-1.5,0-2.3l0.5-0.1c0.4,0.4,0.7,0.7,1,1.2
	c2,3.4,4,6.7,5.8,10.2C344.9,95.9,344,98.5,342.4,101.2z"/>
<path class="st0" d="M322,85.5c0.4,0.7,0.8,1.3,1.1,2c1.5,3.2,3.1,6.5,4.5,9.8c1.1,2.6,0.2,5-1.2,7.2c-0.2,0.5-0.8,0.7-1.3,0.5
	c-0.1-0.1-0.2-0.1-0.3-0.2c-2.2-1.5-3.9-3.4-3.9-6.2c0-3.7,0.2-7.3,0.4-11c0.1-0.7,0.2-1.3,0.3-2L322,85.5z"/>
</svg>
