<?xml version="1.0" encoding="utf-8"?>
<!-- Generator: Adobe Illustrator 22.1.0, SVG Export Plug-In . SVG Version: 6.00 Build 0)  -->
<svg version="1.1" id="Layer_1" xmlns="http://www.w3.org/2000/svg" xmlns:xlink="http://www.w3.org/1999/xlink" x="0px" y="0px"
	 viewBox="0 0 380.2 514.1" style="enable-background:new 0 0 380.2 514.1;" xml:space="preserve">
<style type="text/css">
	.st0{fill:#ED1C24;}
</style>
<title>Untitled-1</title>
<path class="st0" d="M316.3,128.5c1.4,1.5,2.6,2.9,3.8,4.3c2.1,2.4,3.7,5.3,4.7,8.3c1.1,3.3,0.8,6.9-0.9,10c-1.9,3.3-4.3,6.4-7.1,9
	c-0.8,0.7-1.6,1.3-2.4,1.8l2.6,2.2c18.3,16,34.2,34,46.9,54.9c6.6,10.9,11.8,22.4,14.5,34.8c2.4,11,2.7,22-0.2,33
	c-1.1,4.3-2.8,8.5-5,12.4c-0.7,1.2-0.9,2.6-0.6,3.9c3.1,16,5.1,32.1,6.2,48.3c0.9,12,1.4,24.1,1.1,36.2c-0.4,17.1-1.7,34.2-5.1,51
	c-2.3,11.2-5.2,22.1-10.5,32.3c-1.5,2.8-3.1,5.6-5,8.2c-4.7,6.5-10.5,11.4-19,12.3c-0.1,0.8-0.3,1.4-0.3,2.1
	c-0.4,4.3-2.5,8.4-5.8,11.2c-2.9,2.6-6.3,4.5-9.9,5.7c-6,2.1-12.2,3.3-18.5,3.6c-10.6,0.8-21.3,0.2-31.8-1.8c-4.2-0.7-8.2-2.1-12-4
	c-2.3-1.2-4.4-2.6-6.3-4.3c-3.2-2.7-5.2-6.5-5.6-10.6c-0.1-1.1-0.3-2.2-0.4-3.5c-2.8-0.4-5.5-0.9-8.3-1.1c-0.9,0.1-1.8,0.4-2.6,1
	c-26.7,15.5-59.6,15.6-86.3,0.2c-1.7-1.1-3.9-1.5-5.9-1c-4.5,1-9.1,1.7-13.7,2.6c-0.6,0.1-1.2,0.3-1.9,0.5c-0.1,0.5-0.2,1-0.3,1.5
	c-0.6,5.5-3.6,9.6-8,12.8c-4.2,3.1-9.1,4.7-14.1,5.8c-7.3,1.5-14.7,2.2-22.2,2c-8.7,0.1-17.4-0.9-25.9-3c-3.7-0.9-7.3-2.4-10.6-4.4
	c-4.8-3-8.2-6.9-9.3-12.5c-0.1-0.3-0.2-0.5-0.4-0.7c-1.3-0.3-2.6-0.5-3.9-0.8c-4.5-1.3-8.6-3.7-11.8-7c-4.2-4.4-7.7-9.4-10.2-15
	c-4.3-9.1-7-18.7-9.1-28.5c-2.7-13.8-4.4-27.8-4.9-41.9c-0.6-14.9-0.4-29.8,0.7-44.6c1.4-21.7,4.5-43.3,9.2-64.6
	c0.3-1.2,0.2-2.4-0.3-3.5c-4.3-10.7-5.1-21.7-3.6-33c2-14.5,7.3-27.8,14.5-40.4c10.9-19.3,24.7-36.3,40.5-51.8
	c0.7-0.7,1.6-1.4,2.5-2.1c-0.7-0.8-1.2-1.4-1.7-2c-1.7-2.2-3.5-4.4-5-6.7c-2.5-3.8-2.5-7.8-0.8-11.9c1.5-3.4,3.7-6.6,6.3-9.3
	l1.7-1.8c-0.2-0.4-0.3-0.8-0.5-1.1c-5.8-9.3-6.5-19.2-3.5-29.5c2.2-7.4,5.7-14.3,10.5-20.3c0.8-1,1.2-2.2,1.3-3.5
	c0.7-13.2,2.4-26.3,5.2-39.2c1.6-7,3.5-14,6.7-20.5c1.2-2.5,2.7-4.9,4.3-7.2c4.3-5.9,10.3-8,17.5-7.3c5.5,0.7,10.8,2.2,15.9,4.4
	c11,4.6,21,10.9,30.6,17.8c1.8,1.3,3.5,3.3,5.5,3.7s4.3-0.7,6.5-1.1c13.7-2.8,27.7-3.3,41.5-1.4c5.1,0.7,10.2,2,15.2,3.1
	c1.3,0.4,2.7,0.1,3.8-0.7c10.7-7.6,22.1-14.2,34-19.6c4.7-2.2,9.7-3.8,14.8-4.8c2-0.3,4.1-0.5,6.2-0.6c4.9,0,8.8,2.1,12,5.6
	c3.2,3.7,5.8,7.9,7.6,12.4c3.6,9,6.2,18.3,7.6,27.9c1.1,5.8,1.6,11.7,1.7,17.6c0.1,1,0.4,2,1,2.9c4.7,7.8,8.4,16.2,11,24.9
	c1.7,5.7,2.5,11.7,2.3,17.8c-0.2,6-2.1,11.7-5.5,16.6C317.1,127.3,316.8,127.8,316.3,128.5z M341.7,341.5c0.2-0.6,0.5-1.1,0.8-1.7
	c2.3-3.6,3.6-7.7,3.6-12c-0.1-5.6-1.8-11-5.1-15.5c-6.1-9.2-14.4-16.9-24.1-22.2c-7.7-4.2-15.9-5.1-24.3-2
	c-10,3.7-15,10.6-14.6,20.7c0.3,8.3,3.8,16.1,9.8,21.8c10.6,10.6,23.6,16,38.4,16.9c5.7,0.4,11.1-1.1,15.1-5.8
	C341.3,341.6,341.6,341.5,341.7,341.5c-1,2.5-3.3,3.9-5.6,5.2c-4.1,2.2-8.6,3.6-13.2,4c-11.4,1.2-22-1.3-30.7-8.8
	c-11.6-10-17-23-16.3-38.3c0.2-5.6,2.6-10.9,6.6-14.8c3.4-3.4,7.6-5.9,12.2-7.3c1.4-0.4,2.6-1.3,3.4-2.5c2.1-2.9,3.9-6.1,5.2-9.4
	c2.7-7.1,4.2-14.6,4.2-22.2c0.1-9.4-0.9-18.8-3.2-28c-3.2-14.2-8.3-27.9-14-41.2c-0.2-0.6-0.6-1.1-0.9-1.7
	c-20.7,7.9-42.2,11.5-64.1,13.9c0,0.9,0,1.7,0,2.5c0.2,3.6-0.2,7.2-1,10.7c-3.4,13.7-15.7,22.5-29.3,20.7
	c-14.5-1.9-27.1-13.8-29.7-28.2c-0.3-1.5-0.5-3.1-0.7-4.9c-25.1-2.2-49.9-5.8-73.6-14.7c-0.2,0.4-0.4,0.8-0.6,1.3
	c-5.5,15.2-10.1,30.7-11.7,46.9c-1,9.1-0.7,18.2,1.1,27.2c1.7,7.8,4.6,14.9,9.8,21.1c0.8,1,1.9,1.7,3.1,2c5,1.2,9.5,3.7,13.2,7.3
	c0.4,0.4,0.9,0.8,1.5,1.3c0.4-0.5,0.7-1,1-1.4c10.2-16.4,24.5-27.8,42.4-35c0.8-0.3,1.5-0.5,2.3-0.6l-0.1,0
	c-1.3,0.7-2.5,1.5-3.8,2.2c-17.3,9-29.3,22.9-37.3,40.5c-0.4,1-0.4,2-0.1,3c1.5,5.2,1.7,10.6,0.7,15.9c-1.2,6.9-3.7,13.5-7.4,19.3
	c-0.5,0.7-0.7,1.6-0.7,2.4c0.1,1.6,0.2,3.2,0.4,4.8c0.9,7.3,1.8,14.6,2.7,21.9c1.2,10,2.4,20,3.6,30c1.2,10.2,2.4,20.5,3.7,30.7
	c0.6,5.9,1.6,11.7,2.9,17.5c9.9,40.5,50.9,66.6,91.9,58.8c41.1-7.8,69.3-46,64.6-87.6c-1.5-13.3-3.2-26.7-4.8-40
	c-2-16.7-4.1-33.3-6-50c-1.4-13-5.9-25.5-13.2-36.4c-8-12.1-18-22-30.6-29.2c-7.3-4.1-15.1-7-23.3-8.5c-0.6-0.1-1.5,0.1-1.8-0.8l0,0
	c0.3,0.1,0.6,0.2,0.9,0.2c7.3,0.6,14.4,2.3,21.2,4.8c29.9,11.3,47.5,32.8,52.9,64.3c1.1,6.5,1.7,13.1,2.5,19.7
	c1.2,10.2,2.5,20.3,3.7,30.5c1.1,8.7,2.1,17.5,3.2,26.2c0.9,7.2,1.9,14.4,2.5,21.7c1.1,13.7-1.1,27.5-6.4,40.1
	c-0.3,0.6-0.4,1.3-0.6,1.9c0.2,0.1,0.3,0.2,0.4,0.2c0.6-0.3,1.3-0.6,1.9-0.9c11.8-6.1,23.6-6.2,35.4,0.1c4.8,2.7,9.1,6.2,12.8,10.4
	c7,7.6,12,16.9,14.6,26.9c0.2,0.8,0.4,1.7,0.6,2.6c0.9-0.1,1.6-0.2,2.3-0.4c3.8-0.9,7.2-2.8,9.9-5.6c3.4-3.3,6.1-7.2,8.2-11.5
	c4.9-9.6,7.7-20,9.7-30.5c3.4-17.9,4.3-36,4.2-54.2c0-14.2-0.7-28.3-2.3-42.4c-1.3-11.8-2.9-23.5-4.4-35.2c-0.1-0.4-0.3-0.8-0.5-1.2
	c-0.3,0.2-0.5,0.2-0.5,0.4c-4.9,5.7-10.6,10.7-16.9,14.8c-0.8,0.5-1.3,1.4-1.4,2.3c-0.4,3.8-1.6,7.5-3.4,10.9
	C343.9,338.6,342.8,340.1,341.7,341.5L341.7,341.5z M305.8,61.8c-0.1-6.6-0.8-13.2-2-19.7c-1.6-8.7-3.8-17.2-7.6-25.2
	c-1.5-3.4-3.6-6.4-6.1-9.1c-3.1-3.4-7.6-5.1-12.1-4.6c-1.4,0.1-2.9,0.4-4.3,0.7c-5.8,1.3-11.3,3.5-16.5,6.3
	c-11,5.8-21.5,12.7-31.3,20.5c-1.1,1-2.7,1.4-4.1,1c-8.3-2.1-16.8-3.3-25.4-3.4c-12.8-0.4-25.6,1.1-38,4.4c-1.2,0.4-2.5,0.2-3.5-0.7
	c-3.1-2.4-6.2-4.8-9.4-7.1c-8.5-6.2-17.7-11.5-27.3-15.9c-4.2-1.9-8.5-3.2-13-3.8c-5.6-0.8-10.3,0.8-13.7,5.5
	c-1.4,1.8-2.6,3.8-3.7,5.9c-1.8,3.8-3.5,7.7-4.9,11.7c-5.1,15-7.8,30.5-10.1,46.1c-0.2,1.2-0.6,2.3-1.2,3.3
	c-3.8,5.8-6.7,12.2-8.6,18.9c-3.8,14.2-0.5,26.2,10.7,36c5.5,4.7,11.5,8.7,18,11.9c13.7,7,28.3,11.4,43.2,14.7
	c14.1,3,28.4,4.9,42.7,5.7c1.3,0.1,2.7-0.2,3.9-0.9c9.2-4.6,18.4-4.8,27.6-0.1c1,0.6,2.1,0.8,3.2,0.7c4.8-0.5,9.5-0.9,14.3-1.5
	c14.2-1.8,28.2-5.3,41.6-10.2c10.8-3.9,21-9.2,30.4-15.7c5-3.5,9.5-7.6,13.5-12.2c3.1-3.7,5.1-8.2,5.9-12.9
	c0.7-4.8,0.6-9.8-0.4-14.6c-1.7-9-4.8-17.6-9.2-25.6C306.4,68.3,304.9,65,305.8,61.8z M98.3,335.7c-1,0.8-1.8,1.3-2.5,1.9
	c-11.8,8.3-24.6,10.1-38.3,5.5c-3-0.9-5.7-2.7-7.8-5c-3.8-4.1-6.4-9.3-7.5-14.8c-0.2-1.5-1.2-2.8-2.5-3.5c-8.9-5.2-16.8-11.7-23-20
	c-0.3-0.3-0.6-0.7-1-0.9c-0.2,0.9-0.4,1.6-0.6,2.3c-2.2,11.2-3.7,22.5-4.9,33.9c-1.3,12.6-2.5,25.2-2.7,37.8
	c-0.2,10.5,0,21.1,0.4,31.7c0.4,12.6,1.9,25.1,4.4,37.3c2,9.9,4.8,19.6,9.4,28.6c2.1,4.3,4.8,8.1,8.2,11.4c2.2,2.2,5,3.9,8,4.7
	c0.8,0.2,1.7,0.3,2.5,0.4c0.2-0.8,0.2-1.2,0.4-1.7c3.4-12.5,9.6-23.3,19.8-31.6c14.6-12,33.4-12.2,48.1-0.4
	c10.9,8.7,17.9,20.1,21.5,33.5c0.1,0.5,0.3,1,0.5,1.7l14.7-2.2c-0.1-0.4-0.1-0.6-0.2-0.7c-0.6-0.5-1.3-1-1.9-1.5
	c-18.3-14-29.7-32.2-33.5-54.9c-1.8-10.9-2.9-21.9-4.2-32.8c-2.2-18-4.3-36-6.4-54.1C99,340.3,98.7,338.2,98.3,335.7z M81.6,273.9
	c-0.4-0.8-0.6-1.2-1-1.7c-5.4-8.2-8.1-17.3-9.1-27c-1.2-11.4,0.2-22.6,2.7-33.8c2.8-11.8,6.8-23.4,11.8-34.4c0.3-0.8,0.6-1.6,1-2.5
	c-7.8-3.3-15.1-7.7-21.6-13.1c-0.5,0.5-0.9,0.9-1.1,1.2c-9.9,11.9-19.2,24.4-27.7,37.4c-8.4,12.8-15.7,26.2-21,40.6
	c-3.7,9.9-6.3,20-6,30.6c0.1,11.2,4.2,22.1,11.6,30.5c5.4,6.2,11.9,11.2,19.2,15c0.5,0.2,0.9,0.3,1.4,0.5c0-11.5,5.3-20.4,12.7-28.3
	S70.4,275.5,81.6,273.9L81.6,273.9z M293.3,174.8c0.5,1,0.9,1.7,1.2,2.4c5.7,10.7,10.4,21.8,14.2,33.2c4.3,13.5,7,27.2,6,41.5
	c-0.5,9.1-3,18-7.5,26c-0.3,0.5-0.5,1.1-0.9,1.9c11.1,1,20,6.2,27.8,13.6s13.5,16.1,14.3,27.5c0.9-0.5,1.5-0.7,2-1.1
	c4.5-2.8,8.6-6.2,12.2-9.9c9.2-9.2,14.3-21.8,14.1-34.8c-0.1-7.2-1.4-14.3-3.6-21.2c-4.1-13-10.3-25-17.4-36.5
	c-11.8-19.3-26.1-36.6-41.1-53.3c-0.4-0.4-0.8-0.7-1.2-1.1C307.3,167.9,300.5,171.8,293.3,174.8L293.3,174.8z M86,507.1
	c3.2-0.2,6.4-0.3,9.6-0.5s6.5-0.5,9.8-1c4.8-0.5,9.4-1.8,13.8-3.8c7-3.4,10.1-8.9,8.9-16.6c-1.6-10-5.9-18.6-14.1-24.8
	c-14.8-11.1-30.8-12.6-47.4-4.9c-13,6-20.7,16.5-23.2,30.6c-1.2,6.8,1.6,12.3,7.7,15.6c3,1.6,6.3,2.8,9.7,3.4
	C69,507,77.5,507.2,86,507.1z M295.5,507.3c6.5-0.6,12.9-1,19.3-1.8c4.8-0.5,9.4-1.8,13.8-3.9c6.8-3.4,9.8-8.8,8.7-16.3
	c-1.4-9-5.1-17-11.9-23.2c-14.8-13.5-38.2-15.1-54.6-3.7c-0.9,0.7-1.6,1.5-2.2,2.4c-3.1,5-6.8,9.7-11,13.9c-1.8,1.8-3.1,4.1-3.7,6.5
	c-0.2,1-0.5,2-0.8,3c-1.8,8.5,1.4,14.8,9.4,18.2c3.3,1.3,6.6,2.3,10.1,3C280.1,507.2,287.7,507.2,295.5,507.3L295.5,507.3z
	 M111.4,305.1c0-12.9-4.3-19.3-13.5-22.9c-7.6-3.1-16.1-2.8-23.5,0.9c-4.7,2.4-9.1,5.4-12.9,9.1c-5.9,5.5-11.1,11.5-14.6,18.8
	c-2.7,5.7-3.8,11.6-1.8,17.7c2,6.4,5.7,11.4,12.7,13.1c2.9,0.7,5.9,0.8,8.8,0.5c7.6-1,14.8-3.4,21.5-7.1c6.8-3.5,12.7-8.5,17.2-14.6
	C109.1,315,111.4,308.9,111.4,305.1z M176.6,212.4c0.2,0.3,0.5,0.7,0.8,1c2.7,2.6,6.1,4.4,9.8,5.2c10.3,2.2,19.2-0.8,27.3-7.1
	c0.7-0.5,1.1-1.2,1-2.1c-0.1-3.4-0.4-6.8-0.8-10.2c-1.2-7-5-12.7-9.6-17.9c-4-4.2-8.4-8.1-13-11.7c-1.1-1-2.6-1.2-3.9-0.6
	c-14.7,4.9-20.3,19.6-18.2,30.9c0.3,2.5,1.2,4.8,2.6,6.9c3.8-0.3,7.5-0.4,11.1-1.2c-0.2-1.3-0.4-2.3-0.4-3.4c-0.1-4.1,3-7.6,7.1-7.9
	c3.9-0.2,7.4,2.5,8.1,6.4c0.8,4-1.7,7.8-5.7,8.8c-1.4,0.3-3.1-0.2-4.5,0.3s-2.6,1.9-4,2.5C182,213.3,179.5,212.9,176.6,212.4
	L176.6,212.4z M219.4,206.3c0.4-0.4,0.8-0.8,1.1-1.2c6.7-9.4,5.2-22.4-3.5-30c-5.7-5-12.5-7.3-20-7.4c-0.6,0-1.2,0.1-1.8,0.2
	c0.6,0.6,1.3,1,2.1,1.3c4.8,1.9,9.3,4.8,13,8.4c6.6,6.5,10.3,14.1,9.7,23.6C220,202.7,219.7,204.3,219.4,206.3L219.4,206.3z
	 M133,185.5l0.1,0.6c1.9,0.3,3.8,0.6,5.6,1c1.1,0.3,2.2,0,3.1-0.6c3.8-2.6,7.6-5,11.3-7.6c0.5-0.4,0.9-0.8,1.3-1.2
	c-3.9-3.2-7.6-6.3-11.5-9.3c-1.5-1.1-3.3-0.9-5.1-0.7l-0.3,0.5l10,9.4L133,185.5z M104.5,167.9c-0.6-1-1-1.7-1.5-2.4
	c-1.9-2.9-3.9-5.6-5.6-8.6c-1.3-2.3-3.4-3.1-6.1-4c2,4.5,4.4,8.4,6.3,12.7c-5.5,1.3-10.9,2-16.1,3.5c1.8,1.1,3.5,2,5.3,3
	c0.9,0.5,2,0.6,3,0.2c4-1.2,8-2.3,12-3.5C102.5,168.5,103.3,168.2,104.5,167.9L104.5,167.9z M307.9,153.5c-0.6-0.1-1-0.2-1.5-0.3
	c-3.9-0.4-7.8-0.6-11.7-1.1c-2.6-0.4-4.3,0.8-6.6,2.4l13.9,2.9l-7.6,14.6l0.3,0.4c1.8-0.8,3.5-1.7,5.4-2.4c1-0.4,1.9-1.3,2.2-2.3
	c1.6-4.1,3.3-8.1,5-12.2C307.5,154.8,307.6,154.2,307.9,153.5L307.9,153.5z M241.9,186.1l0.2,0.5c2-0.3,3.9-0.6,5.9-0.8
	c1-0.1,2-0.7,2.6-1.5c2.8-3.6,5.6-7.2,8.4-10.8c0.3-0.5,0.6-0.9,0.8-1.5c-0.8-0.4-1.5-0.7-2.1-0.9c-3.4-1.3-6.9-2.5-10.3-3.9
	c-2.3-1-4.3-0.4-6.9,0.6l12.6,6.5L241.9,186.1z M251.3,481.2c-2.4,1.3-8.3,6-9,7l7.2,1C250.2,486.5,250.7,483.9,251.3,481.2
	L251.3,481.2z"/>
<path class="st0" d="M186.4,484.2c-8-0.8-15.8-2.8-23.1-6c-10.8-4.6-20.2-12.1-27.1-21.5c-5.8-8.1-9.7-17.4-11.3-27.2
	c-1.1-6-1.7-12.2-2.4-18.3c-1.2-10.1-2.5-20.3-3.7-30.5c-1-8.4-2-16.8-3-25.2c-0.9-7.4-1.8-14.8-2.6-22.2c-2-18.9,2.6-36.1,14-51.2
	c12.5-16.5,29.3-26.1,49.9-28.3c37.1-4.1,71.1,21,78.2,57.6c1.1,5.8,1.6,11.7,2.4,17.6c1.3,10.2,2.5,20.3,3.7,30.5
	c1,8.4,2,16.8,3,25.2c0.9,7.3,1.7,14.6,2.6,21.9c3.8,29.6-9.4,53.1-33,67.2c-3.4,2-7.1,3.5-10.8,5.3c-0.3,0.1-0.6,0.1-0.9,0.1v0
	c0.4-0.4,0.8-0.7,1.2-1c16.8-8.7,27.4-22.3,33.3-40c2.8-8.3,4.4-16.9,3.8-25.7c-0.4-4.8-1-9.5-1.5-14.3c-1-8.9-2.1-17.8-3.2-26.7
	c-1.2-10-2.4-20-3.6-30c-0.9-7.3-1.9-14.6-2.6-21.9c-2.5-28-22.7-51.2-50-57.7c-34.5-8.4-70.1,13.5-78.2,48.1
	c-1.9,8-2.3,16.4-1.2,24.5c1.3,10,2.4,20,3.6,30s2.4,20,3.6,30c1.2,9.8,2.3,19.5,3.5,29.3c1,8,3.4,15.7,7.2,22.7
	c5.2,9.7,11.8,18.2,20.7,24.9c7.5,5.8,16.2,9.8,25.5,11.8C184.9,483.7,185.6,484,186.4,484.2L186.4,484.2z"/>
<path class="st0" d="M158.1,325.5l79-8.6c0.8,1.9,2.7,18.1,2.7,22.5c-6.2,0.9-12.6,1.5-18.9,2.2s-12.6,1-18.9,1.4
	s-12.7,0.8-19.3,1.1c0.4,7.2,0.7,14.2,1,21.5l52.1-5.7c0.8,7.5,1.6,14.6,2.4,22.1l-69,7.5c0.9,6.6,2.2,13,3.3,19.4
	s2.1,12.7,3.2,19.3l-23.9,3.9c-2.1-15.7-3.4-31.2-5.3-47c14.1-1.7,28-3.1,42-4.7s27.8-3,41.8-4.5c0.3-2.9-0.4-5.5-0.6-8.4l-66.3,7.2
	C161.6,358.3,159.9,342,158.1,325.5z M179.1,341.1c9-1.5,17.8-3,26.5-4.3s17.7-2.4,26.7-3.6c-0.2-2.9-0.5-5.8-1.1-8.7
	c-11.1,1.2-22,2.3-32.8,3.6c-10.8,1.2-21.6,2.3-32.6,3.7c1.3,12,2.5,23.6,3.9,35.2c3.6,0.2,12.3-1,13.7-1.8L179.1,341.1z
	 M154.1,391.2c1.2,11.3,2.3,22.3,3.8,33.5l12.4-0.7c-0.5-11.5-1.1-22.7-1.6-34.3L154.1,391.2z"/>
<path class="st0" d="M194.7,240.9l-3,0.2v-0.2L194.7,240.9L194.7,240.9z"/>
<path class="st0" d="M186.3,484.3l2.6-0.2v0.3L186.3,484.3L186.3,484.3z"/>
<path class="st0" d="M222.2,479.3l-1.7,0.9l-0.1-0.4L222.2,479.3L222.2,479.3z"/>
<path class="st0" d="M153.5,246.4l1.8-0.8l0.1,0.4L153.5,246.4L153.5,246.4z"/>
<path class="st0" d="M291.2,55c0,3.4,0,5.9,0,8.5c0,2.8-1.5,3.9-4.2,2.9c-2.1-0.7-4-2.1-5.3-3.9c-1.2-1.7-2.3-3.5-3.2-5.3
	c-2.3-4.5-5-8.7-8.2-12.6c-1.1-1.4-2.8-2.1-4.6-1.9c-4.7,0.4-9.4,0.2-14.1-0.7c-1.2-0.2-2.3-0.6-3.4-1c-2.4-1-2.9-2.6-1.4-4.8
	c0.1-0.1,0.2-0.2,0.3-0.4c4.1-5.3,8.7-10.2,13.9-14.5c2.4-1.9,4.9-3.5,7.5-5c1.6-0.9,3.4-1.5,5.2-1.8c3.2-0.8,6.6,0.4,8.6,3
	c1.5,2,2.7,4.1,3.7,6.4c1.9,4.8,3.2,9.9,3.7,15.1C290.3,44.5,290.8,50.2,291.2,55z"/>
<path class="st0" d="M90.6,58.8c0.4-9.6,1-19.2,3.5-28.5c0.8-3.2,2-6.2,3.6-9.1c3-5.6,7.6-7.2,13.6-4.8c2.7,1.1,5.2,2.5,7.5,4.3
	C125,25.2,130.2,31,135,37.1c1.6,2,1.1,3.8-1.2,4.8c-2.9,1.2-6,1.8-9.1,1.8c-2.9,0.1-5.8,0.1-8.6,0c-1.7-0.2-3.3,0.6-4.4,1.9
	c-3.4,4.1-6.2,8.5-8.6,13.3c-1,1.8-2.1,3.6-3.4,5.2c-1.3,1.6-3.1,2.9-5.1,3.4c-2.4,0.8-3.9-0.3-4-2.8c0-1,0-2.1,0-3.1L90.6,58.8z"/>
<path class="st0" d="M191.4,117.7c1.3,0.3,2.6,0.6,3.9,1.1c4.3,1.7,7.8,4.9,9.9,9c3.8,6.8,1.4,15.4-5.4,19.2c-0.3,0.2-0.7,0.3-1,0.5
	c-4.4,2.2-9.5,2.6-14.3,1.3c-5.4-1.5-10.5-5.4-10.3-13.7c0.2-9.8,6.2-15.5,13.5-16.7l-2.4,1.5c-6.8,4.4-8.2,10.5-6.7,18
	c0.5,1.9,1.7,3.5,3.3,4.5c4.9,3.3,13.4,2.7,17.7-1.2c3.4-3,4.2-7,3-11.2c-1.4-5.2-4.9-8.8-9.7-11.3c-0.6-0.3-1.2-0.5-1.7-0.7
	L191.4,117.7z"/>
<path class="st0" d="M211.9,89.4c2.8-5.4,6.6-10,10.9-14.6l-13.5-9l0.2-0.4c5.9,1,11.4,3.4,16.9,6c4.8-4,9.7-7.9,15.7-10.3
	c-3.2,4.7-7.2,8.6-11.2,12.8c7,4.5,13.3,9.3,18.3,15.6c0,0.1-0.1,0.2-0.1,0.3c-0.1,0-0.2,0.1-0.2,0.1c-0.7-0.3-1.3-0.5-2-0.9
	c-6.5-3.7-13-7.5-19.6-11.3L212.5,90L211.9,89.4z"/>
<path class="st0" d="M168.2,65.8l-13.5,9c4.2,4.5,8.1,9.1,10.6,14.7c-5.5-3.4-10.2-7.7-15-12.1c-7.3,4.3-14.3,8.8-21.9,12.3
	c4.8-6.6,11.1-11.4,18-15.8c-3.9-4.2-7.6-8.4-11.4-12.6l0.3-0.4c2,0.6,3.8,1.6,5.5,2.8c1.8,1.1,3.5,2.3,5.1,3.5s3.4,2.7,5.1,4.1
	c5.4-2.6,10.9-5,16.9-6L168.2,65.8z"/>
<path class="st0" d="M183.9,100.9c2.2-2.7,10.2-2.9,13-0.1c-0.7,2.2-3.8,4.5-6.3,4.6S184.8,103.3,183.9,100.9z"/>
<path class="st0" d="M254.6,114.3c8.2,0.1,16.3,1.9,23.7,5.4C274.3,120.9,260.3,117.8,254.6,114.3z"/>
<path class="st0" d="M129.5,114.2c-7.5,3.4-15.6,5.3-23.9,5.5C108.7,116.9,123.5,113.4,129.5,114.2z"/>
<path class="st0" d="M253.5,107c7.3-1.9,15-1.9,22.3,0C268.5,108.8,260.8,108.8,253.5,107z"/>
<path class="st0" d="M107.6,106.4c7.5-1.6,15.3-1.6,22.8,0C126,108.6,112.7,108.6,107.6,106.4z"/>
<path class="st0" d="M251.3,101c5.9-3.7,12.5-5.9,19.4-6.6C268.5,97.5,257.3,101.3,251.3,101z"/>
<path class="st0" d="M131.8,100.7c-6.7-0.3-13.1-2.4-18.7-6.2C119.8,94.8,126.3,96.9,131.8,100.7z"/>
<path class="st0" d="M90.1,483.6c4.2,4.4,3.6,10.6-1.2,13.6C84.7,493.9,85.3,486.4,90.1,483.6z"/>
<path class="st0" d="M76,497c-3.1-3.8-1.7-11.1,3.8-13C83.5,488,81.5,495,76,497z"/>
<path class="st0" d="M69.7,484.1c3.2,4.6,0.6,11.4-4.3,12.8C61.8,492.9,64.1,486,69.7,484.1z"/>
<path class="st0" d="M291.6,498c-4.8-3.1-5.4-9.3-1.2-13.4C295.3,487.1,296,494.1,291.6,498z"/>
<path class="st0" d="M304.5,497.8c-4.4-1.6-6.7-6.4-5.1-10.8c0.3-0.8,0.7-1.5,1.1-2.1c4.3,1.4,6.7,6.1,5.2,10.5
	C305.5,496.2,305.1,497,304.5,497.8z"/>
<path class="st0" d="M315.3,497.7c-5.9-1.6-7.4-9.2-4.5-12.7c4.4,1.2,6.9,5.7,5.7,10.1C316.2,496,315.8,496.9,315.3,497.7z"/>
<path class="st0" d="M84.9,296.8c0.7,0.3,1.4,0.5,2.1,0.8c3.2,1.6,6.4,3.1,9.6,4.8c2.4,1.3,3.8,4.3,3.3,7.5
	c-2.9,0.6-5.6,0.2-7.6-2.1c-2.5-3-4.8-6.2-7.1-9.3c-0.3-0.4-0.5-0.8-0.7-1.2L84.9,296.8z"/>
<path class="st0" d="M76.7,334.1c-3.9,0.4-6.3-0.9-8-4.1c-1.4-2.7-3-5.3-4.4-7.9c-0.4-0.8-0.8-1.6-1.3-2.7c0.5,0,1.1,0.2,1.5,0.4
	c3.4,2.3,6.8,4.5,10.1,6.9C76.6,328.1,77.4,331.2,76.7,334.1z"/>
<path class="st0" d="M88.7,322.2c-3.6,0.3-6.5-0.5-8.4-3.8c-1.6-2.7-3.5-5.1-5.2-7.7c-0.5-0.7-0.8-1.5-0.8-2.4
	c0.7,0.3,1.4,0.6,2.1,0.9c3.1,1.7,6.3,3.5,9.4,5.3C88.2,316.2,89.4,319.3,88.7,322.2z"/>
<path class="st0" d="M304.7,303.5c-1.5,2.2-2.9,4.4-4.4,6.5c-0.9,1.2-1.8,2.4-2.6,3.7c-1.6,2.5-4.1,3-6.9,3.1
	c-0.8,0-1.4-0.4-1.4-1.3c0.2-2.5,0.8-5,3.1-6.4c3.3-2,6.8-3.8,10.2-5.7c0.5-0.2,1-0.4,1.5-0.5L304.7,303.5z"/>
<path class="st0" d="M301.4,328.5c-0.3-3.2,0.2-5.9,2.7-7.6c3.1-2.1,6.4-4,9.5-6c0.7-0.3,1.4-0.7,2.1-0.9c-0.2,0.6-0.4,1.2-0.7,1.8
	c-2,3.3-4,6.8-6.2,10C307.2,328.2,304.6,328.7,301.4,328.5z"/>
<path class="st0" d="M327,324.7c-0.3,0.7-0.5,1.5-0.9,2.2c-1.5,3.1-3.1,6.3-4.7,9.4c-1.5,2.5-4.4,3.9-7.3,3.4c-1.1-3,0-6.4,2.6-8.2
	c2.6-2,5.2-4,7.9-5.9c0.6-0.5,1.3-0.8,2-1.2L327,324.7z"/>
</svg>
