<?xml version="1.0" encoding="utf-8"?>
<!-- Generator: Adobe Illustrator 22.1.0, SVG Export Plug-In . SVG Version: 6.00 Build 0)  -->
<svg version="1.1" id="Layer_1" xmlns="http://www.w3.org/2000/svg" xmlns:xlink="http://www.w3.org/1999/xlink" x="0px" y="0px"
	 viewBox="0 0 380.1 514.3" style="enable-background:new 0 0 380.1 514.3;" xml:space="preserve">
<style type="text/css">
	.st0{fill:#ED1C24;}
</style>
<title>Untitled-1</title>
<path class="st0" d="M340,491.3c-0.1,1.2-0.2,2.3-0.4,3.3c-0.8,4.5-3.4,8.6-7.1,11.3c-4.4,3.4-9.5,5.2-14.9,6.4
	c-7.4,1.5-14.9,2.2-22.4,2c-8.5,0-16.9-0.9-25.2-2.9c-3.8-0.9-7.5-2.4-10.8-4.5c-5.9-3.7-9.5-8.7-9.6-15.9c0-0.4-0.1-0.8-0.2-1.1
	c-2.8-0.4-5.5-0.9-8.3-1.1c-0.9,0.1-1.8,0.4-2.6,1c-26.4,15.3-59,15.6-85.7,0.6c-2.1-1.4-4.8-1.8-7.2-1.2c-4.4,1-8.9,1.7-13.4,2.6
	c-0.5,0.1-0.9,0.3-1.3,0.4c-0.1,0.2-0.3,0.3-0.3,0.5c-0.5,6.8-4.2,11.5-9.9,15c-4.6,2.6-9.6,4.4-14.9,5.2c-9.5,1.6-19.1,2-28.7,1.1
	c-6.7-0.5-13.4-1.3-19.8-3.5c-2.9-1-5.6-2.3-8.2-3.8c-4.5-2.5-7.6-6.8-8.7-11.8c-0.1-0.3-0.2-0.6-0.3-1c-0.5-0.1-1.1-0.3-1.6-0.4
	c-5.6-0.8-10.2-3.6-14.2-7.5c-4.4-4.5-7.9-9.7-10.5-15.5c-3.9-8.6-6.8-17.6-8.6-26.9c-2.6-12.6-4.2-25.4-4.9-38.3
	c-0.8-15.3-0.8-30.6,0.2-45.8c1.3-22.9,4.4-45.7,9.4-68.1c0.3-1.4,0.2-2.8-0.4-4.1C5.9,277.3,5,267,6.1,256.5
	c1.7-15.3,7.3-29.3,14.8-42.5c10.9-19.3,24.8-36.3,40.5-51.8c0.7-0.7,1.4-1.2,2.3-2c-0.7-0.8-1.2-1.4-1.7-2
	c-1.8-2.4-3.6-4.7-5.2-7.1c-2.2-3.4-2.2-7.1-0.8-10.8c1.4-3.7,3.6-7,6.3-9.8c0.6-0.6,1.2-1.3,1.8-1.9c-0.1-0.3-0.2-0.6-0.4-0.9
	c-6.1-9.6-6.6-19.8-3.5-30.4c2.1-7.1,5.6-13.7,10.1-19.5c1-1.2,1.5-2.8,1.6-4.4c1-16.9,3-33.6,8.2-49.8c1.2-3.9,3-7.6,4.6-11.3
	c0.6-1.3,1.4-2.5,2.2-3.7c4.6-7,11.2-9.6,19.4-8.5c8,1.1,15.4,4.2,22.5,7.8c9.3,4.8,18.1,10.4,26.3,16.7c1.4,1.2,3.3,1.6,5,1.1
	c12.2-2.9,24.7-4,37.1-3.2c7.8,0.4,15.6,1.7,23.1,3.9c1.4,0.5,3,0.2,4.2-0.7C235.1,18.3,246,12,257.4,6.7c5-2.4,10.4-4.2,15.9-5.3
	c2.2-0.4,4.4-0.6,6.7-0.6c4.8,0.1,8.6,2.2,11.8,5.6c2.8,3.2,5.1,6.8,6.8,10.7c3.6,8.2,6.2,16.8,7.7,25.6c1.5,7.2,2.3,14.5,2.5,21.9
	c0.1,1,0.4,2,1,2.9c4.9,8,8.6,16.6,11.2,25.6c1.9,6.3,2.5,12.9,1.8,19.5c-0.6,4.9-2.4,9.7-5.2,13.8c-0.4,0.5-0.7,1.1-1.1,1.6
	c0,0.1-0.1,0.3-0.1,0.4c0.4,0.5,0.9,1.1,1.5,1.6c2.7,2.7,4.9,5.9,6.4,9.5c1.8,3.9,1.5,8.4-0.8,12c-1.9,3.2-4.2,6-6.9,8.6
	c-0.6,0.6-1.2,1.2-2,1.9c1.1,0.9,2,1.7,2.9,2.5c17.9,15.8,33.6,33.5,46.1,54c6.6,10.5,11.5,22,14.4,34.1c2.7,11.6,3.1,23.1-0.1,34.6
	c-1.2,4.2-2.9,8.3-5,12.2c-0.6,1-0.7,2.1-0.5,3.2c1.7,10.7,3.4,21.3,4.8,32c1,7.8,1.5,15.8,2,23.7c0.8,11.6,0.9,23.2,0.5,34.8
	c-0.6,19.7-2.8,39.2-8.1,58.3c-1.8,6.9-4.3,13.6-7.7,19.9c-1.9,3.4-4,6.7-6.4,9.8C353.1,486.6,347.6,490.6,340,491.3z M274,450.7
	c1.2-0.7,2-1.1,2.7-1.5c12.6-6.4,25.1-6.3,37,1.3c13.6,8.7,21.9,21.5,25.8,37.1c0.1,0.6,0.4,1.2,0.6,1.8c4.2-0.5,8.2-2.3,11.2-5.2
	c3.4-3.1,6.1-6.8,8.2-10.8c2.8-5.3,5.1-10.9,6.7-16.7c4.3-14.3,6.2-29.1,7.1-43.9c0.9-14.2,0.9-28.5,0.3-42.7
	c-0.9-19.7-2.9-39.4-6-58.9c-0.1-0.9-0.4-1.8-0.6-2.8c-0.3,0.2-0.6,0.4-0.9,0.7c-4.9,5.6-10.5,10.6-16.7,14.7
	c-0.9,0.6-1.5,1.7-1.5,2.8c-0.5,4.3-2,8.4-4.2,12.2c-2.7,4.9-7.2,8.6-12.6,10.1c-3,0.9-6,1.6-9.1,1.9c-12.4,1.2-23.3-2.2-32.3-10.9
	c-8.6-8.4-13.1-18.9-14.1-30.7c-1-12.6,5-22.1,16.6-26.9c0.6-0.3,1.2-0.5,1.8-0.6c1.8-0.3,3.4-1.5,4.3-3.1c1.4-2.4,2.9-4.6,4-7.1
	c2.9-6.4,4.5-13.2,4.8-20.2c0.6-10.4-0.3-20.9-2.7-31c-3.3-14.7-8.5-28.8-14.5-42.6c-0.2-0.4-0.4-0.8-0.7-1.1
	c-0.4,0.1-0.6,0.1-0.8,0.2c-18.1,6.8-36.9,10.4-56,12.7c-2.4,0.3-4.9,0.6-7.3,0.9c0,0.8,0,1.2,0,1.7c0.3,4.2-0.1,8.3-1.2,12.4
	c-3.5,13-15.3,21.2-28.3,19.9c-15.3-1.5-28.7-14.5-30.7-29.9c-0.1-1-0.3-2-0.5-3.2c-25.1-2.2-49.9-5.8-73.6-14.8
	c-0.3,0.7-0.5,1.1-0.7,1.6c-5.2,14.5-9.6,29.3-11.4,44.7c-1.2,9.3-1,18.7,0.7,27.9c1.6,8.1,4.6,15.6,9.9,22.1c0.8,1.1,2,1.8,3.3,2.1
	c5,1.2,9.6,3.8,13.3,7.3c0.4,0.4,0.9,0.8,1.6,1.3c3.5-5.9,7.8-11.4,12.7-16.3c4.9-4.9,10.3-9.2,16.1-12.8c6.5-4,15.2-8,18.5-8.4
	c-0.3,0.2-0.6,0.3-0.9,0.5c-19.5,8.5-32.9,23-41.8,42.1c-0.5,1.2-0.6,2.5-0.3,3.7c0.6,2.6,1,5.3,1.2,8c0.2,9-2.3,17.9-7.1,25.5
	c-1.3,2-1.7,4.4-1.3,6.8c1,7.5,1.8,14.9,2.7,22.4c1.2,9.8,2.4,19.7,3.5,29.5c1.2,10.2,2.4,20.3,3.7,30.5c0.8,6.4,1.4,12.9,3,19.2
	c10,41.2,51.4,67.5,92.9,59.2c41.6-8.5,69.4-48,63.4-90c-1.2-8.7-2.1-17.5-3.2-26.2c-1-8.6-2.1-17.1-3.1-25.7
	c-1.2-10.2-2.4-20.3-3.7-30.5c-0.6-6.2-1.6-12.4-3.2-18.4c-4-14.1-11.6-26.1-21.5-36.7c-13-13.7-28.9-22.2-47.8-24.7
	c0.8-0.1,1.6-0.1,2.4,0c4.6,0.7,9.2,1.2,13.7,2.4c34.1,8.6,58.1,33.6,62.6,71.4c1,8.4,2,16.8,3,25.2l3.7,30.5
	c1.1,8.7,2.2,17.5,3.1,26.2c0.6,5.6,1.4,11.1,1.5,16.7c0.3,12.1-2,24.2-6.8,35.3C274.6,449,274.4,449.6,274,450.7z M305.5,59h0.3
	c-0.6-5.2-1.1-10.3-1.9-15.5c-1.3-9-3.8-17.8-7.6-26.2c-1.5-3.3-3.4-6.3-5.8-9.1c-3.5-4.1-8.9-6-14.2-5c-6.8,1.1-13.1,3.6-19.1,6.8
	c-11.2,5.9-21.8,12.8-31.7,20.7c-0.9,0.9-2.3,1.2-3.5,0.8c-7.1-1.7-14.4-2.8-21.8-3.3c-14-0.8-28,0.6-41.6,4.1
	c-1.4,0.5-3,0.2-4.1-0.8c-9.6-7.7-19.8-14.4-30.7-20c-5.9-3-11.9-5.5-18.5-6.5C99.5,4.3,94.6,5.9,91.1,11c-1,1.4-2,2.9-2.8,4.4
	c-2.5,4.7-4.6,9.7-6.1,14.8c-4.4,14-7.1,28.4-9.1,42.9c-0.2,2-0.9,3.9-2,5.5c-3.7,5.7-6.5,11.9-8.3,18.4c-3.5,13.7-0.3,25.4,10.4,35
	c5.7,5,12.1,9.2,19,12.5c18.7,9.3,38.6,14.4,59.1,17.4c8.5,1.2,17.2,1.8,25.8,2.7c1.6,0.2,3.2-0.1,4.6-0.9c9.1-4.5,18.3-4.7,27.4,0
	c1,0.6,2.2,0.8,3.4,0.7c3.2-0.3,6.4-0.6,9.5-1c14.6-1.6,29-4.8,43-9.7c13-4.6,25.3-10.5,36.3-18.8c4.4-3.2,8.3-7,11.7-11.3
	c2.3-3.1,4-6.6,4.8-10.4c1.1-5.8,1-11.7-0.4-17.4c-2.1-9.8-5.8-19.2-10.8-27.8c-0.6-1-0.9-2.2-0.8-3.4
	C305.7,62.8,305.5,60.9,305.5,59z M98.3,335.8c-3,1.8-5.5,3.7-8.2,5.1c-10.3,5.3-22.4,6-33.2,1.9c-3-1.1-5.7-3-7.8-5.4
	c-3.5-4.1-5.9-9-6.9-14.3c-0.2-1.4-1.1-2.6-2.4-3.2c-8.9-5.2-16.8-11.7-23-20c-0.4-0.4-0.8-0.8-1.3-1.1c-1.2,7-2.4,13.7-3.3,20.4
	c-2.6,18.8-4.2,37.7-4.7,56.6c-0.6,19,0.5,38.1,3.2,56.9c1.4,10.2,4,20.2,7.6,29.9c2,5.4,4.7,10.5,8.1,15.2c2.1,3,4.9,5.5,8.1,7.4
	c1.8,1.1,3.8,1.7,5.9,1.8c0.2-0.6,0.4-1.1,0.5-1.6c3.3-12.4,9.4-23,19.4-31.3c14.9-12.4,34.1-12.6,49-0.3
	c10.6,8.6,18,20.5,21.1,33.8c0.1,0.3,0.3,0.7,0.5,1l15-2.3c-0.8-0.7-1.2-1.1-1.7-1.5c-21-15.7-32.6-36.7-35.5-62.6
	c-1.4-12.7-3-25.4-4.5-38.1c-1.6-13.1-3.1-26.2-4.7-39.3C99.1,341.8,98.7,338.9,98.3,335.8z M86.9,174.5
	c-7.8-3.5-15.1-7.5-21.6-13.2c-0.6,0.7-1.1,1.1-1.5,1.7c-6.2,8.1-12.7,16.1-18.7,24.3c-10.9,14.9-20.4,30.6-27.5,47.7
	c-4.3,10.2-7.6,20.7-8.1,31.9c-0.6,12.9,2.8,24.5,11.2,34.5c5.4,6.3,11.9,11.4,19.3,15.2c0.5,0.2,1,0.4,1.5,0.5
	c0.2-11.4,5.4-20.4,12.8-28.2c7.5-7.9,16.1-13.5,27-15c0-0.3-0.1-0.5-0.1-0.8c-0.1-0.3-0.3-0.6-0.5-0.8c-6-9-8.7-19-9.4-29.6
	c-0.6-10.2,0.3-20.3,2.6-30.2c2.8-12.2,6.8-24,12-35.4C86.2,176.3,86.5,175.5,86.9,174.5L86.9,174.5z M293.4,174.6
	c0,0.4,0,0.6,0,0.7c0.3,0.6,0.6,1.3,1,1.9c5.4,10,9.9,20.4,13.5,31.2c4,12,6.8,24.3,6.9,37.1c0.1,11.7-2,22.9-8.1,33.1
	c-0.2,0.4-0.3,0.8-0.4,1.2c5.3,0.5,10.5,2,15.2,4.5c4.6,2.4,8.8,5.5,12.5,9.2c3.9,3.6,7.2,7.8,9.8,12.3c2.5,4.7,4.1,9.8,4.6,15.1
	c4-2.3,7.7-5.1,11.1-8.1c11.1-10.1,17.1-22.5,17.1-37.7c-0.1-7-1.3-14-3.5-20.7c-4.3-13.8-11-26.6-18.7-38.8
	c-11.7-18.6-25.5-35.4-40.1-51.7c-0.4-0.4-0.7-0.7-1.1-1C307.2,167.7,300.5,171.6,293.4,174.6L293.4,174.6z M85.7,507
	c5.9-0.2,14.1-0.3,22.1-1.9c4.5-0.7,8.9-2.2,12.9-4.3c5.5-3.2,7.9-8.1,7.3-14.3c-1.1-10.4-5.5-19.4-13.8-26
	c-13-10.3-27.7-12.5-43.2-7.2c-14.8,5.2-24.3,15.6-27.6,31.2c-1.7,8.3,1,14.3,9.2,17.9c2.7,1.1,5.5,2,8.4,2.7
	C68.4,506.8,75.9,507.1,85.7,507z M295.8,507c6.7-0.3,14.1-0.5,21.3-1.9c4.6-0.9,9-2,13.1-4.5c4.9-2.7,7.7-8.1,7-13.7
	c-0.7-9.4-5-18.3-12-24.7c-15.3-14.1-38.5-14.8-54.8-3.7c-0.8,0.6-1.5,1.4-2.1,2.3c-3.1,5-6.7,9.6-10.8,13.7c-2.1,2-3.5,4.6-4.1,7.4
	c-0.3,1.2-0.6,2.5-0.8,3.8c-1.2,7.1,1.5,12.9,8,16.1c3.1,1.5,6.4,2.6,9.7,3.3C278.5,507,286.9,507.1,295.8,507z M44,321.6
	c-0.1,5.2,1.6,10.4,4.8,14.5c1.9,2.5,4.5,4.3,7.6,5.2c2.9,0.9,6,1.2,9,0.9c12.9-1.4,25-6.9,34.5-15.8c6.4-6,10.7-13.3,11.4-22.3
	c0.7-10-3.1-17.6-12.5-21.6c-9.6-4-18.7-3.1-27.5,2.1c-4.4,2.7-8.5,6-12.2,9.7c-4.9,4.7-9,10.2-12.1,16.2
	C45.1,314,44.1,317.8,44,321.6z M326.1,347.5c1.3-0.1,2.6-0.1,3.8-0.2c4-0.5,7.7-1.8,10.4-4.9c4.2-4.6,6.2-10.7,5.5-16.8
	c-0.5-4.8-2.2-9.4-5-13.3c-6.1-9.3-14.4-16.9-24.1-22.2c-10.1-5.4-20.2-5.2-30.1,0.8c-4,2.4-6.9,6.3-8.1,10.9
	c-0.9,3.4-1.1,7-0.5,10.5c1.1,7.1,4.6,13.6,9.7,18.6c7.1,7.3,15.9,11.7,25.5,14.5C317.5,346.6,321.8,347.3,326.1,347.5z M172,206.4
	c3.9,0.2,7.8-0.2,11.5-1.1c-0.1-0.7-0.3-1.4-0.4-2c-0.5-3.3,1.1-6.5,4-8.1c3-1.6,6.7-1.1,9.1,1.3c2.3,2.3,2.9,5.7,1.6,8.6
	c-1.4,3.1-4.6,4.9-8,4.5c-0.9-0.2-1.9,0.1-2.6,0.8c-1.9,1.8-4.4,2.7-7,2.4c-1.1-0.1-2.2-0.2-3.4-0.3c0.2,0.3,0.4,0.6,0.6,0.9
	c2.3,2.2,5.1,3.9,8.2,4.8c10.8,3,20.3,0,28.9-6.7c0.6-0.6,1-1.4,1-2.3c0.2-3.8-0.1-7.7-1.1-11.4c-1.6-6.3-5-11.6-9.2-16.3
	c-4.1-4.3-8.5-8.3-13.2-11.9c-1-0.9-2.5-1.2-3.7-0.6c-8.7,3-14.5,8.8-17.4,17.5C168.5,193,168.9,200.1,172,206.4z M219.4,205.6
	l0.3,0.2c0.5-0.6,1-1.2,1.4-1.9c6.1-9.8,4-22.6-5-29.8c-3.9-3.1-8.5-5.2-13.4-6c-2.5-0.6-5-0.7-7.5-0.4c0,0.2,0,0.4,0,0.4l2.2,1
	c7.1,2.8,13.3,7.6,17.6,13.9c4,5.5,5.7,12.3,4.9,19.1C219.8,203.2,219.6,204.4,219.4,205.6L219.4,205.6z M259.9,172
	c-1-0.4-1.8-0.8-2.5-1c-3.3-1.2-6.6-2.4-9.8-3.8c-2.4-1-4.5-0.6-7.3,0.5l12.6,6.5L241.7,186l0.2,0.5c2.4-0.2,4.8-0.6,7.2-1.1
	c0.3-0.1,0.6-0.5,0.9-0.8C253.2,180.5,256.4,176.4,259.9,172z M81.4,168.6v0.6c1.8,0.9,3.5,1.8,5.3,2.7c0.9,0.5,2,0.6,3,0.2
	c4.4-1.3,8.7-2.5,13.1-3.8c0.5-0.2,1.1-0.4,1.6-0.7c-0.5-0.8-0.9-1.5-1.4-2.1c-2-3-4.1-5.9-5.9-9c-1.3-2.2-3.4-2.9-6-3.7l6.5,12.7
	L81.4,168.6z M301.9,157.2c-1.5,2.8-2.7,5.2-4,7.6c-1.3,2.3-2.5,4.7-3.4,7.2c1.9-0.6,3.6-1.5,5.4-2.2c1-0.4,1.9-1.2,2.2-2.3
	c1.4-3.6,3-7.2,4.5-10.8c0.4-1,0.8-2,1.3-3.3c-1.3-0.2-2.3-0.4-3.3-0.5c-3.2-0.3-6.4-0.4-9.5-0.9c-2.7-0.5-4.7,0.6-7.2,2.3
	L301.9,157.2z M147.2,177.6l-14.5,7.8l0.1,0.5c1.9,0.3,3.9,0.6,5.8,1c1.1,0.2,2.2,0,3.1-0.7c3.6-2.5,7.3-4.9,11-7.3
	c0.5-0.3,1-0.8,1.6-1.3c-0.7-0.6-1.3-1.2-1.9-1.7c-2.8-2.3-5.7-4.4-8.4-6.9c-1.9-1.7-4.1-1.6-6.9-1.7L147.2,177.6z M251.1,481.4
	l-0.4-0.2c-1.5,1.1-2.9,2.2-4.3,3.3s-2.8,2.1-4.3,3.1l0.2,0.5l7.1,0.9C250.1,486.3,250.6,483.9,251.1,481.4z"/>
<path class="st0" d="M186.4,484.2c-6.2-0.7-12.3-2.1-18.2-4.1c-12.5-4.3-23.5-12.2-31.5-22.6c-6-7.9-10-17.1-11.7-26.8
	c-1.4-7.1-2.1-14.4-3-21.6c-1.3-10.2-2.5-20.3-3.7-30.5c-1-8.5-2-17-3-25.5c-0.9-7.3-1.9-14.6-2.5-21.9
	c-1.7-17.7,3.4-35.3,14.3-49.3c12.4-16.3,28.9-25.8,49.2-28.1c36.9-4.3,71,20.2,78.6,56.6c1.1,5.5,1.7,11.1,2.4,16.6
	c1.2,10,2.4,20,3.6,30c1,8.7,2.1,17.4,3.1,26.2c0.9,7.4,1.7,14.8,2.7,22.1c1.3,10.3,1,20.5-2,30.4c-4.3,14.3-13,25.5-25,34.3
	c-5.2,3.8-10.8,6.8-16.8,9.1c-0.5,0.2-1.1,0.3-1.6,0.2c0.5-0.3,0.9-0.5,1.4-0.8c16.4-8.2,27.2-21.2,33.3-38.3
	c2.6-7.3,4.6-14.8,4.5-22.7c0-4.5-0.4-9-0.9-13.4c-1-8.9-2.1-17.8-3.2-26.7l-3.6-30c-1.2-9.8-2.5-19.7-3.5-29.5
	c-2.9-27.4-24-50.7-50.9-56.3c-35.2-7.6-69.8,14.7-77.5,49.9c-0.1,0.3-0.1,0.7-0.2,1c-1.5,7.7-1.6,15.6-0.5,23.4
	c1.1,8.7,2.1,17.5,3.2,26.2c1.2,10.1,2.4,20.2,3.6,30.2c1,8.7,2.1,17.3,3.1,26c0.9,7.8,2,15.6,5.3,22.8c6.6,14.6,16,26.7,30,34.9
	c6,3.5,12.6,6,19.4,7.4C185.3,483.7,185.9,483.9,186.4,484.2L186.4,484.2z"/>
<path class="st0" d="M239.9,339.2c-19.1,2.8-38,3.8-57.2,4.7c0.3,7.2,0.6,14.3,0.9,21.6l52-5.7c1.1,7.3,1.7,14.6,2.5,22.1l-69,7.5
	c2.2,12.9,4.4,25.6,6.6,38.7l-23.8,3.9c-0.3-2-0.8-3.8-1-5.7c-0.7-6-1.3-11.9-1.9-17.9c-0.8-7.1-1.5-14.1-2.3-21.2
	c-0.1-0.6-0.1-1.3-0.1-1.9c1.5-0.7,26.7-3.6,41.8-5.1c14-1.3,27.9-3,42.1-4.5l-0.9-8.4l-66.2,7.2c-1.8-16.5-3.6-32.7-5.4-49.2
	c26.5-2.9,52.8-5.8,79.4-8.7C238.2,324.4,239,331.7,239.9,339.2z M179,341c9.1-1.5,17.8-3,26.6-4.3s17.7-2.4,26.7-3.6
	c-0.3-2.9-0.6-5.6-0.9-8.3c-2.6-0.3-64,6.3-65.7,7.2c1.3,11.6,2.5,23.2,3.9,35.1l13.8-1.5C181.8,357.2,180.4,349.3,179,341z
	 M170.2,423.9c-0.5-11.5-1.1-22.8-1.6-34.3l-14.6,1.6c1.2,11.2,2.5,22.2,3.7,33.4L170.2,423.9z"/>
<path class="st0" d="M186.4,484.2L186.4,484.2z"/>
<path class="st0" d="M291.2,56.6c0,2.6,0.1,4.7,0,6.9c-0.1,2.7-1.6,3.7-4.1,2.9c-2.4-0.8-4.4-2.3-5.9-4.4c-1.1-1.6-2.1-3.4-3-5.1
	c-2.2-4.4-4.9-8.5-8-12.2c-1.1-1.6-3.1-2.4-5-2.1c-4.5,0.4-9.1,0.2-13.6-0.7c-1.3-0.2-2.5-0.6-3.7-1.1c-2.3-1-2.9-2.8-1.2-4.8
	c3.7-4.2,7.3-8.5,11.3-12.4c2.8-2.6,5.7-4.8,9-6.8c1.9-1.2,4-2,6.2-2.4c3.5-1,7.3,0.3,9.3,3.3c1.5,2.1,2.7,4.3,3.6,6.7
	c2,5.4,3.2,11.1,3.7,16.8C290.4,46.5,290.8,51.7,291.2,56.6z"/>
<path class="st0" d="M90.4,57.2c0.5-8.1,1.1-16.1,2.9-24c0.8-3.3,1.8-6.5,3-9.6c0.8-1.9,1.9-3.7,3.2-5.3c2-2.5,5.3-3.6,8.4-3
	c2.7,0.5,5.2,1.5,7.5,3c3.8,2.3,7.3,5.2,10.4,8.5c3,3.2,5.9,6.5,8.8,9.9c2.1,2.5,1.6,4.3-1.5,5.4c-3,1-6.2,1.6-9.4,1.6
	c-2.6,0.2-5.1,0.2-7.7,0c-1.8-0.2-3.5,0.6-4.5,2c-3.3,4.1-6.2,8.5-8.6,13.3c-1.1,2.1-2.5,4.1-4.1,5.8c-1.2,1.2-2.6,2.1-4.2,2.6
	c-2.5,1-4.1-0.1-4.1-2.8C90.4,62.1,90.4,59.7,90.4,57.2z"/>
<path class="st0" d="M238.3,114.6c1.2,5.7-1.5,9.7-7,10.7c-3.8,0.7-7.7,0.4-11.4-0.8c-3.9-1.3-7.7-3-11.5-4.7
	c-2.4-1.2-4.9-2.2-7.4-3c0.3,0.8,0.6,1.6,0.9,2.3c1.1,2.5,1.7,5.2,1.8,7.9c0.1,5.6-4,10.4-9.5,11.2c-2.5,0.4-5.1,0.2-7.6-0.6
	c-6.2-2-9.5-7.5-8-13.9c0.6-1.9,1.3-3.8,2.2-5.6c0.4-0.9,0.9-1.7,1.5-2.6c-0.6,0.1-1.2,0.2-1.8,0.3c-3.7,1.7-7.4,3.4-11.1,5.1
	c-4.3,2.1-8.7,4-13.6,4.4c-3,0.3-5.9-0.1-8.7-1.2c-3.8-1.6-5.7-5.3-4.8-10.1c0.2,0.5,0.3,0.8,0.4,1c2.3,4.8,6.6,6.2,11.4,5.5
	c3.7-0.5,7.4-1.3,11-2.4c5.1-1.4,10.1-3.1,15.1-4.7c6.5-2.1,13.5-2.1,20-0.1c6.2,1.9,12.3,3.9,18.5,5.8c3.2,1,6.4,2,9.9,1.6
	c1.2-0.1,2.4-0.3,3.6-0.5c2.7-0.4,4.9-2.3,5.8-4.8C237.9,115.5,238.1,115.1,238.3,114.6z M192.1,133.3c3.6,0.3,6.8-2.1,7.6-5.6
	c1-3.7,0.2-7.3-0.3-10.9c-0.2-0.7-0.7-1.2-1.3-1.4c-4.2-1.6-8.8-1.9-13.2-0.8c-1,0.1-1.8,0.8-2,1.8c-0.4,1.6-0.8,3.2-1.1,4.9
	c-0.6,2.3-0.4,4.8,0.5,7.1c1.2,3.2,3.5,4.8,7.1,4.9c-0.6-6.4-0.5-7.1,1.5-9.5C193.3,126.6,193.1,130,192.1,133.3z"/>
<path class="st0" d="M170.5,91.9c-0.5-0.4-1-0.7-1.5-1.1c-4.6-3.7-9.6-6.9-14.8-9.7c-6.1-3.4-12.5-4.1-19.2-3.5
	c-4.8,0.5-9.6,1.6-14.2,3.3c-0.5,0.2-1.1,0.3-1.6,0.5c-0.1,0-0.2-0.1-0.4-0.2c0.1-0.2,0.3-0.4,0.4-0.5c8.1-5,16.7-8.4,26.4-7.9
	c3.2,0.1,6.4,0.6,9.4,1.4c7.7,2.1,12.7,7.4,15.4,14.8c0.3,0.9,0.4,1.8,0.6,2.7L170.5,91.9z"/>
<path class="st0" d="M264.6,81.4c-1-0.3-2-0.6-2.9-0.9c-5.9-2.1-12.1-3.1-18.3-3.1c-4.7,0-9.4,1.2-13.6,3.4
	c-5.4,2.8-10.5,6.1-15.2,9.9c-0.5,0.4-1.1,0.8-1.9,1.3c-0.3-1.1-0.2-2.2,0.3-3.1c3-8,8.5-13.2,16.8-15.2c8.8-2,18-1.1,26.2,2.6
	c3.1,1.3,6,2.8,8.8,4.7L264.6,81.4z"/>
<path class="st0" d="M183.7,100.8c2.7-2.8,10.7-2.7,13.3,0.2c-1.3,2.4-3.7,4-6.4,4.3C188.2,105.6,184.9,103.4,183.7,100.8z"/>
<path class="st0" d="M254.6,114.3c8.1,0,16.1,1.9,23.3,5.5C269.8,119.8,261.8,117.9,254.6,114.3z"/>
<path class="st0" d="M105,119.4c7.5-3.4,15.6-5.3,23.9-5.6C125.7,116.7,111,120.2,105,119.4z"/>
<path class="st0" d="M130.1,106.5c-7.3,1.9-14.9,1.9-22.2,0C115.2,104.7,122.8,104.7,130.1,106.5z"/>
<path class="st0" d="M275.6,106.9c-4.4,1.8-16.7,1.9-22.1,0.1C256.9,104.9,270.9,104.8,275.6,106.9z"/>
<path class="st0" d="M132,100.8c-5.9,0-15.4-3.2-19-6.3C117,93.7,127.8,97.2,132,100.8z"/>
<path class="st0" d="M271.2,94.6c-5.8,3.7-12.4,5.9-19.3,6.5C254.1,98.1,265.6,94.2,271.2,94.6z"/>
<path class="st0" d="M79.9,483.9c3.6,4.6,0.9,11.4-3.8,13C72.2,493.2,74.7,485.2,79.9,483.9z"/>
<path class="st0" d="M69.6,484c3.2,4.5,1.1,10.6-4.4,12.7c-2.7-3.7-1.9-8.8,1.8-11.5C67.7,484.7,68.6,484.3,69.6,484z"/>
<path class="st0" d="M88.8,497.2c-4.1-3.5-3.6-10.8,1-13.5C94.2,486.7,93.8,493.9,88.8,497.2z"/>
<path class="st0" d="M300.5,484.6c5.6,2.6,7.3,8.5,3.9,13C298.9,495.5,297.1,489.6,300.5,484.6z"/>
<path class="st0" d="M310.6,484.8c4.7,1,8.1,7.9,4.6,12.8C309.8,496,307.6,490,310.6,484.8z"/>
<path class="st0" d="M291.4,497.9c-4.8-2.3-5.3-10.3-1.2-13.4C295.2,487,295.8,494.2,291.4,497.9z"/>
<path class="st0" d="M74.3,308.3c0.8,0.4,1.6,0.7,2.3,1.1c3,1.7,6,3.3,9,5.1c2.5,1.6,3.7,4.6,3.1,7.4c-3.1,1-6.4-0.3-8.1-3
	c-1.8-2.7-3.6-5.2-5.4-7.9c-0.5-0.7-0.9-1.5-1.3-2.2L74.3,308.3z"/>
<path class="st0" d="M76.7,333.9c-3.1,0.5-6.2-0.6-7.5-2.8c-2-3.4-3.8-6.8-5.7-10.2c-0.3-0.6-0.5-1.1-0.7-1.7c0.7,0.2,1.4,0.5,2,0.8
	c3.2,2.1,6.4,4.2,9.5,6.5C76.8,328.3,77.1,331,76.7,333.9z"/>
<path class="st0" d="M85,296.6c2.4,1.1,4.7,2.2,7.1,3.4c1.3,0.6,2.5,1.4,3.8,2c2.9,1.2,3.8,3.7,4.3,6.5c0.2,0.6-0.2,1.3-0.8,1.5
	c-0.1,0-0.2,0.1-0.4,0c-2.5,0.2-5-0.1-6.6-2.1c-2.6-3.2-5-6.6-7.5-9.9c-0.1-0.3-0.3-0.6-0.3-0.8L85,296.6z"/>
<path class="st0" d="M314,339.7c-0.9-2.8-0.2-6,1.8-7.6c3.1-2.4,6.2-4.7,9.4-7c0.6-0.4,1.2-0.7,1.9-1c-0.5,1.2-0.7,1.9-1,2.6
	c-1.6,3.2-3.1,6.4-4.8,9.6C319.8,338.8,316.9,340.2,314,339.7z"/>
<path class="st0" d="M304.5,303.2c-0.4,0.7-0.7,1.3-1.1,1.9c-2,3-4,5.9-6.1,8.8c-1.6,2.2-4,2.6-6.6,2.7c-0.7,0.1-1.3-0.3-1.4-1
	c0-0.2,0-0.4,0-0.5c0.3-2.8,1.2-5.2,3.9-6.7c3-1.5,5.8-3.2,8.8-4.8c0.7-0.3,1.4-0.6,2.1-0.9L304.5,303.2z"/>
<path class="st0" d="M315.7,313.9c-0.3,0.8-0.6,1.5-1,2.2c-1.9,3.1-3.7,6.3-5.8,9.4c-1.8,2.6-4.5,3.1-7.4,2.9
	c-0.8-2.8,0.1-6.2,2.3-7.6c3.3-2.2,6.8-4.2,10.2-6.3C314.6,314.3,315.1,314.1,315.7,313.9z"/>
</svg>
