<?xml version="1.0" encoding="utf-8"?>
<!-- Generator: Adobe Illustrator 22.1.0, SVG Export Plug-In . SVG Version: 6.00 Build 0)  -->
<svg version="1.1" id="Layer_1" xmlns="http://www.w3.org/2000/svg" xmlns:xlink="http://www.w3.org/1999/xlink" x="0px" y="0px"
	 viewBox="0 0 380.2 514.2" style="enable-background:new 0 0 380.2 514.2;" xml:space="preserve">
<style type="text/css">
	.st0{fill:#ED1C24;}
</style>
<title>Untitled-1</title>
<path class="st0" d="M63.5,160c-1.9-2.4-3.7-4.6-5.4-6.9c-3.8-5.2-3.8-10.6-0.5-16c1.6-2.4,3.3-4.7,5.1-6.9c0.5-0.6,1.1-1.2,1.6-1.8
	c-0.1-0.3-0.3-0.6-0.4-0.9c-5.7-8.8-6.5-18.4-4-28.3c2-7.7,5.6-14.9,10.5-21.2c1.1-1.5,1.8-3.3,1.8-5.2c1-16.7,3-33.3,8.2-49.3
	c1.4-3.9,3-7.8,4.8-11.5c0.6-1.3,1.4-2.5,2.2-3.7c4.6-7,11.2-9.4,19.3-8.3s15.4,4.2,22.5,7.8c9.4,4.9,18.3,10.6,26.7,17
	c1.2,1,2.9,1.3,4.4,0.9c12.4-3,25.1-4.1,37.8-3.2c7.7,0.4,15.3,1.7,22.6,3.9c1.4,0.5,3,0.2,4.2-0.7c10.5-7.5,21.8-14,33.6-19.4
	c4.6-2.2,9.5-3.8,14.5-4.8c2.4-0.4,4.7-0.6,7.1-0.6c4.7,0.1,8.4,2.2,11.5,5.6c3.1,3.6,5.6,7.6,7.4,12c3.6,8.6,6.2,17.7,7.6,26.9
	c1.3,6.4,1.9,13,2,19.5c0.1,0.9,0.4,1.8,1,2.6c5.2,8.5,9.1,17.8,11.6,27.5c1.7,6.9,2.4,13.9,0.8,20.9c-0.9,4.2-2,6.3-5.9,12.5
	c0.5,0.5,1,1.1,1.5,1.6c2.6,2.6,4.7,5.7,6.3,9c2,4.1,1.8,9-0.7,12.8c-1.9,3-4.1,5.7-6.6,8.2l-2,2l2.9,2.6
	c17.4,15.1,32.5,32.6,44.8,52c6.6,10.5,12,21.7,15.1,33.8c2.8,11,3.7,22,1.3,33.2c-1.1,5.3-3,10.5-5.6,15.2c-0.8,1.3-1,2.8-0.7,4.3
	c2.4,11.8,4,23.6,5.2,35.6c0.7,6.5,1.1,13.1,1.5,19.6c0.7,11.7,0.9,23.3,0.5,35c-0.6,19.5-2.7,38.9-8,57.8c-2,7.6-4.9,14.9-8.6,21.8
	c-1.4,2.6-3.1,5.1-4.9,7.4c-4.6,5.9-10.2,10.2-17.9,10.9c-0.1,0.3-0.2,0.7-0.3,1c-0.2,5.9-3,10.3-7.6,13.8
	c-3.4,2.4-7.2,4.2-11.2,5.3c-5.6,1.6-11.4,2.5-17.2,2.7c-10.6,0.7-21.3-0.1-31.7-2.3c-4.8-0.9-9.4-2.8-13.5-5.3
	c-4.5-3-7.7-6.9-8.7-12.4c-0.2-1.3-0.3-2.7-0.4-4.2c-2.7-0.4-5.4-0.8-8.1-1c-1,0.1-2,0.4-2.9,1c-8.4,4.9-17.7,8.3-27.3,10.1
	c-20.9,3.8-40.6,0.6-59-9.9c-1.8-1.1-4-1.5-6.1-1c-4.7,1-9.4,1.8-14.1,2.7c-0.4,0.1-0.8,0.2-1.2,0.3c-0.1,0.3-0.2,0.6-0.3,0.9
	c-0.5,5.6-3.2,9.8-7.6,13.1s-9.6,5.1-14.9,6.3c-9.6,2.1-19.3,2.3-29.1,1.7c-6.2-0.3-12.3-1.2-18.2-2.7c-2.5-0.7-5-1.6-7.4-2.6
	c-6.6-3-11.6-7.4-13-15c-0.4-0.2-0.9-0.3-1.4-0.4c-6.2-0.8-11.1-4-15.3-8.3c-3.8-4.1-6.8-8.8-9.1-13.8c-4.3-8.9-7-18.3-9.1-28
	C3.3,433,1.9,422.5,1,412c-1.3-17.5-1.4-35-0.2-52.5c1.2-21.6,4-43,8.6-64.1c1-3.7,0.8-7.7-0.5-11.3c-3.7-10.1-3.8-20.7-2.2-31.2
	c2.1-14,7.5-26.9,14.5-39.1c10.7-18.8,24.2-35.5,39.6-50.7c0.9-0.9,1.7-1.7,2.6-2.5C63.4,160.3,63.5,160.2,63.5,160z M155.2,245.9
	c-1.9,0.9-3.9,1.8-5.7,2.7c-17.2,9-29.2,22.8-37.2,40.3c-0.4,0.9-0.5,2-0.1,3c1.3,4.8,1.6,9.8,0.8,14.7c-1,7.2-3.6,14.2-7.5,20.3
	c-0.6,0.8-0.9,1.9-0.8,2.9c0.2,2.1,0.4,4.3,0.7,6.4c1.2,10,2.4,20,3.6,30c1,8.7,2.1,17.3,3.1,26c1.2,10,2.5,20,3.6,30
	c1.3,13.6,6.1,26.6,13.9,37.8c17.2,24.8,47.5,38.8,78.4,33.5c25.6-4.4,44.8-18.4,57.4-41.1c7.8-14,11-30.2,9.1-46.1
	c-0.9-8.4-2-16.8-3-25.2c-1.2-10-2.4-20-3.6-30c-1.2-10.2-2.5-20.5-3.7-30.7c-0.6-6.1-1.7-12.2-3.1-18.2c-2.7-10-7.6-18.9-13.7-27.3
	c-8.9-12.5-20.9-22.3-34.9-28.4c-6.4-2.7-13.1-4.6-20-5.6c0.8-0.1,1.6-0.1,2.4-0.1c2.9,0.4,5.9,0.8,8.8,1.3
	c17.9,3.6,33.5,11.6,46,25c12.3,13.2,18.5,29.1,20.8,46.8c0.9,7.2,1.7,14.5,2.6,21.7c1.2,10.2,2.4,20.3,3.7,30.5
	c1,8.7,2.1,17.3,3.1,26c0.7,6.3,1.7,12.7,2,19.1c0.6,12.7-1.6,25.3-6.6,37c-0.3,0.7-0.5,1.4-0.9,2.5c1.1-0.6,1.7-0.9,2.4-1.2
	c14-7.2,27.5-6.3,40.1,3c12.1,8.9,19.6,21.1,23,35.7c0.1,0.4,0.2,0.7,0.4,1.2c3.9-0.4,7.5-2,10.5-4.5c2.8-2.4,5.3-5.2,7.2-8.3
	c3-4.8,5.4-10,7.2-15.4c4.7-13.7,6.9-27.9,8.1-42.3c1-12.4,1.4-24.9,1.1-37.4c-0.5-21.7-2.3-43.3-5.5-64.7c-0.4-2.7-0.9-5.4-1.4-8.4
	c-0.4,0.2-0.7,0.5-1,0.8c-4.9,5.6-10.5,10.6-16.7,14.6c-0.8,0.6-1.4,1.6-1.4,2.6c-0.4,2.3-0.9,4.5-1.6,6.7
	c-2.7,7.6-7.4,13.4-15.5,15.8c-12,3.7-23.7,2.9-34.4-3.9c-14.5-9.3-20.9-23.4-20.8-40.3c-0.1-6.2,2.5-12.1,7-16.3
	c3.4-3.3,7.6-5.7,12.1-7.1c1.2-0.4,2.3-1.1,3-2.2c2.3-3.1,4.3-6.4,5.7-10c3.1-7.9,4.1-16.2,4.1-24.7c-0.1-8.4-1.2-16.8-3.1-24.9
	c-3.3-14.5-8.4-28.3-14.3-41.9c-0.2-0.4-0.5-0.8-0.8-1.2c-20.7,7.9-42.3,11.4-64.1,13.9c0,0.8,0,1.2,0,1.7c0.3,4.2-0.1,8.3-1.2,12.4
	c-4,14.3-16.3,20.9-27.8,19.9c-15.8-1.3-29.2-14.4-31.2-30.1c-0.1-1-0.3-1.9-0.5-3c-25.1-2.2-49.8-5.8-73.4-14.7
	c-0.2,0.2-0.3,0.3-0.4,0.5c-0.2,0.4-0.3,0.7-0.5,1.1c-5.2,14.6-9.6,29.3-11.3,44.8c-1.2,9.2-1,18.6,0.7,27.7
	c1.6,8.2,4.6,15.8,10,22.3c0.8,1,1.9,1.7,3.1,2c5.1,1.2,9.7,3.8,13.5,7.4c0.4,0.4,0.9,0.8,1.4,1.2
	C119.1,264.9,135,252.6,155.2,245.9L155.2,245.9z M305.7,59h0.4c-0.8-6.1-1.5-12.2-2.5-18.3c-1.3-8.5-3.9-16.8-7.7-24.6
	c-1.5-3.1-3.4-6-5.8-8.5c-3.1-3.1-6.7-4.9-11.2-4.6c-1.9,0.1-3.8,0.4-5.7,0.8c-7,1.6-13.4,4.6-19.6,8.1
	c-9.8,5.5-19.1,11.7-27.9,18.7c-1,0.9-2.4,1.2-3.7,0.8c-6.8-1.7-13.6-2.7-20.6-3.2c-14.3-1-28.7,0.4-42.5,4.1
	c-1.5,0.5-3.2,0.2-4.3-0.8c-9.4-7.6-19.6-14.2-30.3-19.8c-5.7-3.1-11.8-5.3-18.2-6.6c-6.4-1.1-11.7,0.7-15.4,6.3
	c-1,1.4-1.9,2.9-2.7,4.5c-1.7,3.8-3.5,7.6-4.9,11.5C78,42.3,75.3,57.7,73,73.1c-0.2,1.9-0.9,3.7-1.9,5.3c-3.9,5.8-6.7,12.2-8.4,19
	c-3.3,13.4-0.2,25,10.2,34.4c5.1,4.5,10.7,8.3,16.7,11.4c17.6,9.2,36.5,14.4,55.9,17.8c10.3,1.8,20.7,3,31.2,3.6
	c1.8,0.1,3.6-0.3,5.2-1.1c9-4.3,18-4.4,27,0.2c1,0.6,2.2,0.8,3.4,0.7c4.4-0.5,8.8-0.9,13.1-1.4c12.9-1.6,25.7-4.5,38-8.7
	c12.7-4.4,24.8-10,35.7-17.8c5-3.5,9.6-7.8,13.4-12.6c2.9-3.8,4.8-8.4,5.4-13.1c0.6-5.7,0.2-11.5-1.3-17.1
	c-2.2-8.9-5.7-17.5-10.3-25.5c-0.7-1.1-0.9-2.4-0.8-3.6C305.8,62.7,305.7,60.9,305.7,59z M98.4,335.8c-0.3,0.1-0.5,0.1-0.8,0.3
	c-0.3,0.2-0.6,0.5-1,0.7c-10.6,8-22.3,10.2-35.1,7.4c-4.8-1-9.1-3-12.3-6.9c-3.5-4.1-5.9-9-6.9-14.3c-0.2-1.4-1.1-2.6-2.4-3.3
	c-9-5.3-16.9-11.7-23.2-20.2c-0.3-0.3-0.7-0.7-1.1-0.9c-1,5.9-2.1,11.5-2.9,17c-3,20-4.7,40.2-5.2,60.4c-0.6,18.8,0.5,37.6,3.2,56.2
	c1.4,9.9,3.8,19.6,7.2,29c1.9,5.6,4.7,10.9,8.1,15.7c2.2,3.2,5,5.8,8.3,7.8c1.8,1.2,4,1.8,6.2,1.9c0.2-0.6,0.4-1.1,0.5-1.6
	c3.3-12.8,9.8-23.5,20.1-31.9c13.5-11.1,31.8-11.6,45.2-2c12,8.5,19.6,20.2,23.8,34.2c0.3,0.9,0.4,1.8,0.7,2.9l14.7-2.2
	c-0.1-0.4,0-0.6-0.1-0.7c-0.5-0.4-1-0.8-1.5-1.2c-3.7-3.3-7.7-6.3-11.1-9.8c-14.2-14.7-21.8-32.4-23.9-52.7
	c-1.3-12.6-2.9-25.2-4.4-37.9c-1.6-13.2-3.2-26.4-4.8-39.5C99.1,341.7,98.8,338.9,98.4,335.8z M65.4,161.4c-0.6,0.6-1,1-1.4,1.5
	c-6.3,8.2-12.8,16.2-18.8,24.5c-10.6,14.5-19.9,29.8-26.9,46.3c-4.5,10.6-8.1,21.5-8.7,33.2c-0.6,12.9,2.8,24.5,11.2,34.5
	c5.4,6.3,12.1,11.5,19.5,15.3c0.4,0.1,0.8,0.3,1.2,0.3c0.1-0.5,0.1-0.8,0.1-1.1c0.2-5.2,1.5-10.3,3.9-14.9
	c3.7-6.9,8.7-12.9,14.8-17.7c5-4.2,10.9-7.2,17.3-8.8c1.2-0.3,2.5-0.5,3.7-0.8c0-0.1,0-0.3,0-0.4c-0.1-0.3-0.3-0.6-0.4-0.8
	c-6.1-9.1-8.9-19.2-9.6-30c-0.6-10.2,0.3-20.3,2.7-30.2c2.8-12.1,6.8-23.8,11.9-35.1c0.4-0.9,0.7-1.7,1.1-2.7
	C79.1,171.2,71.9,166.8,65.4,161.4L65.4,161.4z M348.5,320.9c0.7-0.4,1.2-0.5,1.5-0.8c4.9-3,9.4-6.7,13.3-10.9
	c9.1-9.4,13.9-22.1,13.4-35.1c-0.2-7.2-1.5-14.3-3.9-21.1c-4.7-14.2-11.7-27.3-19.8-39.8c-11.3-17.5-24.5-33.6-38.4-49.1
	c-0.3-0.4-0.7-0.6-1.2-1.1c-6.1,5-13,8.6-20.2,11.9c0.5,1,0.9,1.8,1.3,2.6c6.1,11.3,11.1,23.2,14.9,35.5c4.1,13.6,6.6,27.5,5,41.8
	c-0.7,8.1-3.2,15.9-7.1,23c-0.3,0.6-0.6,1.2-1.1,2.1c11.2,1,20.1,6.1,27.8,13.5C341.8,300.8,347.6,309.5,348.5,320.9z M84,507
	c7.4-0.3,15.5-0.3,23.5-1.9c4.5-0.7,8.9-2.1,12.9-4.2c5.7-3.2,8.3-8.2,7.6-14.6c-1.1-10.2-5.3-19-13.3-25.4
	c-13.4-10.8-28.4-13-44.4-7.2c-14.4,5.2-23.5,15.6-26.8,30.7c-1.8,8.4,1.4,14.6,9.3,18c2.1,0.9,4.3,1.7,6.6,2.2
	C67.3,506.8,75.3,507,84,507z M293.9,507c7-0.3,15-0.3,22.9-1.8c4.6-0.7,9-2.1,13.1-4.3c5.4-3.1,8-7.9,7.4-14
	c-0.7-9.8-5.3-18.9-12.7-25.3c-15.2-13-37.3-14.3-53.9-3.2c-0.9,0.6-1.7,1.5-2.2,2.4c-3.1,5-6.7,9.6-10.8,13.7c-2,2-3.5,4.6-4.1,7.4
	c-0.3,1.1-0.5,2.2-0.7,3.3c-1.4,8,1.6,13.8,9,17.1c2.9,1.2,5.8,2.2,8.9,2.8C278,506.9,285.5,507,293.9,507L293.9,507z M87.3,280
	c-5.7,0-11.4,1.7-16.2,4.8c-8.6,5.3-15.9,12.5-21.4,21c-1.8,2.7-3.2,5.5-4.2,8.6c-2.7,7.8-1.7,15.1,3.4,21.7c2,2.6,4.8,4.5,8,5.4
	c4,1,8.1,1.1,12.1,0.3c7.8-1.4,15.3-4.3,22-8.5c6.2-3.6,11.4-8.6,15.3-14.6c4-6.4,5.9-13.3,4.7-20.8c-0.9-6-3.9-10.8-9.2-13.8
	C97.4,281.5,92.4,280.1,87.3,280z M326.1,347.3c1.1,0.1,2.2,0.1,3.4,0c4.1-0.5,7.9-1.6,10.8-4.7c4.3-4.5,6.4-10.7,5.8-17
	c-0.5-5-2.3-9.7-5.2-13.7c-6.1-9.1-14.2-16.6-23.8-21.9c-9.3-5-18.8-5.2-28.2-0.4c-7.1,3.7-10.6,9.5-10.8,17.4
	c-0.2,8.2,2.7,15.2,7.8,21.3c4.7,5.6,10.7,10,17.3,13C310.4,344.8,318,347.2,326.1,347.3L326.1,347.3z M183.6,205.6
	c-0.2-1-0.3-1.5-0.4-2c-0.7-3.3,0.8-6.7,3.8-8.4c2.9-1.6,6.5-1.2,8.9,1c2.5,2.2,3.3,5.7,2,8.8c-1.3,3.2-4.5,5-7.9,4.6
	c-1.1-0.2-2.2,0.2-3,1c-1.7,1.6-4.1,2.4-6.4,2.2c-1.2-0.1-2.4-0.2-3.7-0.3c0,0.2,0.1,0.4,0.2,0.6c0.1,0.2,0.3,0.4,0.5,0.5
	c3.5,3.2,8,5.1,12.8,5.6c8.8,0.8,16.5-1.9,23.5-7.1c1.1-0.8,1.8-2.1,1.7-3.4c0.3-8.7-2.4-17.3-7.9-24.1c-4.7-6-10.5-10.8-16.4-15.4
	c-0.8-0.6-1.8-0.7-2.7-0.3c-15.2,4.8-20.3,19-19,29.8c0.2,2.9,1.2,5.7,2.8,8.2L183.6,205.6z M195.4,167.6l0,0.5l2.4,1
	c7.1,2.8,13.2,7.7,17.5,14c3.9,5.5,5.6,12.2,4.7,18.9c-0.2,1.2-0.3,2.4-0.5,3.6c0.6-0.2,1-0.6,1.3-1.1c6.3-9.5,4.6-22.3-4-29.8
	c-3.9-3.3-8.6-5.6-13.7-6.6C200.7,167.6,198.1,167.4,195.4,167.6L195.4,167.6z M104.3,167.7c-0.4-0.7-0.7-1.2-1-1.7
	c-2-3.1-4.2-6-6-9.2c-1.3-2.3-3.4-3-6.2-4c2.3,4.5,4.4,8.6,6.5,12.7c-5.6,1.3-10.9,2-16.7,3.5c2.3,1.2,4.1,2.1,5.8,3
	c0.9,0.5,2,0.6,2.9,0.2c4.4-1.3,8.9-2.6,13.3-3.9C103.4,168.1,103.9,167.9,104.3,167.7L104.3,167.7z M301.9,157.2
	c-2.6,5-5.1,9.8-7.6,14.6l0.3,0.4c1.9-0.8,3.7-1.7,5.6-2.5c0.9-0.4,1.6-1.1,1.9-2c1.3-3.3,2.7-6.5,4-9.7l1.9-4.5
	c-0.5-0.2-1-0.3-1.6-0.4c-4.3-0.4-8.6-0.8-12.9-1.2c-2.1-0.2-3.5,1.2-5.1,2.5L301.9,157.2z M147.3,177.6l-5.1,2.8
	c-1.6,0.9-3.3,1.7-4.8,2.6s-3.3,1.4-4.7,2.9c2.1,0.4,4,0.7,5.9,1c1.1,0.2,2.2,0,3.2-0.7c3.7-2.5,7.4-5,11.2-7.5
	c0.5-0.4,1-0.8,1.5-1.3c-3.4-2.8-6.8-5.3-9.8-8.1c-2-1.8-4.3-2.1-7.4-2.2L147.3,177.6z M253,174.1l-11.3,12l0.3,0.5
	c1.9-0.3,3.7-0.7,5.6-0.8c1.3-0.1,2.4-0.8,3.1-1.9c2.6-3.4,5.3-6.8,7.9-10.2c0.4-0.5,0.7-1,1.1-1.7c-0.8-0.4-1.5-0.6-2.1-0.9
	c-3.3-1.3-6.6-2.4-9.8-3.8c-2.5-1.1-4.7-0.6-7.5,0.4L253,174.1z M251.3,481c-3,2.2-5.6,4.1-8.2,6c-0.3,0.2-0.6,0.5-1.2,1
	c2.8,0.5,5.2,1.1,7.7,1C250.2,486.3,250.7,483.9,251.3,481z"/>
<path class="st0" d="M76.8,334c0.4-3,0.1-5.8-2.4-7.7c-3.1-2.3-6.4-4.4-9.7-6.6c-0.6-0.3-1.2-0.6-1.9-0.8c0.5,1.2,0.8,1.9,1.2,2.6
	c1.5,2.8,3.2,5.5,4.7,8.3C70.4,333,72.8,334.4,76.8,334z M74.3,308.3l-0.4,0.4c0.4,0.7,0.7,1.4,1.1,2c1.9,2.8,3.8,5.5,5.6,8.3
	c1.7,2.7,5,4,8.1,3c0.6-2.9-0.6-5.8-3-7.4c-3.1-1.8-6.2-3.5-9.4-5.3C75.6,308.9,75,308.6,74.3,308.3L74.3,308.3z M84.5,296.8
	c0.2,0.5,0.4,0.9,0.6,1.3c2.4,3.3,4.8,6.6,7.4,9.7c1.6,2.1,5.1,2.6,7.8,1.5c-0.1-2.8-0.8-5.4-3.4-6.9c-3.4-1.9-7-3.5-10.5-5.2
	C85.7,297,85.1,296.9,84.5,296.8L84.5,296.8z"/>
<path class="st0" d="M219.9,479.9c0.4-0.2,0.7-0.4,1-0.5c18.3-8.5,29.8-22.8,35.9-41.8c2-6.2,3.6-12.5,3.6-19
	c0-4.8-0.3-9.6-0.8-14.3c-1.1-10.2-2.4-20.5-3.6-30.7c-1.2-10-2.4-20-3.6-30c-1-8.4-2.1-16.8-3-25.2c-3.9-35.8-36.1-61.6-71.8-57.7
	c-26.6,2.9-48.7,21.8-55.7,47.5c-2.4,9.1-2.9,18.5-1.5,27.8c1.1,8.7,2.1,17.5,3.2,26.2c1.2,10.1,2.4,20.2,3.6,30.2
	c1,8.7,2.1,17.3,3.1,26c0.9,8.1,2.2,16.2,5.7,23.7c6.7,14.4,16.3,26.3,30.2,34.4c6.4,3.6,13.2,6.1,20.4,7.6c-0.8,0-1.6,0-2.3-0.1
	s-1.7-0.2-2.6-0.4c-17.7-3.1-32.6-11-44-25.1c-6.4-8.1-10.7-17.6-12.4-27.7c-1.4-7.2-2.1-14.5-3-21.8c-1.3-10.1-2.4-20.2-3.6-30.2
	c-1-8.5-2-17-3.1-25.5c-0.7-6-1.3-11.9-2.1-17.9c-5.4-39.4,22.2-75.7,61.6-81.1c36.8-5,71.4,18.7,79.8,54.9
	c1.3,5.8,1.8,11.8,2.6,17.8c1.3,10.2,2.5,20.3,3.7,30.5c1.2,9.8,2.3,19.5,3.5,29.3c0.9,7.5,1.9,14.9,2.6,22.4
	c1.9,19.9-3.5,37.5-17.3,52.2C241.6,469.8,230.6,476.8,219.9,479.9z"/>
<path class="st0" d="M151.8,432c-2.1-15.8-3.4-31.4-5.3-47.1l84.1-9.1c-0.3-2.8-0.6-5.5-0.9-8.4l-66.2,7.2
	c-1.8-16.5-3.6-32.8-5.4-49.2c26.6-2.9,52.9-5.8,79.4-8.6c0.8,7.7,1.6,15,2.5,22.4c-19,2.8-37.9,3.7-57.1,4.7
	c-0.1,7.2,0.7,14.2,0.7,21.6l52.2-5.7c0.8,7.3,1.6,14.5,2.4,22c-7.7,1.1-15.3,1.7-22.9,2.6s-15.4,1.7-23.1,2.6s-15.2,1.6-23.1,2.5
	c2.2,13,4.4,25.7,6.6,38.7L151.8,432z M179.1,341c9.1-1.5,17.8-3,26.6-4.3s17.7-2.4,26.6-3.6l-0.8-7.5c0-0.3-0.1-0.6-0.3-1.2
	l-65.6,7.1c1.3,11.9,2.6,23.6,3.9,35.4c4.7-0.4,9.2-0.8,13.8-1.6C181.9,357.2,180.5,349.3,179.1,341z M154.1,391.2
	c1.2,11.2,2.5,22.2,3.7,33.4l12.5-0.7c-0.5-11.5-1.1-22.8-1.6-34.3L154.1,391.2z"/>
<path class="st0" d="M188.7,484.2h2v0.1h-2V484.2z"/>
<path class="st0" d="M90.3,57.3c0.8-7.2,1.6-14.4,2.6-21.6c0.6-4.4,1.8-8.6,3.8-12.6c0.9-1.8,2-3.5,3.3-5c2.1-2.3,5.2-3.4,8.3-2.7
	c2.9,0.6,5.7,1.7,8.1,3.4c4.1,2.7,7.9,6,11.3,9.7c2.5,2.6,4.8,5.4,7.1,8.1s1.6,4.4-1.6,5.6c-3.4,1.1-6.9,1.6-10.4,1.6
	c-2.2,0.1-4.5,0.1-6.7-0.1c-1.6-0.2-3.2,0.5-4.2,1.8c-3.4,4.1-6.3,8.5-8.6,13.2c-1.1,2.2-2.5,4.2-4.2,6.1c-1.3,1.3-2.9,2.2-4.6,2.8
	c-2.1,0.8-3.7-0.4-3.8-2.6c-0.1-2.6,0-5.1,0-7.7L90.3,57.3z"/>
<path class="st0" d="M291.2,56.4c0,2.7,0,4.8,0,7c-0.1,2.8-1.6,3.9-4.3,2.9c-1.9-0.6-3.6-1.8-4.9-3.4c-1.3-1.7-2.5-3.5-3.5-5.4
	c-2.3-4.7-5.1-9-8.5-13.1c-1.1-1.5-3-2.3-4.8-2c-4.5,0.4-9,0.2-13.4-0.6c-1.5-0.3-2.9-0.7-4.3-1.3c-2-0.9-2.4-2.6-1.1-4.3
	c5.6-7.1,11.6-13.9,19.4-18.8c2.2-1.3,4.5-2.3,7-3c3.6-1.2,7.6,0.2,9.8,3.4c1.4,2,2.5,4.1,3.4,6.3c2,5.5,3.3,11.2,3.8,17
	C290.5,46.4,290.8,51.7,291.2,56.4z"/>
<path class="st0" d="M119,81.3c4.1-3.2,8.9-5.6,13.9-7c7.4-2.4,15.4-2.4,22.9-0.1c7.5,2.3,12.3,7.5,14.8,14.8
	c0.2,0.9,0.4,1.8,0.5,2.6l-0.4,0.2c-0.6-0.4-1.3-0.9-1.9-1.4c-4.9-3.9-10.1-7.3-15.7-10.1c-5.9-3.1-12.2-3.5-18.6-2.8
	c-4.8,0.6-9.4,1.7-13.9,3.3C120,81.1,119.5,81.2,119,81.3z"/>
<path class="st0" d="M250,82.7c-8.5,10-31.2,12.1-41.3,1.9c7.2,0.7,14.1,1.6,20.9,0.7S243.3,83.6,250,82.7z"/>
<path class="st0" d="M186.1,144c4.3-1.8,8.9-2.8,13.4-5.6c-1-0.5-2-1-3.1-1.5c-2.5-0.8-5-1.5-7.5-2.4c-1-0.4-2-0.9-2.9-1.4
	c0.4-1.8,1.8-2,2.8-2.2c2.3-0.6,4.7-1,7-1.7c1.6-0.5,3.5-0.6,4.6-2.2c-0.4-1.1-1.3-1.9-2.5-2.1c-3.2-1.2-6.5-2.2-9.7-3.3
	c-0.7-0.2-1.5-0.5-2.1-0.8c4.6,0,9.1,0.8,13.4,2.4c1.7,0.7,3.5,1.6,3.4,3.8c0,2-1.6,3-3.3,3.7c-2,0.8-4.1,1.4-6.6,2.2
	c1.2,0.5,2.2,0.8,3,1.2c1.4,0.5,2.8,1.2,4.1,2c1.8,1.3,1.6,3.3-0.2,4.6c-0.3,0.2-0.5,0.3-0.8,0.5C194.9,142.8,190.5,143.8,186.1,144
	z"/>
<path class="st0" d="M183.4,100.7c2.3-1.5,5-2.2,7.7-2c1.7,0.2,3.3,0.6,4.8,1.2c0.9,0.3,1.4,1,0.7,1.8c-1.7,2-3.8,3.7-6.5,3.5
	S185.2,103.4,183.4,100.7z"/>
<path class="st0" d="M129.4,114c-6.4,3.3-17.4,5.8-23.9,5.5C108.6,116.8,123.8,113.2,129.4,114z"/>
<path class="st0" d="M254.4,114.2c8.3,0,16.4,1.9,23.8,5.5C269.9,119.8,261.8,117.9,254.4,114.2z"/>
<path class="st0" d="M276.2,107c-7.6,1.6-15.4,1.6-23,0.1C257.1,104.9,270.6,104.8,276.2,107z"/>
<path class="st0" d="M130.5,106.6c-7.5,1.9-15.3,1.9-22.8,0C115.2,104.7,123,104.7,130.5,106.6z"/>
<path class="st0" d="M112.9,94.4c6.8,0.2,13.4,2.4,19,6.2C125.2,100.3,118.6,98.2,112.9,94.4z"/>
<path class="st0" d="M252,100.7c5.7-3.6,12.1-5.8,18.9-6.4C268.6,97.3,257.1,101.3,252,100.7z"/>
<path class="st0" d="M76,496.9c-3.4-3.7-1.7-11.2,3.7-13C83.4,488,81.5,494.7,76,496.9z"/>
<path class="st0" d="M65.2,496.9c-3-5.2-1.1-10.7,4.3-12.9C73.1,487.8,70.9,494.6,65.2,496.9z"/>
<path class="st0" d="M89,497.2c-4-2.9-4.1-10.7,1-13.6C94.3,487.1,93.9,493.5,89,497.2z"/>
<path class="st0" d="M300.7,484.6c5.5,2.8,7.1,8,3.9,13C299.2,496.1,297.2,489.5,300.7,484.6z"/>
<path class="st0" d="M315.3,497.5c-5.4-1.5-7.6-7.5-4.6-12.7C316.1,486.1,318.5,492.7,315.3,497.5z"/>
<path class="st0" d="M291.6,498c-4.9-3.4-5.4-9.9-1.1-13.5C295.1,486.7,295.9,494.6,291.6,498z"/>
<path class="st0" d="M76.8,334c-4,0.3-6.4-1-8.1-4.1c-1.5-2.8-3.1-5.6-4.7-8.3c-0.4-0.7-0.6-1.4-1.2-2.6c0.6,0.2,1.3,0.5,1.9,0.8
	c3.2,2.2,6.5,4.3,9.7,6.6C76.9,328.3,77.2,331,76.8,334z"/>
<path class="st0" d="M74.3,308.3c0.7,0.3,1.4,0.6,2.1,0.9c3.1,1.7,6.3,3.5,9.4,5.3c2.4,1.6,3.6,4.6,3,7.4c-3.1,1-6.4-0.3-8.1-3
	c-1.9-2.8-3.8-5.5-5.6-8.3c-0.4-0.6-0.7-1.3-1.1-2L74.3,308.3z"/>
<path class="st0" d="M84.5,296.8c0.6,0.1,1.2,0.2,1.8,0.5c3.5,1.7,7.1,3.3,10.5,5.2c2.6,1.5,3.3,4.1,3.4,6.9
	c-2.6,1.2-6.1,0.6-7.8-1.5c-2.6-3.2-4.9-6.5-7.4-9.7C84.9,297.7,84.7,297.3,84.5,296.8z"/>
<path class="st0" d="M327.1,324.3c-0.4,1-0.6,1.8-0.9,2.4c-1.6,3.2-3.1,6.5-4.8,9.6c-1.3,2.5-3.8,3.3-6.4,3.6
	c-0.8,0.1-1.2-0.4-1.3-1.1c-0.2-2.5,0.1-5,2.1-6.6c3.3-2.7,6.9-5.2,10.4-7.8C326.2,324.4,326.4,324.4,327.1,324.3z"/>
<path class="st0" d="M301.5,328.4c-0.6-3.8,0.6-6.5,3.4-8.2c2.8-1.7,5.5-3.5,8.3-5.2c0.7-0.4,1.4-0.7,2.5-1.3
	c-0.2,0.6-0.4,1.3-0.6,1.9c-2,3.3-3.9,6.8-6.1,10C307.2,328.1,304.5,328.6,301.5,328.4z"/>
<path class="st0" d="M304.6,303.3c-0.4,0.7-0.7,1.4-1.2,2c-2,3-4,5.9-6.1,8.8c-1.9,2.3-4.9,3.1-7.7,2.2c-0.4-3.5,0.9-6.2,3.8-7.8
	s5.6-3.1,8.4-4.6c0.8-0.4,1.5-0.7,2.3-1.1L304.6,303.3z"/>
</svg>
