<?xml version="1.0" encoding="utf-8"?>
<!-- Generator: Adobe Illustrator 22.1.0, SVG Export Plug-In . SVG Version: 6.00 Build 0)  -->
<svg version="1.1" id="Layer_1" xmlns="http://www.w3.org/2000/svg" xmlns:xlink="http://www.w3.org/1999/xlink" x="0px" y="0px"
	 viewBox="0 0 380.4 514.4" style="enable-background:new 0 0 380.4 514.4;" xml:space="preserve">
<style type="text/css">
	.st0{fill:#ED1C24;}
</style>
<title>Untitled-1</title>
<path class="st0" d="M63.6,159.9c-1.4-1.6-2.8-3.2-4.1-5c-0.9-1.2-1.7-2.5-2.5-3.8c-1.9-3.2-2.3-7.1-0.9-10.6
	c1.3-3.5,3.4-6.7,5.9-9.5c0.7-0.8,1.5-1.6,2.3-2.5c-0.1-0.4-0.3-0.7-0.5-1.1c-5.9-9.3-6.6-19.2-3.6-29.5c2.2-7.4,5.7-14.3,10.5-20.4
	c0.8-1.1,1.3-2.4,1.4-3.7c0.9-15.1,2.7-30.1,6.6-44.8c1.6-6.1,3.5-12.1,6.8-17.6c1.4-2.4,3.1-4.7,5-6.7c4.4-4.6,10.1-5.5,16.1-4.7
	c8.7,1.1,16.6,4.6,24.2,8.7c8.8,4.7,17.1,10,25,16.1c1.2,1,2.8,1.4,4.4,0.9c12.4-3,25.1-4.1,37.9-3.2c7.7,0.4,15.4,1.7,22.9,3.9
	c1.4,0.5,2.9,0.2,4-0.7c9.6-6.9,19.9-12.9,30.5-18c5.6-2.6,11.4-5.1,17.6-6.1c2.6-0.5,5.2-0.7,7.9-0.6c3.8,0.2,7.4,1.8,10,4.6
	c2.7,2.7,4.9,5.9,6.6,9.4c3.9,7.5,6.2,15.6,8,23.8c2,8.5,3.1,17.2,3.2,25.9c0.1,1,0.4,2,1,2.9c4.2,6.9,7.6,14.3,10.1,22
	c2.2,6.4,3.3,13.1,3.2,19.8c-0.1,6.4-2.1,12.6-5.8,17.7c-0.3,0.4-0.5,0.8-1,1.4c0.5,0.5,1,1.1,1.5,1.7c1.9,2.3,3.7,4.8,5.4,7.3
	c3.1,5.2,3.2,10.5-0.5,15.5c-1.9,2.6-4.2,5-6.3,7.5c-0.5,0.5-1,1-1.7,1.6c0.7,0.7,1.3,1.3,2,1.8c18.3,15.9,34.2,33.9,46.9,54.6
	c6.7,11,12,22.6,14.8,35.2c2.4,11,2.7,22-0.2,33c-1.2,4.4-2.9,8.7-5.1,12.6c-0.7,1.1-0.9,2.4-0.6,3.7c2.3,11.3,3.9,22.7,4.9,34.1
	c1,11.5,1.7,23,2.2,34.5c0.5,13.5,0.1,27.1-1.2,40.5c-1.5,16.2-4.1,32.2-9.5,47.6c-2.4,6.7-5.2,13.3-9.5,19c-2,2.7-4.3,5.1-6.8,7.4
	c-3.5,3.1-7.8,4.9-12.4,5.3c-0.1,0.7-0.3,1.3-0.3,2c-0.4,5.2-3,9.2-7,12.4c-4,3-8.5,5.1-13.4,6.1c-10.2,2.6-20.6,2.8-31,2.2
	c-6.7-0.3-13.4-1.3-19.9-3.1c-3.8-1-7.3-2.7-10.6-4.9c-5.1-3.5-8-8.3-8.4-14.6c0-0.5-0.1-0.9-0.2-1.5c-2.6-0.4-5.1-0.7-7.6-1.1
	c-1.1-0.1-2.2,0.2-3.1,0.9c-9.7,5.8-20.5,9.5-31.7,11c-16.9,2.4-34.1-0.3-49.5-7.9c-2.2-1.1-4.4-2.3-6.5-3.5
	c-0.8-0.5-1.8-0.7-2.7-0.6c-5.7,1.1-11.5,2.1-17.2,3.1c-0.2,0.6-0.4,1.1-0.5,1.7c-0.6,5.7-3.7,9.8-8.2,13c-3.7,2.5-7.9,4.3-12.2,5.3
	c-5.1,1.3-10.4,2.1-15.6,2.3c-10.6,0.7-21.3-0.1-31.7-2.3c-4.4-0.9-8.6-2.5-12.5-4.7c-4.9-3-8.5-6.9-9.7-12.8
	c-0.1-0.3-0.2-0.5-0.4-0.7c-0.4-0.1-0.7-0.2-1.1-0.3c-7-0.9-12.3-4.7-16.8-9.9c-5.2-6-8.6-13-11.4-20.4c-3.6-10.1-6.2-20.5-7.7-31.1
	c-2.8-18.5-3.8-37.3-3.2-56c0.4-14.4,1.4-28.8,3.1-43c1.6-14.2,4-28.3,7.2-42.3c0.2-0.9,0.1-1.9-0.3-2.8C5.4,276,4.8,263.8,7,251.3
	c2.3-13.1,7.2-25.1,13.7-36.6c11.1-19.7,25.2-37,41.2-52.8c0.5-0.5,1-1,1.5-1.5C63.6,160.2,63.6,160.1,63.6,159.9z M367.3,308.3
	c-0.4,0.2-0.7,0.5-1,0.8c-4.9,5.6-10.5,10.6-16.7,14.6c-0.8,0.5-1.3,1.4-1.3,2.4c-0.6,4.4-2,8.6-4.2,12.4c-2.7,5-7.3,8.6-12.7,10.3
	c-3.2,1.1-6.5,1.7-9.8,2c-11.6,0.8-22-2.2-30.5-10.1c-9.8-9.1-14.8-20.5-15.1-33.9c-0.3-10.8,4.7-18.7,14.3-23.6
	c1.6-0.8,3.2-1.5,4.9-2c1.3-0.3,2.3-1.1,3-2.2c1.7-2.7,3.3-5.4,4.8-8.3c3.2-7.1,4.5-14.6,4.8-22.4c0.3-9.8-0.8-19.5-3.1-29
	c-3.2-14.4-8.4-28.2-14.2-41.7c-0.2-0.4-0.4-0.8-0.7-1.4c-2.2,0.8-4.4,1.6-6.6,2.3c-16.4,5.5-33.2,8.6-50.3,10.7
	c-2.4,0.3-4.8,0.6-7.2,0.9c0,1.2,0,2.1,0,3c0.1,3.4-0.2,6.7-1,10c-3.1,13.2-14.6,21.9-27.7,21c-14.6-0.9-28.5-13.2-31.2-27.7
	c-0.3-1.8-0.5-3.6-0.8-5.5c-25.1-2.2-49.9-5.8-73.6-14.7c-0.3,0.7-0.5,1.1-0.7,1.5c-4.8,13.1-8.8,26.4-10.8,40.2
	c-1.5,10.3-2,20.7-0.1,31c1.5,8.6,4.5,16.5,10,23.3c0.9,1.2,2.2,2,3.7,2.4c5,1.2,9.6,3.8,13.3,7.4c0.4,0.4,0.8,0.7,1.3,1.2
	c11-18,26.5-30.3,46.2-37.3c-0.2,0.3-0.5,0.6-0.9,0.7c-19,8.6-32,23-40.6,41.6c-0.6,1-0.7,2.3-0.3,3.4c1.5,5.2,1.7,10.6,0.7,15.9
	c-1.2,6.9-3.7,13.5-7.4,19.3c-0.5,0.7-0.7,1.6-0.7,2.4c0.1,1.7,0.2,3.3,0.5,5c1.2,10,2.4,20,3.6,30c1,8.7,2.1,17.3,3.1,26
	c1.2,10.2,2.5,20.3,3.7,30.5c0.7,6.9,2.2,13.7,4.4,20.3c12.9,36.3,49.7,58.2,87.7,52.3c18.6-2.8,35.6-12.3,47.7-26.7
	c15.3-18,21.6-38.9,18.8-62.4c-1-8.7-2-17.3-3.1-26c-1-8.4-2-16.8-3-25.2c-1.2-10.1-2.4-20.2-3.7-30.2c-0.8-5.9-1.5-11.9-2.7-17.8
	c-2.4-11.3-7.7-21.3-14.5-30.5c-10-13.5-22.6-23.7-38.3-29.7c-5.3-2-10.9-3.4-16.5-4.2c0.7-0.1,1.4-0.1,2.1-0.1
	c6.2,0.6,12.3,1.8,18.3,3.7c33.2,11,52.3,33.9,57.3,68.5c1,7.2,1.8,14.4,2.7,21.7c1.2,9.9,2.4,19.8,3.5,29.8c1,8.7,2.1,17.3,3.1,26
	c0.7,6,1.6,12.1,2,18.1c1.1,13.7-1.2,27.4-6.6,40.1c-0.2,0.6-0.4,1.2-0.5,1.8c0.3,0,0.4,0,0.5,0c0.7-0.4,1.4-0.8,2.1-1.1
	c10.8-5.5,21.7-5.9,32.8-1c5.6,2.5,10.1,6.4,14.3,10.8c7.5,7.8,12.8,17.5,15.5,28c0.2,0.8,0.3,1.5,0.5,2.2c0.2,0.1,0.4,0.1,0.6,0.1
	c0.2,0,0.5,0,0.7-0.1c4.6-0.9,8.7-3.3,11.9-6.8c2.7-2.9,4.9-6.1,6.7-9.6c3.6-7.1,6.4-14.7,8.2-22.5c3.4-13.7,4.9-27.7,5.6-41.8
	c1-18.5,0.6-37.1-1-55.6c-1.1-12.3-2.7-24.6-4.2-36.9C368.3,313.5,367.8,311.1,367.3,308.3z M306,61.4c-0.4-4.4-0.7-8.7-1.2-13
	c-1.1-9.3-3.3-18.4-6.6-27.2c-1.7-4.8-4.3-9.3-7.7-13.1c-3.9-4.3-8.7-5.7-14.3-4.8c-7,1.1-13.3,3.8-19.5,7.1
	c-10.9,5.8-21.2,12.6-30.8,20.3c-1.1,1-2.5,1.3-3.9,0.9c-7.7-1.9-15.5-3.1-23.5-3.3c-13.5-0.6-27.1,0.9-40.1,4.4
	c-1.1,0.4-2.4,0.2-3.3-0.6c-1.1-1-2.3-1.8-3.4-2.7c-9.6-7.4-20-13.9-30.9-19.2c-4.7-2.3-9.6-3.9-14.8-4.9c-6.2-1-11.4,0.6-15,6.1
	c-0.9,1.4-1.9,2.8-2.7,4.3c-2.4,4.5-4.4,9.3-5.9,14.1c-4.6,14.5-7.3,29.4-9.5,44.5c-0.2,1.3-0.7,2.6-1.4,3.7c-4.6,7-8,14.6-9.4,22.9
	c-1.8,10.5,0.5,19.8,7.8,27.8c5.4,5.9,11.9,10.4,18.9,14.2c12.1,6.6,25.1,11.1,38.5,14.4c16,4,32.3,6.4,48.8,7.4
	c2.3,0.2,4.6-0.3,6.6-1.3c8.3-3.9,16.9-4.1,25.2-0.1c2.1,1.1,4.5,1.5,6.9,1.2c0.8-0.1,1.6-0.2,2.4-0.3c12.6-1.1,25-3.4,37.2-6.8
	c14.5-4.1,28.4-9.8,41.1-18c6.1-3.8,11.6-8.6,16.3-14c3.3-3.8,5.5-8.5,6.2-13.5c0.6-4.8,0.5-9.6-0.4-14.3c-1.7-9-4.8-17.6-9.2-25.6
	C306.5,68.4,304.8,65.2,306,61.4z M130.8,488.5l14.8-2.2c-0.1-0.4-0.1-0.5-0.2-0.5l-2.8-2.2c-18.6-14.6-29.8-33.5-33.1-57
	c-1-6.8-1.7-13.6-2.5-20.5c-1.4-11.3-2.7-22.7-4.1-34c-1.2-10-2.4-20-3.6-30c-0.2-2-0.6-4-0.8-6.1c-0.2,0-0.5,0.1-0.7,0.2
	c-0.3,0.2-0.7,0.5-1,0.7c-10.5,8-22.3,10.3-35.1,7.5c-4.5-1-8.7-2.8-11.9-6.3c-3.8-4.1-6.3-9.1-7.4-14.6c-0.3-1.6-1.3-3.1-2.8-3.8
	c-8.9-5-16.6-11.8-22.8-19.9c-0.3-0.4-0.7-0.7-1.1-1c-0.5,2.7-1,5-1.4,7.3c-2,11-3.5,22.1-4.4,33.3c-0.9,10.6-1.8,21.2-2.2,31.8
	c-0.6,13.8-0.3,27.7,0.8,41.5c0.8,11.3,2.4,22.6,4.9,33.7c1.9,8.8,5,17.4,9.2,25.4c2,3.9,4.7,7.5,7.9,10.5c2.3,2.2,5.2,3.8,8.3,4.6
	c0.6,0.1,1.2,0.1,1.9,0.1c0.1-0.6,0.2-1,0.3-1.3c3.6-13.6,10.5-25,21.9-33.5c13.3-10.2,31.8-10,45,0.4
	C119.6,461.6,126.9,473.7,130.8,488.5z M65.4,161.4c-0.5,0.5-0.9,0.9-1.1,1.2c-10.4,12.5-20.1,25.6-28.9,39.2
	c-8.1,12.7-15.2,25.9-20.3,40.1c-3.2,8.8-5.5,17.7-5.6,27.1c-0.2,13.1,4,24.6,13,34.3c5.1,5.4,11,9.8,17.5,13.3
	c0.5,0.2,1,0.4,1.6,0.6c0.1-11.5,5.3-20.4,12.8-28.3s16.1-13.5,27.3-15.1c-0.4-0.7-0.6-1.2-0.9-1.6c-3.3-5.1-5.8-10.7-7.3-16.6
	c-3.1-12.2-2.8-24.6-0.6-36.9c2.5-13.4,6.5-26.4,12-38.9c0.7-1.7,1.4-3.4,2.3-5.3C79.3,171.1,72,167.1,65.4,161.4z M293.3,174.8
	c0.5,1,0.9,1.7,1.2,2.4c5.2,9.8,9.7,20,13.3,30.5c4.4,12.9,7.3,26.1,7.1,39.9c-0.2,11-2.4,21.4-8,31c-0.2,0.4-0.3,0.8-0.5,1.3
	c11.1,1,20,6.2,27.8,13.6c7.8,7.4,13.4,16.1,14.3,27.4c0.7-0.3,1-0.5,1.4-0.7c6.9-4.2,13-9.7,17.8-16.2c5.7-7.7,8.8-17,9.1-26.6
	c0.3-8.7-1.4-17-4.1-25.2c-4.6-13.7-11.4-26.4-19.2-38.5c-11.3-17.7-24.6-33.9-38.6-49.5c-0.4-0.4-0.8-0.8-1.3-1.3
	C307.4,167.8,300.6,171.7,293.3,174.8L293.3,174.8z M86.5,507.1c4.1-0.3,11.2-0.7,18.3-1.5c5-0.5,9.9-1.8,14.5-4
	c6.8-3.3,9.9-8.8,8.7-16.2c-1.5-10-5.9-18.5-13.9-25C99.5,448.8,79,447.5,63,457.2c-11,6.6-17.4,16.2-19.6,28.7
	c-1.2,6.8,1.7,12.6,7.9,15.7c2.6,1.3,5.3,2.3,8.1,3C67.3,506.8,75.4,507.1,86.5,507.1z M292.9,507.1c8-0.3,16.1-0.4,24.1-1.9
	c4.5-0.7,8.9-2.1,12.9-4.2c5-2.9,7.7-7.2,7.5-13c-0.3-8.7-3.7-17.1-9.7-23.4c-14.7-16-39.6-17.9-57.2-5.9c-0.8,0.6-1.5,1.4-2,2.3
	c-3.1,5-6.8,9.7-11,13.9c-1.8,1.7-3,3.9-3.6,6.3c-0.3,1.1-0.6,2.2-0.8,3.2c-1.7,8.5,1.3,14.6,9.2,18.1c2,0.9,4.2,1.6,6.3,2.2
	C276.5,506.8,284.7,507.1,292.9,507.1L292.9,507.1z M325.9,347.5c1.4-0.1,2.6,0,3.7-0.2c4.1-0.5,8-1.7,10.9-5
	c3.5-3.8,5.5-8.8,5.6-14c0.2-6-1.8-11.3-5.1-16.2c-6.1-9.2-14.4-16.8-24.1-22.1c-7.1-4.1-15.6-4.9-23.4-2.3
	c-11.4,3.7-16.8,12.1-15.2,24.1c0.9,6.6,3.9,12.8,8.5,17.7c4.2,4.7,9.4,8.5,15.1,11.3C309.5,344.5,317.5,347.1,325.9,347.5
	L325.9,347.5z M111.4,303.7c0.1-11.4-4.4-18.1-13.6-21.7c-9.2-3.6-18.2-2.5-26.6,2.7c-8.9,5.5-16.4,13-21.9,21.8
	c-1.4,2.2-2.6,4.6-3.5,7.1c-2.5,5.9-2.2,12.6,0.6,18.4c2.2,4.5,5.3,8.1,10.3,9.3c2.7,0.7,5.5,1,8.3,0.9c13.9-1.2,26.9-7.4,36.6-17.5
	C107.7,318.5,111.3,311.1,111.4,303.7z M176.8,212.5c3.6,3.8,8.5,6.2,13.7,6.7c8.8,0.7,16.5-1.9,23.5-7.2c1.1-0.7,1.7-1.9,1.6-3.2
	c0.5-9.7-2.9-19.2-9.5-26.4c-4.4-4.8-9.3-9.3-14.5-13.2c-0.8-0.7-1.9-0.8-2.9-0.4c-6.3,1.9-11.6,6.1-15,11.6
	c-2.6,4.3-4.1,9.3-4.2,14.3c-0.2,4.2,0.8,8.4,2.9,12.1l11.3-1.2c-0.2-0.8-0.3-1.6-0.4-2.4c0-1.4,0.1-2.8,0.5-4.2
	c1.4-3.7,5.5-5.6,9.2-4.4c3.8,1.1,6.1,4.8,5.5,8.7c-0.7,3.9-4.2,6.6-8.1,6.3c-1.2-0.2-2.5,0.1-3.4,1c-1.6,1.5-3.8,2.3-5.9,2.2
	C179.7,212.8,178.4,212.6,176.8,212.5z M195.4,167.7v0.4l1.8,0.7c5.5,2.2,10.5,5.5,14.6,9.8c6.8,7.3,9.8,15.8,8,25.7
	c-0.1,0.5-0.1,1-0.2,1.6c0.3-0.2,0.5-0.4,0.8-0.7c6.5-8.8,5.8-21.1-1.8-29.1c-4.8-5.1-10.9-7.6-17.8-8.5
	C199,167.6,197.2,167.6,195.4,167.7z M154.5,177.7c-0.7-0.6-1.3-1.2-1.9-1.7c-2.6-2.1-5.3-4.1-7.8-6.4c-2.1-2-4.4-2.2-7.6-2.3
	c3.6,3.6,6.8,6.9,10.1,10.2l-14.6,7.9c1.9,0.6,3.8,1.1,5.8,1.5c1.3,0.2,2.6-0.1,3.6-0.9c3.5-2.4,7.1-4.7,10.6-7.1
	C153.3,178.7,153.8,178.2,154.5,177.7L154.5,177.7z M302,157.2l-7.6,14.6l0.4,0.4c1.6-0.7,3.3-1.5,4.9-2.2c1.3-0.5,2.3-1.5,2.7-2.8
	c1.5-3.9,3.2-7.8,4.8-11.7c0.3-0.6,0.5-1.3,0.8-2.2c-1.4-0.2-2.5-0.3-3.7-0.4c-2.9-0.3-5.8-0.3-8.6-0.8s-5.1,0.4-7.6,2.3L302,157.2z
	 M104.4,167.7c-0.5-0.8-0.8-1.5-1.3-2.1c-1.9-2.9-4-5.8-5.8-8.8c-1.3-2.3-3.4-3.1-6.2-4c2.1,4.6,4.5,8.5,6.4,12.8l-16.1,3.2
	c1.6,1.2,3.4,2.3,5.2,3.2c0.9,0.5,2,0.7,2.9,0.3c4.5-1.4,9-2.6,13.6-3.9C103.6,168.1,104,167.9,104.4,167.7z M260,171.9
	c-4.5-1.7-8.6-3.1-12.6-4.8c-2.4-1-4.3-0.3-6.9,0.6l12.7,6.5l-11.2,12l0.2,0.5c1.8-0.2,3.5-0.6,5.3-0.7c1.4-0.1,2.7-0.9,3.5-2.1
	c2.4-3.3,5-6.4,7.5-9.6C258.9,173.5,259.3,172.8,260,171.9L260,171.9z M249.6,489.2c0.6-2.8,1.2-5.4,1.8-8.3l-9.5,7.2L249.6,489.2z"
	/>
<path class="st0" d="M186.4,484.2c-2.4-0.4-4.8-0.7-7.2-1.1c-13.3-2.5-25.6-8.7-35.5-17.9c-9.2-8.6-14.7-19.2-17.9-31.2
	c-1.6-6.1-2.1-12.3-2.9-18.5c-1.3-10.2-2.5-20.5-3.7-30.7c-1-8.2-2-16.5-3-24.8c-1-8.8-2.1-17.6-3.1-26.4c-2-17.9,2-34.4,12.3-49.2
	c11.9-17,28.3-27.2,48.9-30.3c38-5.6,73.7,19.7,80.9,57.4c1.1,5.8,1.6,11.7,2.4,17.6c1.3,10.2,2.5,20.3,3.7,30.5
	c1,8.4,2,16.8,3,25.2c0.9,7.3,1.8,14.6,2.6,21.9c3.2,28.6-7.5,50.6-31.5,66.2c-4.1,2.6-8.5,4.8-13.1,6.5c-0.4,0.2-0.8,0.2-1.2,0.1
	c0.3-0.2,0.6-0.4,0.9-0.6c17.8-8.6,29-22.9,35-41.5c2.6-8,4.1-16.1,3.5-24.5c-0.3-4.9-1-9.7-1.5-14.5c-1-8.7-2.1-17.3-3.1-26
	c-1.2-10.2-2.5-20.5-3.7-30.7c-0.9-7.3-1.7-14.6-2.6-21.9c-3.5-27.5-18-46.8-44.2-56c-37.1-13-77,10.5-84.6,49
	c-1.4,7.2-1.6,14.7-0.6,22c1.3,10,2.4,20,3.6,30s2.4,20,3.6,30c1,8.7,2.3,17.3,3,26c2,24,18.4,47,38,57c5.3,2.7,11,4.7,16.9,5.9
	c0.4,0.1,0.8,0.1,1.1,0.2L186.4,484.2z"/>
<path class="st0" d="M182.8,343.9c0.3,7.3,0.7,14.3,1,21.6l52.1-5.7c0.8,7.3,1.6,14.5,2.4,22c-11.6,1.4-23,2.5-34.4,3.8
	s-22.9,2.5-34.6,3.8c2.2,13,4.4,25.7,6.6,38.7l-24,3.9c-2.1-15.7-3.4-31.2-5.2-46.6c1.6-0.8,29.4-3.9,41.9-5.1
	c13.9-1.3,27.8-3,41.6-4.5c0.4-2.8,0.2-5.7-0.6-8.4l-66,7.2c-1.8-16.5-3.6-32.8-5.4-49.2l79.5-8.6c0.8,7.6,1.6,15,2.5,22.5
	C221,342.1,202.1,343.1,182.8,343.9z M179.2,341.1c17.8-2.9,35.2-6.3,52.9-7.6c0.3-2.6-0.3-7.2-1.1-9l-65.2,7.1
	c1.3,11.9,2.6,23.6,3.9,35.5c4.8-0.6,9.3-0.8,13.8-1.6C181.9,357.2,180.5,349.4,179.2,341.1z M154.2,391.1
	c1.2,11.3,2.3,22.3,3.8,33.5c4.2-0.5,8.3-0.3,12.3-0.9c0-0.6,0.1-1,0.1-1.4c-0.5-10.6-1-21.2-1.5-31.8c0-0.2-0.1-0.3-0.2-0.4
	c0-0.1-0.1-0.1-0.1-0.2c-0.1,0-0.1-0.1-0.4-0.2L154.2,391.1z"/>
<path class="st0" d="M188.7,484.2h1.6v0.1h-1.6L188.7,484.2z"/>
<path class="st0" d="M291.3,55.3c0,3,0,5.6,0,8.1c0,2.8-1.5,3.9-4.2,3c-2.3-0.8-4.3-2.3-5.6-4.3c-1.1-1.5-2-3.1-2.8-4.7
	c-2.3-4.6-5.1-8.9-8.3-12.9c-1.1-1.5-2.9-2.3-4.8-2c-4.5,0.4-9,0.2-13.4-0.6c-1.5-0.3-2.9-0.7-4.3-1.4c-2-0.9-2.5-2.6-1.1-4.3
	c5.6-7.2,11.7-14,19.5-18.9c2.6-1.8,5.7-2.9,8.9-3.2c2.8-0.3,5.5,0.9,7.2,3.1c1.5,2,2.7,4.1,3.7,6.4c2,4.9,3.2,10,3.7,15.3
	C290.4,44.6,290.8,50.2,291.3,55.3z"/>
<path class="st0" d="M90.7,59.1c0.4-10,1.1-19.5,3.5-28.9c0.8-3.6,2.2-7,4.2-10.1c1.6-2.5,3.8-4.4,6.9-4.7c1.7-0.2,3.5,0,5.2,0.6
	c2.5,0.9,4.8,2.1,7,3.6c7,4.8,12.6,11,17.8,17.7c1.5,1.9,1,3.7-1.2,4.6c-3.4,1.5-7.1,1.7-10.8,1.9c-2.4,0.1-4.8,0.1-7.2-0.1
	c-1.5-0.2-3.1,0.4-4,1.7c-3.5,4.1-6.4,8.6-8.8,13.4c-0.8,1.8-1.9,3.5-3.2,5c-1.4,1.5-3,2.6-4.8,3.5c-2.9,1.4-4.6,0.2-4.6-3.1
	c0-1,0-1.9,0.1-2.9S90.7,59.6,90.7,59.1z"/>
<path class="st0" d="M238.4,115.1c1.6,6-2.5,9.8-7.5,10.5c-5.1,0.6-10.3-0.2-15-2.2c-3.8-1.6-7.4-3.4-11.1-5.1
	c-2.1-1-4.2-1.9-6.4-2.7c-5-2-10.7-2-15.7-0.1c-4.2,1.6-8.2,3.6-12.3,5.4c-3.1,1.4-6.3,2.8-9.5,3.9c-3.9,1.3-8.1,1.5-12.1,0.4
	c-4.6-0.9-7.6-5.3-6.7-9.8c0-0.1,0.1-0.3,0.1-0.4c0.1,0.1,0.3,0.1,0.4,0.2c1.7,4.2,5.7,6.3,11.2,5.9c4.3-0.5,8.5-1.5,12.6-3
	c4.4-1.4,8.9-2.7,13.2-4.2c6.8-2.3,14.2-2.3,21-0.1l19.9,6.3c3.3,1.1,6.7,1.4,10.2,0.9C234.3,120.4,237.2,118.9,238.4,115.1z"/>
<path class="st0" d="M118.8,81c5.2-3.4,11-5.9,17-7.3c6.6-1.6,13.4-1.4,19.9,0.6c8,2.5,13,8,15.4,16c0.1,0.4,0.2,0.8,0.2,1.2
	c0,0.1-0.1,0.2-0.4,0.5c-0.6-0.4-1.2-0.7-1.7-1.2c-4.6-3.7-9.6-6.9-14.8-9.7c-6.2-3.5-12.8-4.1-19.7-3.4c-4.8,0.6-9.4,1.7-13.9,3.3
	c-0.6,0.2-1.2,0.3-1.8,0.5L118.8,81z"/>
<path class="st0" d="M212.6,91.7c0.1-0.8,0.3-1.6,0.5-2.4c2.8-8.1,8.3-13.5,16.8-15.6c10.4-2.5,20.3-0.7,29.7,4.1
	c1.8,0.9,3.6,2,5.8,3.2c-0.9,0.3-2,0.2-2.8-0.3c-6.3-2.3-12.9-3.4-19.5-3.3c-4.4,0.1-8.7,1.2-12.6,3.2c-5.5,2.8-10.7,6.1-15.5,10
	c-0.6,0.5-1.2,0.9-1.9,1.3L212.6,91.7z"/>
<path class="st0" d="M197.1,101.1c-1.3,2.5-3.8,4.1-6.6,4.2c-2.9,0-5.1-1.7-6.7-4.1C185.8,98.1,194.9,98.1,197.1,101.1z"/>
<path class="st0" d="M254.5,114.3c8.2,0,16.3,1.9,23.7,5.5C270,119.8,261.9,117.9,254.5,114.3z"/>
<path class="st0" d="M129,114.2c-7.3,3.4-15.3,5.3-23.4,5.5C108.9,116.8,123.1,113.4,129,114.2z"/>
<path class="st0" d="M275.8,106.8c-6.1,1.9-17.2,1.9-22.8,0C260.5,105,268.3,105,275.8,106.8z"/>
<path class="st0" d="M107.5,106.4c7.6-1.7,15.5-1.7,23.1-0.1C127.5,108.5,112.5,108.6,107.5,106.4z"/>
<path class="st0" d="M271,94.6c-5.6,3.9-12.2,6-18.9,6.3C257.7,97,264.2,94.9,271,94.6z"/>
<path class="st0" d="M132,100.8c-6.7-0.4-13.3-2.5-19-6.1C116.8,93.6,127.5,97.1,132,100.8z"/>
<path class="st0" d="M89,497.2c-4.6-4.2-3.2-11.2,0.9-13.6C94,485.8,94.4,494.2,89,497.2z"/>
<path class="st0" d="M65.2,496.9c-3.1-5.2-0.9-11.3,4.5-12.8C73,488.5,70.9,494.5,65.2,496.9z"/>
<path class="st0" d="M76.1,497c-3.3-4.1-1.5-11.5,3.9-13.1C83.3,488.6,81.5,494.6,76.1,497z"/>
<path class="st0" d="M291.6,498.1c-4.6-2.6-5.5-10.2-1.1-13.5C295.4,487.6,295.9,493.9,291.6,498.1z"/>
<path class="st0" d="M310.9,484.7c5.6,2.3,7.5,7.8,4.6,12.7C310.2,496.7,307.7,490,310.9,484.7z"/>
<path class="st0" d="M304.5,497.8c-5.6-2.7-7.3-8.8-3.8-13.1C306.2,487.1,307.9,492.9,304.5,497.8z"/>
<path class="st0" d="M327.1,324.3c-0.3,0.9-0.5,1.6-0.8,2.2c-1.6,3.3-3.2,6.6-4.9,9.8c-1.5,2.7-4.2,3.4-7,3.6
	c-1.1-2.7-0.5-6.2,1.5-7.8c3.4-2.7,6.9-5.2,10.3-7.7C326.3,324.4,326.5,324.4,327.1,324.3z"/>
<path class="st0" d="M301.7,328.5c-0.8-3.8,0.4-6.5,3.2-8.2s5.4-3.4,8.1-5.1c0.7-0.4,1.5-0.8,2.8-1.4c-0.2,0.7-0.4,1.3-0.6,1.9
	c-2,3.4-4,6.8-6.2,10C307.3,328.1,304.6,328.6,301.7,328.5z"/>
<path class="st0" d="M304.6,303.2c-0.3,0.7-0.7,1.4-1.1,2c-2,3-4,5.9-6.1,8.8c-1.8,2.3-4.9,3.2-7.7,2.3c-0.6-2.9,0.6-5.8,3.1-7.4
	c3.1-1.8,6.2-3.5,9.4-5.2c0.7-0.3,1.4-0.6,2.1-0.9L304.6,303.2z"/>
<path class="st0" d="M74.2,308.4c0.6,0.2,1.1,0.4,1.7,0.6c3.4,1.9,6.7,3.7,10,5.6c2.2,1.3,3.4,4.6,2.8,7.3c-3.1,1-6.5-0.3-8.2-3.2
	c-1.7-2.5-3.4-5-5.1-7.5c-0.5-0.8-1-1.6-1.5-2.4L74.2,308.4z"/>
<path class="st0" d="M62.9,318.9c0.6,0.2,1.2,0.5,1.8,0.8c3.3,2.2,6.6,4.4,9.9,6.8c2.1,1.5,3,4.9,2.1,7.6c-3.1,0.6-6.3-0.9-7.8-3.7
	c-1.6-2.9-3.2-5.7-4.8-8.6C63.7,321.1,63.4,320.2,62.9,318.9z"/>
<path class="st0" d="M100.3,309.5c-2.9,1-6.2,0.4-7.8-1.6c-2.5-3.1-4.8-6.3-7.2-9.5c-0.3-0.5-0.6-1-0.8-1.6c0.7,0.2,1.4,0.4,2.1,0.6
	c3.4,1.7,6.9,3.2,10.3,5.1C99.5,303.9,100.3,306.6,100.3,309.5z"/>
</svg>
