<?xml version="1.0" encoding="utf-8"?>
<!-- Generator: Adobe Illustrator 22.1.0, SVG Export Plug-In . SVG Version: 6.00 Build 0)  -->
<svg version="1.1" id="Layer_1" xmlns="http://www.w3.org/2000/svg" xmlns:xlink="http://www.w3.org/1999/xlink" x="0px" y="0px"
	 viewBox="0 0 380.1 514.3" style="enable-background:new 0 0 380.1 514.3;" xml:space="preserve">
<style type="text/css">
	.st0{fill:#ED1C24;}
</style>
<title>Untitled-1</title>
<path class="st0" d="M63.6,159.9c-0.6-0.6-1.2-1.2-1.6-1.8c-1.7-2.2-3.4-4.4-4.9-6.8c-2.3-3.6-2.3-7.4-0.9-11.3
	c1.4-3.4,3.4-6.5,6-9.2c0.7-0.8,1.4-1.5,2.1-2.3c-0.1-0.3-0.2-0.6-0.4-0.9c-6.1-9.6-6.6-19.8-3.5-30.4c2.2-7.1,5.7-13.8,10.3-19.6
	c0.9-1.1,1.4-2.5,1.4-3.9c0.9-16.4,2.9-32.7,7.7-48.4c1.4-4.3,3.1-8.6,5-12.7c0.7-1.5,1.6-3,2.6-4.3C92,1.4,98.4-1,106.3,0
	c6.1,0.9,12,2.7,17.6,5.4c11.2,5.1,21.5,11.7,31.3,19c1.5,1.3,3.5,1.7,5.4,1.2c19.8-4.7,40.4-4.5,60,0.8c1.4,0.5,3,0.2,4.2-0.7
	c9.3-6.6,19.2-12.5,29.5-17.5c6.1-2.9,12.3-5.5,18.9-6.7c2.3-0.4,4.6-0.6,6.9-0.6c4.1,0.1,7.9,1.8,10.7,4.8c2.7,2.8,5,6.1,6.7,9.6
	c3.4,6.9,5.8,14.2,7.4,21.7c2.2,9,3.4,18.2,3.7,27.5c0.1,1.1,0.4,2.2,1,3.1c4.5,7.5,8.1,15.5,10.6,23.8c1.7,5.3,2.6,10.9,2.7,16.5
	c0.2,6.9-1.9,13.6-5.9,19.2c-0.2,0.3-0.4,0.7-0.6,1c0,0.1-0.1,0.3-0.1,0.5c0.4,0.5,0.9,1.1,1.5,1.6c2.5,2.6,4.6,5.5,6.2,8.8
	c2.1,4.2,1.8,9.1-0.8,13c-1.9,3-4.1,5.7-6.7,8.2c-0.6,0.5-1.2,1-2,1.8c0.8,0.8,1.5,1.4,2.2,2c14.1,12.2,26.8,25.9,37.8,41
	c8.1,11.2,15.3,23.1,20,36.2c3.6,10.1,5.8,20.4,5.5,31.2c-0.2,9.3-2.6,18.4-7,26.6c-0.7,1.2-1,2.7-0.7,4.1c1.7,10.5,3.4,21,4.7,31.5
	c1,7.8,1.5,15.8,2,23.7c0.8,11.6,0.9,23.2,0.5,34.8c-0.6,19.7-2.7,39.2-8.1,58.3c-1.9,7.3-4.6,14.3-8.2,20.9c-1.7,3.1-3.7,6-5.8,8.8
	c-4.4,5.6-9.9,9.5-17.3,10.2c-0.1,0.4-0.2,0.8-0.3,1.2c-0.3,5.7-3,10-7.4,13.4s-9.7,5.2-15.1,6.4c-9.8,2.2-19.7,2.3-29.6,1.7
	c-6-0.3-12-1.2-17.8-2.6c-3.9-1-7.6-2.5-11-4.6c-5.8-3.7-9.3-8.7-9.4-15.7c0-0.2,0-0.5-0.1-0.7c0-0.1-0.1-0.1-0.3-0.5
	c-2.5-0.3-5.3-0.8-8-1c-0.9,0.1-1.7,0.4-2.4,0.9c-25.9,15.1-57.8,15.8-84.3,1.7c-0.3-0.1-0.6-0.3-0.8-0.5c-2.8-2.3-5.9-2.4-9.2-1.6
	c-4,1-8,1.6-12,2.3c-0.5,0.1-1.1,0.3-1.6,0.4c-0.1,0.2-0.2,0.5-0.3,0.7c-0.5,6-3.6,10.5-8.4,13.8c-4.2,2.8-9,4.7-13.9,5.6
	c-9.9,2.2-19.8,2.3-29.8,1.7c-6-0.3-11.9-1.2-17.8-2.6c-4-1-7.9-2.6-11.4-4.8c-4.4-2.6-7.5-6.9-8.7-11.9c-0.1-0.3-0.2-0.6-0.3-1
	c-0.5-0.1-0.9-0.3-1.4-0.3c-6.3-0.9-11.3-4.2-15.6-8.8c-4.3-4.8-7.8-10.4-10.3-16.4c-4-9.4-6.9-19.3-8.6-29.4
	C1.5,422.5,0,405.9,0,389.4c-0.1-12.3,0.2-24.6,1.2-36.9c1.6-20.6,4.3-41,9-61.1c0.3-1.4,0.2-2.8-0.4-4.1C5.9,277.3,5,267,6.2,256.5
	c1.7-15.3,7.3-29.2,14.8-42.5c11-19.4,25-36.5,40.9-52.1c0.5-0.5,0.9-0.9,1.4-1.3C63.4,160.3,63.5,160.1,63.6,159.9z M48.6,336.2
	c-0.6-0.5-1.1-1.1-1.6-1.7c-2.4-3.3-4-7.2-4.7-11.2c-0.2-1.6-1.2-2.9-2.6-3.6c-8.8-5.2-16.7-11.6-22.8-19.9c-0.3-0.4-0.7-0.7-1.1-1
	c-0.1,0.5-0.2,0.8-0.3,1.1c-1.1,6.4-2.3,12.7-3.2,19.1c-2.7,18.8-4.2,37.7-4.7,56.6C7,395.6,7.8,415.4,11.1,435
	c1.5,9.8,4.1,19.4,7.6,28.7c2,5.5,4.9,10.6,8.5,15.2c2.1,2.8,4.9,5.1,8,6.7c1.6,0.9,3.3,1.4,5.1,1.4c0.2-0.7,0.4-1.3,0.6-1.9
	c3.8-13.8,10.9-25.3,22.8-33.7c12.3-8.8,28.7-9.1,41.3-0.8c13.1,8.8,21.2,21.2,25.3,36.4c0.1,0.4,0.3,0.9,0.5,1.5l15.2-2.3
	c-1.2-0.9-1.9-1.5-2.7-2c-15.3-11.4-26.4-27.5-31.5-45.8c-2.3-8-3-16.2-4-24.3c-1.4-11.3-2.7-22.7-4-34c-1.7-14.1-3.4-28.2-5.1-42.4
	c-0.1-0.6-0.2-1.1-0.4-1.9c-0.3,0.2-0.7,0.4-1,0.6c-8.8,7-18.8,9.7-29.8,8.8c-5.3-0.4-10.4-1.7-14.9-4.8c-1.6-1.1-3.3-2.3-4-4.3
	c1.5,1.4,3.1,2.7,4.8,3.9c3.6,2,7.7,2.9,11.8,2.3c12.6-1.2,24.5-6.5,33.9-14.9c7-6.2,11.7-13.8,12.3-23.4s-2.8-17.3-12.1-21.3
	c-9.7-4.2-19.1-3.3-28,2.1c-8.7,5.4-16.2,12.7-21.7,21.4c-1.6,2.5-2.9,5.1-3.9,7.8c-2.6,7.4-2,14.5,2.5,21
	C48.3,335.4,48.5,335.8,48.6,336.2z M192.1,241l0.2-0.5c4.5,0.7,9,1.2,13.5,2.2c16.8,3.7,31.5,11.5,43.4,24.1
	c12.6,13.3,18.9,29.4,21.2,47.3c1.1,8.7,2.1,17.5,3.2,26.2c1.2,9.9,2.4,19.8,3.6,29.8c1,8.7,2.1,17.5,3.1,26.2
	c0.6,5.5,1.4,11,1.5,16.5c0.4,12.3-1.9,24.5-6.8,35.8c-0.2,0.5-0.4,1.1-0.6,1.7c0.3,0.1,0.4,0.1,0.4,0.1l2.3-1.2
	c11.5-5.8,23.2-6.2,34.5,0.1c14.7,8.2,23.2,21.3,27.8,37.2c0.3,0.9,0.4,1.8,0.6,2.9c3.8-0.4,7.4-1.9,10.4-4.3c3-2.5,5.6-5.5,7.6-8.9
	c2.9-4.8,5.3-9.9,7-15.2c4.7-13.6,6.8-27.8,8-42c1-12.4,1.4-24.8,1.1-37.2c-0.5-21.8-2.3-43.5-5.5-65c-0.4-2.7-0.9-5.4-1.5-8.5
	c-0.4,0.3-0.8,0.6-1.1,1c-4.8,5.6-10.4,10.4-16.6,14.5c-0.8,0.6-1.4,1.6-1.4,2.6c-0.4,2.3-0.9,4.5-1.6,6.7
	c-2.8,7.8-7.6,13.6-15.9,16c-11.3,3.3-22.1,2.4-32.5-3.2c-15.6-8.4-23.1-27.9-22.3-41.5c0.6-9.2,5.1-16,13.1-20.5c2-1.1,4-2,6.1-2.7
	c1.2-0.3,2.2-1,2.9-2c1.2-2,2.6-3.8,3.7-5.9c3.5-6.9,5.4-14.4,5.8-22.1c0.6-10.4-0.3-20.9-2.7-31c-3.3-14.8-8.5-29-14.5-42.9
	c-0.2-0.4-0.4-0.7-0.6-1.1c-0.4,0.1-0.7,0.1-1,0.2c-18.1,6.8-37,10.4-56.2,12.7c-2.3,0.3-4.7,0.6-7,0.9c0,0.8,0,1.3,0,1.7
	c0.3,4.2-0.1,8.3-1.2,12.4c-3.2,12.4-14.8,20.8-27.6,19.9c-15-1-29.3-14.4-31.2-29.3c-0.2-1.2-0.3-2.5-0.5-3.9
	c-25.1-2.2-49.8-5.8-73.6-14.8c-0.4,0.9-0.7,1.6-0.9,2.3c-5.2,14.5-9.5,29.2-11.2,44.5c-1.1,9.9-1,19.8,1.2,29.6
	c1.5,7.3,4.8,14.2,9.5,20c0.8,1,1.9,1.7,3.1,2.1c5.2,1.2,9.9,3.9,13.7,7.6c0.4,0.4,0.9,0.7,1.3,1c11.2-18.4,27.1-30.7,47.2-37.7
	c-0.4,0.4-1,0.7-1.5,0.9c-19.3,8.6-32.5,23.1-41.2,42c-0.5,1-0.5,2.2-0.2,3.2c0.6,2.7,1,5.5,1.2,8.3c0.2,8.9-2.2,17.7-7,25.3
	c-1.3,2.1-1.8,4.6-1.4,7c1.1,8.6,2.1,17.1,3.1,25.7c1.2,10,2.4,20,3.6,30c1.4,11.3,2.9,22.7,4.1,34c1.4,13.7,6.2,26.8,14,38.1
	c25.1,36.2,74.8,45.2,111,20.1c24.9-17.3,37.9-47.2,33.5-77.2c-1.4-10.1-2.5-20.3-3.7-30.5c-1-8.6-2.1-17.2-3.1-25.7
	c-1.2-10.1-2.5-20.1-3.6-30.2c-0.7-7.4-2.5-14.6-5.1-21.6c-4.6-11.6-11.5-22-20.4-30.8C225.4,251.5,210.1,243.5,192.1,241L192.1,241
	z M305.7,59h0.1c-0.4-4.1-0.8-8.3-1.4-12.4c-1.1-9-3.4-17.8-6.7-26.2c-1.6-4.3-3.9-8.2-6.8-11.8C287,4,282,2.3,276.1,3.3
	c-6,1.1-11.8,3.1-17.2,5.9c-11.7,6-22.8,13.1-33,21.3c-1.2,1.1-2.8,1.5-4.4,1c-8.1-2.1-16.4-3.2-24.7-3.4
	c-13.1-0.5-26.2,1.1-38.9,4.5c-1,0.3-2.1,0.1-2.9-0.6c-2.2-1.8-4.5-3.5-6.9-5.2c-8.9-6.7-18.5-12.4-28.5-17.2
	c-4.5-2.1-9.2-3.6-14.1-4.4c-6.1-0.9-11.1,0.8-14.6,6c-1.2,1.7-2.3,3.5-3.2,5.3c-1.7,3.6-3.3,7.3-4.7,11C78,42.3,75.2,57.6,73,73.1
	c-0.2,1.9-0.9,3.7-1.9,5.3c-4.3,6.4-7.3,13.5-8.9,21.1c-1.5,7.7-1.1,15.1,2.6,22.2c2.4,4.4,5.6,8.2,9.4,11.4
	c5.8,4.9,12.3,9,19.2,12.2c18.4,8.9,37.9,13.9,58,16.7c8.5,1.2,17,1.8,25.5,2.7c1.6,0.2,3.2-0.1,4.6-0.9c8.5-4.3,17.2-4.7,25.9-0.7
	c2.4,1.1,5.2,1.6,7.8,1.2c0.7-0.1,1.4-0.2,2.1-0.3c12-1.1,23.9-3.3,35.6-6.5c13.7-3.6,26.8-9.1,39-16.4c6.5-3.8,12.4-8.5,17.7-13.9
	c4.1-4.3,7.1-9.2,8.1-15.2c0.7-4.4,0.6-9-0.1-13.4c-1.7-10.5-5.6-20.3-10.8-29.6c-1.1-1.6-1.5-3.5-1.2-5.4
	C305.7,62.2,305.8,60.6,305.7,59L305.7,59z M41.4,317.5c0.2-11.7,5.4-20.7,12.8-28.6s16.1-13.5,27.3-15.1c-0.4-0.7-0.6-1.2-0.9-1.5
	c-6-9-8.7-19-9.4-29.6c-0.6-10.2,0.3-20.3,2.6-30.2c2.8-12.2,6.8-24,12-35.4c0.4-0.8,0.7-1.6,1.1-2.6c-7.8-3.3-15.1-7.7-21.7-13.2
	c-0.6,0.7-1,1.1-1.3,1.5c-6.4,8.4-13.1,16.6-19.3,25.1c-10.1,13.6-18.7,28.3-25.7,43.8C14.1,243,10,254.6,9.4,267
	c-0.7,13,2.9,24.7,11.4,34.7c4.9,5.6,10.7,10.4,17.2,14L41.4,317.5z M293.2,174.8c0.5,1,0.9,1.8,1.3,2.6c5.1,9.5,9.4,19.4,13,29.6
	c4.2,12.4,7.2,25,7.4,38.2c0.1,11.9-2,23.2-8.1,33.6c-0.2,0.4-0.3,0.8-0.3,1.2c11.1,1,20,6.2,27.8,13.6s13.4,16.1,14.2,27.3
	c0.8-0.4,1.3-0.6,1.7-0.9c4.3-2.7,8.4-5.9,12-9.5c9.9-10,14.9-22,14.6-36.1c-0.2-6.8-1.3-13.5-3.5-20c-3.8-11.5-8.9-22.6-15.2-33
	c-12.3-20.9-27.6-39.6-43.8-57.6c-0.3-0.3-0.6-0.5-1-0.7C307.1,167.8,300.4,171.8,293.2,174.8z M85.3,507.1c2.6-0.1,7-0.2,11.4-0.5
	c2.7-0.2,5.4-0.5,8.1-0.9c5.2-0.8,10.4-1.9,15.1-4.4c6.1-3.2,8.9-8.4,8-15.2c-1.4-10.8-6.1-19.8-14.9-26.3
	c-13-9.5-27.3-11.5-42.3-6.1c-14.6,5.2-23.9,15.5-27.3,30.9c-1.8,8.4,1.3,14.6,9.2,18.1c2.6,1.1,5.4,2,8.2,2.6
	C68.3,506.9,75.9,507.1,85.3,507.1z M293.4,507.1c7.6-0.3,15.6-0.4,23.5-1.9c4.7-0.9,9.4-2.1,13.5-4.6c4.8-2.7,7.5-8,6.9-13.5
	c-0.7-10.2-5.6-19.6-13.5-26.1c-15.2-12.4-36.7-13.4-53-2.5c-0.9,0.6-1.6,1.3-2.1,2.2c-3.6,5.6-7.7,10.8-12.4,15.5
	c-0.7,0.7-1.2,1.5-1.5,2.4c-0.9,2.6-1.6,5.2-2.1,7.9c-1,6.8,1.8,12.3,8,15.4c2.5,1.2,5.1,2.2,7.8,2.9
	C276.6,506.9,284.7,507.1,293.4,507.1z M325.9,347.3c1.2,0.1,2.4,0.1,3.6,0c4.1-0.5,8-1.7,10.9-5c4.1-4.6,6.1-10.7,5.5-16.8
	c-0.6-5.1-2.5-10-5.5-14.1c-6-8.8-14-16.1-23.4-21.2c-10.5-5.7-21-5.3-31.1,1.3c-3.7,2.4-6.3,6.2-7.3,10.4c-0.9,3.4-1,7-0.5,10.5
	c1.3,8.5,5.7,15.1,12,20.7c6.8,6,14.7,9.8,23.3,12.4C317.5,346.7,321.7,347.3,325.9,347.3L325.9,347.3z M172.2,206.8
	c3.9-0.5,7.6-0.4,11.3-1.3c-0.2-1-0.4-1.7-0.5-2.4c-0.6-4.3,2.4-8.2,6.7-8.8c0.2,0,0.5-0.1,0.7-0.1c4.2-0.1,7.8,3.2,7.9,7.4
	c0,0.2,0,0.4,0,0.6c-0.1,4.2-3.5,7.5-7.7,7.4c-0.3,0-0.6,0-0.8-0.1c-1-0.2-2,0.1-2.8,0.9c-1.8,1.7-4.2,2.5-6.6,2.3
	c-1.2-0.1-2.4-0.2-3.9-0.3c0.4,0.5,0.9,1,1.4,1.5c2.2,2,4.9,3.4,7.7,4.2c10.8,2.9,20.2-0.1,28.7-6.7c0.7-0.5,1.1-1.4,1-2.3
	c-0.2-2.9-0.1-5.8-0.5-8.6c-1-6.9-4.3-12.8-8.8-18.1c-4.1-4.8-9-8.8-13.9-12.8c-1.2-1.1-2.9-1.3-4.4-0.7
	c-12,4.1-17.7,14.5-18.4,24.6C169.1,198.2,170.1,202.8,172.2,206.8z M219.4,205.7l0.3,0.1c0.4-0.5,0.9-1.1,1.2-1.6
	c6.3-9.7,4.2-22.5-4.7-29.8c-5.5-4.5-12.4-6.9-19.5-6.8c-0.5,0-1,0.1-1.5,0.2c0.2,0.3,0.2,0.4,0.2,0.4l2.2,1
	c6.9,2.8,12.9,7.5,17.2,13.6c4,5.6,5.8,12.4,5,19.2C219.8,203.2,219.6,204.4,219.4,205.7z M241.7,186.1l0.3,0.5
	c1.9-0.3,3.7-0.6,5.6-0.8c1.2-0.1,2.3-0.7,3-1.7c2.7-3.6,5.5-7.1,8.2-10.6c0.3-0.4,0.6-0.9,0.9-1.5c-0.8-0.4-1.5-0.7-2.1-0.9
	c-3.4-1.3-6.9-2.5-10.3-3.9c-2.4-1-4.4-0.3-6.6,0.8l12.2,6.2L241.7,186.1z M97.6,165.5l-16.1,3.2l-0.1,0.5c1.8,0.9,3.6,1.8,5.4,2.8
	c0.8,0.5,1.8,0.5,2.7,0.2c4.4-1.3,8.9-2.6,13.3-3.9c0.5-0.2,1-0.4,1.6-0.7c-2.6-4-5.2-7.7-7.6-11.5c-1.3-2-3.2-2.5-5.7-3.2
	L97.6,165.5z M294.3,171.7l0.4,0.5c1.8-0.8,3.6-1.7,5.4-2.4c0.9-0.4,1.7-1.2,2-2.2c1.7-4.2,3.5-8.4,5.2-12.6c0.2-0.5,0.3-1,0.4-1.5
	c-0.3-0.1-0.5-0.2-0.8-0.3c-4.5-0.4-9-0.9-13.6-1.3c-2-0.2-3.4,1.2-5.4,2.5l13.9,2.9C299.2,162.2,296.7,167,294.3,171.7L294.3,171.7
	z M147.3,177.6l-14.5,7.9l0.1,0.5c1.9,0.3,3.9,0.6,5.8,1c1.1,0.2,2.3-0.1,3.1-0.8c3.6-2.5,7.3-4.9,11-7.3c0.5-0.3,0.9-0.8,1.5-1.3
	c-0.7-0.6-1.3-1.2-1.9-1.7c-2.8-2.3-5.7-4.4-8.4-6.8c-1.9-1.7-4.1-1.6-6.9-1.7L147.3,177.6z M249.5,489.2c0.6-2.8,1.1-5.3,1.8-8.3
	c-1.9,1.5-3.4,2.6-4.8,3.7s-2.9,2.1-4.3,3.1l0.1,0.5L249.5,489.2z"/>
<path class="st0" d="M326.9,324.6l-0.5-0.3c-0.4,0.2-0.8,0.4-1.2,0.7c-3.1,2.3-6.3,4.6-9.4,7.1c-2.1,1.7-2.5,4.2-2.3,6.7
	c0,0.7,0.5,1.2,1.2,1.1c2.6-0.3,5.1-1,6.4-3.6c1.7-3.2,3.2-6.4,4.8-9.6C326.4,326.1,326.6,325.4,326.9,324.6z M304.5,303.4l-0.4-0.5
	c-0.6,0.2-1.2,0.4-1.7,0.7c-3.3,1.8-6.7,3.5-9.9,5.5c-2.6,1.6-3.3,4.3-3.2,7.2c2.8,1,6,0.1,7.9-2.2c1.5-2,2.9-4,4.3-6.1
	C302.6,306.5,303.6,304.9,304.5,303.4z M315.6,314.5l-0.4-0.4c-0.4,0.1-0.7,0.2-1.1,0.3c-3.5,2.1-7,4.2-10.4,6.4
	c-2.2,1.4-3.1,4.9-2.2,7.6c2.9,0.1,5.6-0.4,7.3-2.9c1.6-2.3,3-4.7,4.5-7.1C314.2,317.1,314.9,315.8,315.6,314.5L315.6,314.5z"/>
<path class="st0" d="M186,483.8c-5.1-0.2-10.1-1.1-14.9-2.7c-12.7-3.8-24.1-11.2-32.6-21.4c-7.1-8.4-11.2-18.2-13.4-28.8
	c-1.2-5.9-1.7-11.8-2.5-17.8c-1.2-10.1-2.4-20.2-3.6-30.2c-1-8.6-2.1-17.1-3.1-25.7c-0.9-7.3-1.6-14.6-2.6-21.9
	c-5.4-39.4,22.2-75.7,61.5-81.1c36.9-5.1,71.6,18.9,80,55.2c1.3,5.8,1.8,11.8,2.6,17.8c1.3,10.1,2.4,20.1,3.6,30.2
	c1,8.6,2.1,17.1,3.1,25.7c0.9,7.5,1.8,14.9,2.7,22.4c1.4,10.8,1,21.4-2.5,31.8c-4.5,13.6-13,24.4-24.6,32.8
	c-5.8,4.2-12.1,7.5-18.8,9.9c-0.4,0.1-0.8,0.1-1.2,0.1c0.8-0.4,1.2-0.7,1.6-0.8c18.1-8.5,29.5-22.8,35.6-41.5
	c2.1-6.6,3.8-13.3,3.6-20.2c-0.1-4.5-0.4-8.9-0.9-13.4c-0.9-8.7-2.1-17.5-3.1-26.2l-3.6-30.2c-1-8.7-2.2-17.3-3.1-26
	c-1-9.4-3-18.5-7.6-26.8c-11-19.8-27.7-31.5-50.2-34.2c-34.1-4.2-65.6,19.6-71.5,53.4c-1.2,7.3-1.2,14.7-0.2,22
	c1.1,8.7,2.1,17.5,3.2,26.2c1.2,10.1,2.4,20.1,3.6,30.2c1,8.7,2.1,17.3,3.1,26c0.9,8.1,2.2,16.2,5.7,23.7
	c7.1,15.3,17.4,27.7,32.6,35.6c4.8,2.5,10,4.4,15.3,5.5C184.4,483.4,185.2,483.6,186,483.8z"/>
<path class="st0" d="M152.1,432.1c-0.9-2.5-5.6-43.9-5.4-47l83.8-9.2c-0.3-2.9-0.6-5.5-1-8.4l-66.2,7.2c-1.8-16.5-3.6-32.8-5.4-49.2
	c26.6-2.9,52.9-5.8,79.4-8.6c0.8,7.6,1.6,14.9,2.5,22.4c-18.9,2.9-37.9,3.8-57.1,4.7c0,7.2,0.7,14.2,0.8,21.6l52.1-5.7
	c0.8,7.3,1.6,14.5,2.4,22.1l-69,7.6l6.6,38.7L152.1,432.1z M179,341.1c9.1-1.5,17.8-3,26.5-4.3s17.7-2.4,26.7-3.6
	c-0.3-2.8-0.6-5.6-0.9-8.7c-22,2.3-43.8,4.7-65.8,7.2c1.3,12,2.6,23.6,3.9,35.5l13.8-1.5L179,341.1z M154,391.2
	c1.3,11.2,2.5,22.2,3.7,33.4l12.5-0.7c-0.5-11.5-1.1-22.8-1.6-34.3L154,391.2z"/>
<path class="st0" d="M189.6,484.3h-1.4v-0.1L189.6,484.3L189.6,484.3z"/>
<path class="st0" d="M291.2,56.6c0,2.4,0,4.6,0,6.7c-0.1,3-1.6,4-4.4,3c-2.1-0.8-4-2.2-5.3-4c-1.1-1.6-2.1-3.2-3-4.9
	c-2.3-4.6-5.2-9-8.5-13c-1.1-1.4-2.8-2.1-4.6-1.9c-4.6,0.4-9.3,0.2-13.8-0.7c-1.4-0.3-2.8-0.7-4.1-1.4c-1.3-0.4-2-1.9-1.6-3.2
	c0.1-0.4,0.3-0.7,0.6-1c5.8-7.4,12-14.4,20.1-19.3c2-1.2,4.2-2,6.4-2.6c3.7-1.1,7.6,0.3,9.7,3.5c1.5,2.2,2.7,4.5,3.6,7
	c1.9,5.3,3.1,10.8,3.5,16.3C290.4,46.5,290.8,51.7,291.2,56.6z"/>
<path class="st0" d="M90.4,57.3c0.3-8.1,1.3-16.1,2.8-24c0.7-3.9,2-7.6,3.7-11.1c3.5-6.9,8.5-8.7,15.5-5.4c2.6,1.3,5,2.8,7.3,4.6
	c5.7,4.5,10.8,9.8,15.1,15.6c1.8,2.2,1.2,3.9-1.4,5c-3.1,1.1-6.3,1.7-9.6,1.7c-2.6,0.2-5.1,0.2-7.7,0c-1.8-0.2-3.7,0.6-4.7,2.1
	c-3.1,3.8-5.8,8-8.1,12.4c-0.9,1.8-1.9,3.5-3.1,5.1c-1.4,1.9-3.3,3.3-5.5,4.1c-2.7,0.9-4.2-0.1-4.3-2.9
	C90.4,62.1,90.4,59.7,90.4,57.3z"/>
<path class="st0" d="M162.5,127.8c0.8-0.1,1.6-0.2,2.3-0.2c14.5-0.9,29-1.5,43.6-1.4c3,0,6.1-0.4,9.1-0.5c1.2,0,2.3-0.7,2.9-1.7
	c0.9-1.3,1.9-2.6,3-3.7c0.4,2.8,0.1,5.7-0.9,8.3c-0.1,0.4-0.8,0.7-1.3,0.8c-1.4,0.2-2.9,0.4-4.3,0.5c-10,0.2-20,0.4-30,0.5
	c-3.9,0.1-7.8,0-11.8,0.1C171.7,130.4,165.6,129.4,162.5,127.8z"/>
<path class="st0" d="M209.1,78.5c17.5-2.4,35.2-3,52.9-1.6C251.2,82.8,222.6,84.3,209.1,78.5z"/>
<path class="st0" d="M120,77.1c17.7-1.2,35.4-0.7,53,1.5C164.6,84.3,128.5,83.3,120,77.1z"/>
<path class="st0" d="M190.3,98.5c1.8,0.5,3.6,0.8,5.3,1.4c1.4,0.5,1.6,1.3,0.6,2.3c-4.2,4.2-7.6,4.3-11.9,0c-1-1-0.8-1.8,0.6-2.3
	C186.7,99.3,188.5,98.9,190.3,98.5z"/>
<path class="st0" d="M277.9,119.8c-8.1,0-16-1.8-23.3-5.4C262.7,114.3,270.6,116.2,277.9,119.8z"/>
<path class="st0" d="M105,119.4c7.5-3.4,15.6-5.3,23.9-5.6C125.7,116.8,111,120.2,105,119.4z"/>
<path class="st0" d="M130.1,106.6c-7.3,1.9-15,1.9-22.3,0C115.1,104.8,122.8,104.8,130.1,106.6z"/>
<path class="st0" d="M275.6,106.9c-7.2,1.8-14.8,1.8-22.1,0C260.7,105,268.3,105,275.6,106.9z"/>
<path class="st0" d="M132.1,100.8c-5.7,0-14.5-2.9-19.1-6.1C116.2,93.5,127.6,97.1,132.1,100.8z"/>
<path class="st0" d="M270.7,94.7c-5.6,3.7-12.1,5.9-18.9,6.5C254.5,98.1,264.7,94.6,270.7,94.7z"/>
<path class="st0" d="M88.9,497.2c-4.3-3.7-3.9-10,0.9-13.5C94.3,486.9,93.8,494,88.9,497.2z"/>
<path class="st0" d="M69.6,484c3.1,3.9,1.1,11.4-4.5,12.8C61.9,492,64,486,69.6,484z"/>
<path class="st0" d="M79.8,483.9c2.8,3.7,2.1,8.9-1.5,11.7c-0.7,0.5-1.5,1-2.3,1.3C72.2,492.6,75,485.2,79.8,483.9z"/>
<path class="st0" d="M300.6,484.7c5.5,2.6,7.1,8,4,13C299.3,496.4,297.1,489.6,300.6,484.7z"/>
<path class="st0" d="M310.8,484.8c5,1.4,7.9,8.4,4.4,12.8C310.1,496.4,307.3,489.3,310.8,484.8z"/>
<path class="st0" d="M290.3,484.5c5,2.6,5.2,10.4,1.3,13.4C286.9,496.2,286,487.8,290.3,484.5z"/>
<path class="st0" d="M76.6,334c-2.9,0.5-6-0.6-7.3-2.8c-2-3.4-3.9-6.9-5.8-10.4c-0.3-0.5-0.3-1.1-0.1-1.6c0.6,0.4,1.3,0.7,1.9,1.1
	c3,2,5.9,4,8.9,6.1C76.4,327.9,77.3,330.9,76.6,334z"/>
<path class="st0" d="M88.8,322.2c-3.9,0.4-6.7-0.5-8.6-3.8c-1.5-2.5-3.3-4.9-5-7.3c-0.5-0.7-0.9-1.5-1.6-2.7
	c0.7,0.1,1.3,0.3,1.9,0.5c3.4,1.9,6.9,3.7,10.2,5.7C88.3,316.3,89,319,88.8,322.2z"/>
<path class="st0" d="M84.9,296.8c0.9,0.4,1.9,0.7,2.8,1.2c2.9,1.4,5.9,2.9,8.8,4.4c2.5,1.3,3.3,3.8,3.7,6.4c0.1,0.9-0.6,1.3-1.3,1.4
	c-2.4,0.1-4.8-0.2-6.4-2.1c-2.6-3.2-5-6.6-7.5-9.9c-0.2-0.3-0.3-0.6-0.4-0.9L84.9,296.8z"/>
<path class="st0" d="M326.9,324.6c-0.3,0.7-0.5,1.4-0.9,2.1c-1.6,3.2-3.1,6.5-4.8,9.6c-1.3,2.5-3.8,3.3-6.4,3.6
	c-0.8,0.1-1.2-0.4-1.2-1.1c-0.2-2.6,0.2-5,2.3-6.7c3-2.5,6.2-4.7,9.4-7.1c0.4-0.3,0.8-0.5,1.2-0.7L326.9,324.6z"/>
<path class="st0" d="M304.5,303.4c-1,1.5-2,3.1-3,4.6c-1.4,2-2.8,4.1-4.3,6.1c-1.9,2.3-5,3.2-7.9,2.2c-0.1-2.9,0.5-5.6,3.2-7.2
	c3.2-2,6.5-3.7,9.9-5.5c0.6-0.3,1.1-0.5,1.7-0.7L304.5,303.4z"/>
<path class="st0" d="M315.6,314.5c-0.7,1.3-1.4,2.6-2.2,3.9c-1.5,2.4-2.9,4.8-4.5,7.1c-1.8,2.6-4.5,3.1-7.3,2.9
	c-0.9-2.7,0-6.2,2.2-7.6c3.4-2.2,6.9-4.3,10.4-6.4c0.3-0.2,0.7-0.3,1.1-0.3L315.6,314.5z"/>
</svg>
