<?xml version="1.0" encoding="utf-8"?>
<!-- Generator: Adobe Illustrator 22.1.0, SVG Export Plug-In . SVG Version: 6.00 Build 0)  -->
<svg version="1.1" id="Layer_1" xmlns="http://www.w3.org/2000/svg" xmlns:xlink="http://www.w3.org/1999/xlink" x="0px" y="0px"
	 viewBox="0 0 380 513.5" style="enable-background:new 0 0 380 513.5;" xml:space="preserve">
<style type="text/css">
	.st0{fill:#ED1C24;}
</style>
<title>Untitled-1</title>
<path class="st0" d="M340.1,490.8c-0.1,1.2-0.2,2.2-0.4,3.2c-0.7,3.9-2.7,7.4-5.6,10.1c-2.9,2.6-6.2,4.5-9.9,5.8
	c-6.1,2.1-12.5,3.4-19,3.6c-11.2,0.6-22.4,0.2-33.4-2.3c-4.6-0.9-9.1-2.7-13.1-5.2c-4.5-3-7.8-6.9-8.7-12.4
	c-0.2-1.3-0.3-2.7-0.4-4.3c-2.8-0.4-5.5-0.9-8.3-1.1c-0.9,0.1-1.8,0.4-2.6,1c-8.8,5.2-18.4,8.7-28.5,10.4
	c-20.5,3.4-39.8,0.2-57.9-10.1c-1.8-1.1-4-1.5-6.1-1c-4.5,1-9.1,1.7-13.7,2.6c-0.5,0.1-1.1,0.3-1.7,0.4c-0.1,0.3-0.2,0.6-0.3,0.9
	c-0.4,5.6-3.2,9.8-7.6,13.1s-9.4,5-14.7,6.2c-10,2.2-20.1,2.3-30.3,1.7c-6.4-0.3-12.7-1.3-18.9-3.1c-1.8-0.5-3.5-1.2-5.2-1.9
	c-6.9-3-12.1-7.5-13.6-15.3c-0.5-0.1-0.9-0.3-1.4-0.3c-6.3-0.9-11.3-4.2-15.6-8.8c-4.6-5.1-8.3-11.1-10.8-17.5
	c-4.2-10-6.8-20.5-8.6-31.1c-4-22.3-4.5-44.8-3.7-67.4c0.5-14.5,1.8-28.9,3.8-43.2c1.4-11.3,3.4-22.6,6-33.7c0.4-1.5,0.3-3-0.3-4.4
	c-4-9.9-4.8-20.2-3.7-30.6c1.6-15,7.1-28.8,14.4-41.9c9.7-17.4,21.9-32.9,35.6-47.1c2.4-2.5,4.9-4.9,7.5-7.5
	c-0.5-0.6-1.1-1.2-1.5-1.8c-1.7-2.3-3.6-4.5-5.1-6.9c-2.3-3.5-2.3-7.4-0.9-11.3c1.4-3.5,3.5-6.7,6.1-9.4c0.6-0.7,1.3-1.4,2-2.1
	c-0.1-0.3-0.2-0.6-0.3-0.9c-6.1-9.5-6.6-19.6-3.6-30.2c2-6.9,5.3-13.4,9.8-19.1c1.3-1.7,2-3.8,2-5.9c1-16.6,3.1-33.1,8.2-49.1
	c1.3-4.1,3-8.1,5-11.9c5.2-9.7,12-13.4,23.9-11c7.1,1.4,13.6,4.2,19.9,7.4c9.3,4.9,18.1,10.5,26.5,16.9c1.2,1,2.9,1.4,4.4,0.9
	c12.2-3,24.8-4,37.4-3.2c7.7,0.4,15.3,1.7,22.7,3.8c1.7,0.6,3.6,0.3,5.1-0.8c9.5-6.8,19.6-12.7,30.2-17.7c5.7-2.7,11.6-5.1,17.8-6.2
	c2.3-0.4,4.6-0.6,6.9-0.6c4.6,0.1,8.3,2.1,11.4,5.4c2.4,2.7,4.4,5.7,6,8.9c3.4,7.1,6,14.5,7.5,22.2c2.2,8.9,3.4,18.1,3.6,27.3
	c0.1,1,0.4,2,1,2.9c4.5,7.5,8.1,15.5,10.7,23.8c1.6,5.2,2.5,10.6,2.7,16c0.3,7.1-1.8,14.1-6,19.8c-0.2,0.3-0.4,0.7-0.7,1.1
	c0.5,0.6,1,1.2,1.6,1.7c2.8,2.8,5.1,6.2,6.6,9.9c1.6,3.7,1.2,7.9-0.8,11.3c-1.8,3.2-4.1,6.1-6.8,8.6c-0.7,0.6-1.5,1.2-2.4,2
	c1.2,1.1,2.1,1.8,3,2.6c18.7,16.5,34.9,35,47.6,56.5c6.3,10.4,10.9,21.8,13.5,33.7c2.6,12.5,2.5,24.9-2.1,37.1c-1,2.5-2.1,5-3.4,7.4
	c-0.6,1.2-0.8,2.5-0.6,3.9c1.6,10.4,3.4,20.8,4.7,31.3c1,7.9,1.5,15.9,2,23.9c0.8,11.7,0.9,23.5,0.5,35.3c-0.7,19.5-2.8,38.9-8,57.8
	c-1.9,7.6-4.8,14.9-8.5,21.8c-1.8,3-3.8,5.9-6,8.7C352.6,486.5,347.3,490.1,340.1,490.8z M48.6,335.7c-0.6-0.6-1.2-1.2-1.7-1.9
	c-2.3-3.4-3.9-7.2-4.6-11.2c-0.2-1.4-1.1-2.6-2.4-3.3c-8.9-5.2-16.8-11.6-23-20c-0.4-0.4-0.8-0.8-1.3-1.1c-1.2,7-2.4,13.7-3.3,20.4
	c-2.7,18.8-4.2,37.8-4.7,56.8c-0.5,17.9,0.4,35.8,2.8,53.6c1.3,10.4,3.7,20.6,7.1,30.5c2,6.2,5,12,8.7,17.3c2.2,3.2,5.1,5.8,8.4,7.8
	c1.8,1.1,3.8,1.7,5.9,1.8c0.2-0.6,0.4-1.1,0.5-1.7c3.6-13.8,10.8-25.2,22.4-33.6c12.4-9.1,29.1-9.5,41.9-0.9
	c13,8.8,21.1,21.2,25,36.3c0.1,0.4,0.3,0.9,0.5,1.5l14.6-2.2l0.1-0.5l-2-1.5c-15.8-11.7-27.1-28.4-32.1-47.3
	c-2.1-7.5-2.6-15.3-3.6-22.9c-1.4-11.3-2.7-22.7-4-34c-1.7-14.2-3.4-28.4-5.1-42.6c-0.1-0.5-0.3-1.1-0.4-1.6
	c-0.5,0.4-0.9,0.6-1.2,0.8c-9.9,7.7-21.1,10.2-33.4,8.2c-4.3-0.6-8.4-2.2-11.8-4.9C50.6,338.2,49.5,336.9,48.6,335.7
	c1.5,1.4,3.2,2.7,5,3.9c3.6,2,7.8,2.8,11.8,2.2c13-1.3,25.2-6.9,34.7-15.9c6.4-6,10.6-13.2,11.3-22.1c0.8-9.7-2.8-17.7-12.6-21.8
	S80,279,71.2,284.3c-8.7,5.4-16.2,12.7-21.7,21.4c-1.6,2.5-3,5.1-4,7.9c-2.6,7.4-2,14.5,2.5,21C48.3,334.9,48.5,335.3,48.6,335.7z
	 M154.6,245.5L154.6,245.5c-0.5,0.3-1,0.6-1.6,0.9c-19,8.7-32.1,23.1-40.7,41.9c-0.4,0.9-0.5,2-0.2,3c0.6,2.7,1,5.5,1.2,8.3
	c0.2,9-2.2,17.9-7.1,25.5c-1.3,2-1.8,4.4-1.4,6.8c1.1,8.6,2.1,17.1,3.1,25.7c1.2,10,2.4,20,3.6,30c1.4,11.3,2.9,22.7,4.1,34
	c1.4,13.7,6.2,26.8,13.9,38.1c17.8,26,50.6,39.2,81.3,32.9c41.5-8.6,69.2-48,63.2-90c-1.4-10.1-2.5-20.3-3.7-30.5
	c-1-8.5-2-17-3-25.5c-1.2-10.1-2.5-20.1-3.6-30.2c-0.8-7.5-2.5-14.8-5.2-21.8c-4.7-11.6-11.7-22.2-20.6-31
	c-12.8-12.8-28.2-20.8-46.3-23.2c0.9-0.1,1.7-0.1,2.6,0c3.8,0.6,7.6,1,11.4,1.8c17.2,3.8,32.2,11.9,44.2,24.9
	c12,13.1,18.2,28.9,20.5,46.4c0.9,7.2,1.7,14.5,2.6,21.7l3.7,30.5c1,8.7,2.1,17.3,3.1,26c0.7,6.3,1.7,12.7,2,19.1
	c0.6,12.6-1.6,25.2-6.5,36.8c-0.3,0.8-0.6,1.5-1,2.8c1.4-0.7,2.1-1.2,2.9-1.5c11.6-5.8,23.4-6.2,34.7,0.2
	c14.7,8.3,23.3,21.5,27.8,37.5c0.2,0.8,0.4,1.6,0.6,2.5c2.6-0.2,5.2-1,7.5-2.4c3.2-1.9,6-4.5,8.2-7.6c3-4.1,5.4-8.5,7.3-13.2
	c4.4-11.3,7.3-23.1,8.6-35.1c1-7.9,1.6-15.9,2.1-23.9c0.8-14.9,0.7-29.9-0.4-44.8c-0.7-10-1.6-20.1-2.7-30.1
	c-0.8-7.4-2-14.7-3.1-22.1c-0.1-0.6-0.3-1.2-0.5-1.8c-0.3,0.2-0.5,0.3-0.8,0.6c-4.9,5.7-10.5,10.6-16.7,14.7
	c-0.9,0.6-1.5,1.7-1.5,2.8c-0.5,4.1-1.8,8.1-3.9,11.8c-2.7,5.1-7.3,8.9-12.8,10.5c-3,0.9-6,1.6-9.1,1.9c-11.5,1.2-21.9-1.7-30.5-9.3
	c-10.7-9.5-15.9-21.7-15.9-35.9c-0.2-8.1,3.9-15.7,10.8-20c2.7-1.6,5.5-3,8.4-4.1c1.2-0.4,2.2-1.2,3-2.2c2.3-3.1,4.1-6.4,5.6-10
	c3.1-8,4.1-16.2,4.1-24.7c-0.1-8.2-1.1-16.4-3-24.5c-3.3-14.6-8.5-28.6-14.4-42.4c-0.2-0.4-0.5-0.8-0.7-1.2c-0.4,0.1-0.7,0.2-1,0.3
	c-18,6.8-36.7,10.3-55.8,12.6c-2.4,0.3-4.9,0.6-7.3,0.9c0,0.8,0,1.4,0,1.9c0.3,4.1-0.1,8.2-1.2,12.1c-3.9,14.1-16.2,21.1-28.5,19.9
	c-15.5-1.6-28.5-14.6-30.5-30.1c-0.1-0.9-0.3-1.9-0.5-3c-25.1-2.2-49.9-5.8-73.6-14.7c-0.2,0.5-0.4,0.8-0.5,1.1
	c-5.3,14.6-9.7,29.4-11.5,45c-1.2,9.3-1,18.7,0.6,27.9c1.6,8.2,4.6,15.8,10,22.3c0.8,1.1,2,1.8,3.3,2.1c5,1.2,9.5,3.7,13.2,7.2
	c0.4,0.4,0.9,0.8,1.5,1.3c0.4-0.6,0.7-1,1-1.5c10.4-16.7,25.1-28.2,43.3-35.3C152.9,245.8,153.8,245.6,154.6,245.5z M305.7,58.6h0.3
	c-0.8-6.1-1.5-12.2-2.5-18.3c-1.5-8.5-3.7-16.9-7.7-24.6c-1.5-2.9-3.4-5.6-5.5-8.1c-3.3-3.9-7.8-5.5-12.9-4.9
	c-1.3,0.1-2.5,0.4-3.8,0.6c-6.4,1.6-12.5,4-18.2,7.2c-10.5,5.7-20.4,12.2-29.7,19.6c-0.9,0.9-2.3,1.2-3.5,0.8
	c-7.1-1.8-14.4-2.8-21.8-3.3c-13.9-0.8-27.9,0.5-41.4,4.1c-1.6,0.6-3.3,0.2-4.6-0.9c-9.4-7.5-19.4-14.1-30.1-19.7
	c-6-3.1-12.2-5.7-18.9-6.7c-5.9-0.9-10.8,0.7-14.3,5.7c-1,1.4-2,2.9-2.8,4.4c-2.6,4.8-4.7,9.8-6.2,15c-4.4,13.9-7,28.2-9.1,42.6
	c-0.2,2-0.9,3.9-2,5.5c-3.5,5.3-6.2,11.1-7.9,17.1c-4.2,14.7-0.9,27.1,10.9,37.2c5.6,4.7,11.7,8.7,18.3,11.8
	c18.6,9.2,38.4,14.3,58.9,17.3c8.5,1.2,17.2,1.8,25.8,2.7c1.6,0.2,3.2-0.1,4.6-0.9c9.1-4.5,18.3-4.7,27.4,0c1.1,0.6,2.4,0.8,3.7,0.7
	c12.3-0.9,24.5-2.9,36.4-5.9c15.7-4,30.6-9.7,44.4-18.2c6.7-4.1,12.8-9.1,18-15c3.7-4.2,6-9.5,6.6-15.1c0.5-5.6,0-11.2-1.4-16.6
	c-2.1-8.8-5.5-17.2-10-25c-0.8-1.3-1.2-2.8-1-4.3C305.7,62.1,305.8,60.3,305.7,58.6z M65.3,160.9c-0.6,0.7-1.1,1.2-1.6,1.7
	c-7.1,9.4-14.5,18.5-21.3,28.1c-10.2,14-18.7,29.1-25.3,45c-4,9.9-7.2,20-7.7,30.8c-0.6,12.6,2.7,24,10.8,33.9
	c5.5,6.6,12.3,12,20,15.9c0.4,0.2,0.8,0.3,1.3,0.4c0.1-11.4,5.4-20.3,12.8-28.2s16.1-13.5,27-15c0-0.2,0-0.4,0-0.5
	c-0.1-0.3-0.3-0.6-0.4-0.8c-6.2-9.3-8.9-19.7-9.6-30.8c-0.5-9.8,0.4-19.7,2.7-29.3c2.8-12.2,6.8-24,12-35.4c0.4-0.8,0.7-1.6,1.1-2.6
	C79.1,170.6,71.8,166.6,65.3,160.9z M348.4,320.4c0.8-0.4,1.3-0.6,1.8-0.9c4.7-2.9,9-6.4,12.8-10.4c8-8.2,12.9-19,13.6-30.4
	c0.4-7.8-0.5-15.7-2.8-23.2c-3.5-11.9-8.9-23-15.1-33.6c-12.4-21.3-27.9-40.3-44.4-58.6c-0.3-0.3-0.6-0.5-1-0.7
	c-6.1,5-13,8.5-20.1,11.8c0.6,1.1,1,2,1.4,2.8c5.8,10.8,10.5,22.1,14.3,33.7c3.9,12.6,6.5,25.4,5.9,38.7c-0.5,10-2.7,19.6-7.9,28.4
	c-0.2,0.5-0.4,1-0.6,1.6c11.1,1,20,6.2,27.8,13.6C342,300.5,347.6,309.1,348.4,320.4z M85.6,506.6c6.1-0.2,14.2-0.3,22.3-1.9
	c4.4-0.7,8.7-2.1,12.7-4.2c5.6-3.2,8.1-8.1,7.5-14.4c-0.7-9-4.7-17.5-11.3-23.8c-14.3-13.9-37.3-16-54.5-5.2
	c-10.1,6.3-16.3,15.4-18.7,27c-1.8,8.3,1.4,14.5,9.2,17.9c2.7,1.2,5.5,2.1,8.4,2.7C68.5,506.4,76,506.7,85.6,506.6z M295.3,506.8
	c6.4-0.5,12.8-0.9,19.1-1.7c5.3-0.5,10.4-2,15.1-4.4c5.9-3.2,8.6-8.3,7.8-14.9c-1.4-11-6.2-20.1-15.2-26.7
	c-14.9-10.9-34.9-11.6-50.5-1.7c-1.4,0.8-2.5,2-3.4,3.3c-2.9,4.9-6.5,9.4-10.5,13.4c-2.1,2.1-3.6,4.7-4.2,7.6
	c-0.3,1.2-0.6,2.5-0.8,3.8c-1.1,7,1.6,12.8,8,15.9c3.1,1.5,6.4,2.6,9.7,3.3C278.6,506.6,286.9,506.7,295.3,506.8L295.3,506.8z
	 M326.1,347c1.4-0.1,2.7-0.1,4.1-0.3c3.8-0.5,7.4-1.7,10-4.6c4.3-4.5,6.4-10.7,5.8-16.9c-0.5-5.1-2.4-10-5.5-14.1
	c-6-8.9-14.1-16.3-23.6-21.5c-10.5-5.6-21-5.3-31.1,1.4c-3.7,2.4-6.3,6.2-7.2,10.4c-0.9,3.4-1,7-0.4,10.5c1.1,6.8,4.3,13.2,9.3,18
	C298.1,340.6,311.2,345.7,326.1,347L326.1,347z M177.1,212l-0.6,0.6c0.6,0.3,1.1,0.6,1.6,1c2.6,2.2,5.8,3.8,9.2,4.5
	c10.2,2.1,19.1-0.8,27.1-7.1c0.7-0.5,1.2-1.4,1.1-2.3c-0.2-3-0.1-5.9-0.6-8.8c-1-6.8-4.2-12.5-8.6-17.7s-9.6-9.4-14.8-13.6
	c-0.8-0.7-1.9-0.8-2.9-0.4c-12.7,3.7-21.2,17.4-18.9,30.5c0.3,2.6,1.2,5.2,2.6,7.5c3.7-0.4,7.5-0.4,11.2-1.2
	c-0.2-0.8-0.3-1.3-0.4-1.9c-0.9-4.2,1.7-8.3,5.9-9.2c4.2-0.9,8.3,1.7,9.2,5.9c0.4,1.7,0.2,3.4-0.5,4.9c-1.4,3.1-4.7,4.9-8,4.4
	c-0.9-0.2-1.9,0.1-2.5,0.8c-1.8,1.7-4.3,2.6-6.8,2.4C179.3,212.3,178.2,212.1,177.1,212L177.1,212z M219.5,205.2l0.4,0.1
	c0.3-0.4,0.6-0.7,0.9-1.1c6.6-9.6,4.8-22.7-4.2-30.2c-5.6-4.7-12.7-7.2-19.9-7c-0.5,0-1,0.1-1.6,0.2c0.2,0.3,0.2,0.4,0.3,0.4
	l2.2,0.9c6.9,2.7,12.9,7.3,17.2,13.4c4.2,5.6,6,12.7,5.2,19.7C219.8,202.8,219.6,204,219.5,205.2L219.5,205.2z M240.4,167.2
	l12.7,6.5l-11.2,11.9l0.3,0.5c1.9-0.3,3.9-0.6,5.8-0.9c1-0.1,2-0.7,2.6-1.5c2.8-3.7,5.7-7.3,8.5-11c0.3-0.4,0.6-0.9,0.8-1.3
	c-0.9-0.4-1.6-0.7-2.4-1c-3-1.2-6.2-2.1-9.2-3.5C245.7,165.8,243.4,166,240.4,167.2L240.4,167.2z M81.5,168.2l-0.1,0.5
	c1.8,0.9,3.6,1.9,5.4,2.8c0.8,0.5,1.8,0.5,2.7,0.2c4.4-1.4,8.9-2.6,13.3-3.9c0.5-0.2,1-0.4,1.5-0.7c-2.8-4.2-5.4-8.2-8.1-12.1
	c-1.1-1.6-3-1.9-5.2-2.7l6.5,12.8L81.5,168.2z M308,152.9c-0.7-0.1-1.1-0.2-1.5-0.3c-4.3-0.4-8.6-0.8-12.9-1.2
	c-2.1-0.2-3.6,1.1-5.6,2.5l14,2.9c-1.4,2.7-2.7,5.1-3.9,7.5s-2.5,4.7-3.7,7l0.4,0.4c0.8-0.4,1.7-0.8,2.6-1.1
	c3.3-0.9,5.1-3.1,6.1-6.3C304.6,160.5,306.3,156.9,308,152.9L308,152.9z M132.8,185l0.1,0.5c2.3,0.4,4.5,0.8,6.8,1
	c0.7,0,1.4-0.3,1.9-0.7c3.8-2.5,7.6-5,11.4-7.6c0.5-0.4,0.9-0.8,1.3-1.2c-3.5-2.9-7-5.6-10.3-8.5c-1.9-1.7-4.1-1.6-6.8-1.7l10,10.2
	L132.8,185z M251.2,481l-0.4-0.2c-1.4,1.1-2.9,2.2-4.3,3.3s-2.8,2.1-4.3,3.2l0.2,0.5l7.1,1C250.1,485.9,250.6,483.4,251.2,481
	L251.2,481z"/>
<path class="st0" d="M186.4,483.8c-5.7-0.7-11.4-1.9-16.8-3.6c-14.7-5-26.8-13.6-35.4-26.6c-5.6-8.8-9.1-18.8-10.3-29.2
	c-1.8-14.2-3.5-28.4-5.2-42.6c-1.5-12.7-3-25.4-4.5-38.1c-0.5-4.2-1.1-8.4-1.4-12.6c-1.7-21.6,5-40.4,19.9-56.1
	c11-11.7,25.8-19.2,41.7-21.3c33.7-4.8,66.1,14.7,77.8,46.6c2.1,5.9,3.4,12,4.1,18.2c1.2,10.2,2.5,20.3,3.7,30.5c1,8.5,2,17,3,25.5
	c1.2,10.2,2.4,20.3,3.7,30.5c1.4,10.8,1,21.6-2.5,32c-4.5,13.3-12.7,23.9-23.9,32.2c-5.5,4.1-11.5,7.3-17.9,9.7
	c-0.4,0.2-0.8,0.2-1.2,0.1c0.5-0.3,0.9-0.5,1.4-0.8c17.4-8.7,28.4-22.7,34.2-41c2-6.2,3.6-12.5,3.6-19c-0.1-4.9-0.4-9.8-0.9-14.6
	c-0.9-8.8-2.1-17.5-3.1-26.2c-1.2-10.1-2.4-20.2-3.6-30.2c-1-8.7-2.2-17.3-3.1-26c-1.1-11.7-4.3-22.7-11.1-32.5
	c-11.4-16.4-27-26.1-46.9-28.4c-34.3-4-65.6,19.9-71.4,53.6c-1.1,7.1-1.2,14.4-0.2,21.5c1.1,8.9,2.1,17.8,3.2,26.7
	c1.2,10,2.4,20,3.6,30c1,8.7,2.1,17.3,3.1,26c0.9,8.2,2.2,16.3,5.8,23.9c6.5,13.8,15.5,25.3,28.7,33.3c6,3.7,12.6,6.3,19.5,7.8
	C184.9,483.1,185.7,483.4,186.4,483.8L186.4,483.8z"/>
<path class="st0" d="M169.1,389c2.2,13,4.4,25.7,6.6,38.7l-23.8,3.9c-0.4-2-0.8-3.8-1-5.7c-0.7-6-1.3-11.9-1.9-17.9
	c-0.8-7.1-1.5-14.1-2.3-21.2c-0.1-0.6-0.1-1.2-0.1-2.2c14-1.7,27.9-3.1,41.9-4.6s27.9-3,42.1-4.6c-0.3-2.9-0.6-5.5-0.9-8.4
	l-66.2,7.2c-1.9-16.4-3.6-32.6-5.4-49.2l79.4-8.7c0.8,7.6,1.6,15,2.5,22.4c-19,2.9-37.9,3.8-57.2,4.7c0.3,7.2,0.6,14.3,0.9,21.6
	l51.7-5.6c0.7,1.7,2.8,19.1,2.6,22.1L169.1,389z M165.6,331.1c1.3,12,2.6,23.6,3.9,35.5l13.8-1.5c-1.4-8.3-2.8-16.3-4.2-24.5
	c17.8-2.9,35.3-6.3,53.2-7.7c-0.4-3.2-0.7-6-1-9L165.6,331.1z M170.3,423.4c-0.5-11.5-1.1-22.8-1.6-34.3l-14.5,1.6
	c1.2,11.3,2.3,22.3,3.8,33.4L170.3,423.4z"/>
<path class="st0" d="M186.4,483.8L186.4,483.8z"/>
<path class="st0" d="M154.6,245.5l1.6-0.9l0.1,0.3L154.6,245.5L154.6,245.5z"/>
<path class="st0" d="M291.2,57.4c0,1.3,0,3.4,0,5.6c-0.1,2.8-1.6,3.8-4.3,2.9c-2.4-0.9-4.5-2.5-5.9-4.7c-0.9-1.3-1.7-2.7-2.4-4.1
	c-2.2-4.5-5-8.8-8.1-12.7c-1.2-1.7-3.3-2.6-5.4-2.3c-4.5,0.4-9,0.2-13.4-0.7c-1.2-0.2-2.3-0.6-3.4-1c-2.6-1.1-3.2-2.9-1.4-5
	c3.5-4.1,7-8.1,10.8-11.9c2.7-2.5,5.6-4.8,8.7-6.7c2.1-1.3,4.4-2.2,6.8-2.8c3.5-1,7.2,0.3,9.4,3.3c1.8,2.3,3.2,5,4,7.8
	c2,6.5,3.3,13.2,3.8,20C290.7,48.9,290.9,52.7,291.2,57.4z"/>
<path class="st0" d="M90.5,57c0.5-8.1,1-16.1,2.8-24c0.8-3.6,2-7.1,3.3-10.5c0.8-1.9,2-3.6,3.4-5.1c1.9-2.1,4.8-3.1,7.6-2.5
	c2.8,0.4,5.4,1.5,7.8,3c3.8,2.3,7.3,5.2,10.4,8.5c3,3.2,5.9,6.5,8.8,9.8c2.1,2.5,1.6,4.3-1.5,5.5c-3,1-6.2,1.6-9.4,1.6
	c-2.6,0.1-5.1,0.1-7.7,0c-1.8-0.2-3.5,0.6-4.6,2c-3.3,4-6.1,8.4-8.4,13c-1.1,2.2-2.6,4.2-4.2,6.1c-1.1,1.1-2.5,2-4,2.6
	c-2.8,1.2-4.4,0-4.4-2.9C90.4,61.6,90.5,59.3,90.5,57z"/>
<path class="st0" d="M210.2,84.2c0.3,0.6,0.6,1.3,1,1.9c3.7,6.2,10.9,9.5,18,8.1c7-1.6,12.2-7.5,12.8-14.7
	c0.6-7.6-4.8-14.4-12.4-15.5c-0.2,0-0.5,0-0.7,0.1c2.1,4.4,2.1,6.6,0,8.7c-1.7,1.7-4.3,2.1-6.4,1c-3.5-1.9-3.6-4.9-2.4-8.7
	c-4.6,1.7-8.2,5.3-10,9.8c0.6-6.7,6.7-12.5,13.2-13.4c10.9-1.4,20.4,8.6,20.3,18.9c-0.1,9.6-8,17.2-17.6,17.1
	c-2.3,0-4.6-0.5-6.8-1.5C214.4,94,211,89.5,210.2,84.2z"/>
<path class="st0" d="M169.8,74.5c-2.3-4.8-6-7.9-11.5-9.7c1.5,3.5,1.7,6.4-1.2,8.6c-1.9,1.5-4.6,1.5-6.5,0c-2.9-2.2-2.9-5-1.4-8.3
	c-0.4,0.1-0.8,0.1-1.2,0.2c-7.9,2.9-12.2,12.6-9.1,20.3c1.9,5.2,6.7,8.8,12.2,9.1c8,0.8,14.6-2.9,18.3-10c0.1-0.2,0.3-0.4,0.4-0.6
	c-1,7.6-8,13.4-15.9,13.1c-9.6-0.3-17.6-9-17.6-19c0.1-12.9,14.1-21.2,25.4-15C166.1,65.6,169,69.7,169.8,74.5z"/>
<path class="st0" d="M165,126.1c7.1-2.5,38.9-2.8,50.4-0.2C210.6,128.3,176,128.8,165,126.1z"/>
<path class="st0" d="M183.9,100.4c2.2-2.7,10.3-2.8,13-0.1c-0.7,2.2-3.9,4.5-6.3,4.6C187.7,104.7,185.1,103,183.9,100.4z"/>
<path class="st0" d="M278.5,119.5c-7.1,0.2-19.3-2.6-23.9-5.5C258.6,112.9,273.1,116.1,278.5,119.5z"/>
<path class="st0" d="M128.7,113.6c-3.4,2.7-16.4,5.8-23.1,5.5C108.7,116.3,123.6,112.8,128.7,113.6z"/>
<path class="st0" d="M107.9,106c7.4-1.7,15-1.7,22.4-0.2C126.9,108,113.4,108.2,107.9,106z"/>
<path class="st0" d="M253.5,106.4c7.2-1.9,14.8-1.9,22.1,0C268.4,108.2,260.8,108.2,253.5,106.4z"/>
<path class="st0" d="M131.8,100.3c-6.7-0.5-13.3-2.6-19-6.1C116.8,93.2,127.5,96.6,131.8,100.3z"/>
<path class="st0" d="M251.5,100.3c5.8-3.6,12.4-5.8,19.3-6.4C268.3,97,256.8,100.9,251.5,100.3z"/>
<path class="st0" d="M79.9,483.5c3.2,4.9,1.6,10.4-3.8,13C72.4,493,74.5,484.8,79.9,483.5z"/>
<path class="st0" d="M69.6,483.5c3.2,4.8,1.1,10.8-4.4,12.8C61.5,491.7,64.8,484.6,69.6,483.5z"/>
<path class="st0" d="M88.9,496.8c-4.4-3.5-3.6-11.2,1.1-13.6C93.7,485.6,94.3,493.4,88.9,496.8z"/>
<path class="st0" d="M304.5,497.3c-5.6-2.3-7.4-8.2-4-13C305.9,486.1,307.8,492,304.5,497.3z"/>
<path class="st0" d="M315.3,497.1c-5.4-1.6-7.6-7.6-4.6-12.6C316,485.6,318.5,492.2,315.3,497.1z"/>
<path class="st0" d="M291.6,497.5c-5.1-2.7-5.1-10.8-1.2-13.4C295,486.1,295.9,494.1,291.6,497.5z"/>
<path class="st0" d="M88.8,321.4c-3.8,0.8-6.4-0.2-8.3-3c-1.8-2.7-3.6-5.2-5.4-7.9c-0.5-0.7-0.9-1.6-0.9-2.5
	c0.6,0.1,1.1,0.3,1.7,0.6c3.3,1.8,6.6,3.6,9.8,5.5C88.3,315.7,89,318.3,88.8,321.4z"/>
<path class="st0" d="M63.4,318.8c0.6,0.3,1.2,0.6,1.8,0.9c3,2.1,6.1,4.1,9.1,6.2c2.5,1.9,2.8,4.6,2.5,7.5c-2.8,0.7-6-0.3-7.3-2.5
	c-2.3-3.8-4.4-7.8-6.6-11.6L63.4,318.8z"/>
<path class="st0" d="M85,296.2c1,0.4,2,0.8,3,1.3c2.9,1.4,5.7,2.8,8.5,4.3c2.5,1.3,3.3,3.7,3.8,6.3c0.2,0.6-0.2,1.3-0.8,1.4
	c-0.1,0-0.3,0.1-0.5,0c-2.4,0.1-4.9-0.1-6.6-2.1c-2.6-3.2-5-6.6-7.5-9.9c-0.2-0.3-0.3-0.5-0.4-0.8L85,296.2z"/>
<path class="st0" d="M327,324.2c-0.4,0.9-0.7,1.9-1.2,2.8c-1.4,2.9-2.9,5.9-4.4,8.8c-1.3,2.5-3.7,3.4-6.3,3.7
	c-0.6,0.2-1.2-0.2-1.4-0.8c0-0.1,0-0.3,0-0.4c-0.1-2.6,0.2-5,2.3-6.7c3-2.4,6.1-4.6,9.2-6.9c0.5-0.3,0.9-0.6,1.4-0.8L327,324.2z"/>
<path class="st0" d="M315.7,313.9c-0.4,0.8-0.8,1.5-1.2,2.3c-1.8,2.9-3.6,5.9-5.4,8.8c-1.5,2.3-4.5,3.4-7.6,2.8
	c-0.7-2.8,0.3-6,2.5-7.4c3.3-2.1,6.6-4.2,10-6.2c0.4-0.2,0.8-0.4,1.3-0.5L315.7,313.9z"/>
<path class="st0" d="M289.7,315.9c-0.5-2.9,0.6-6,2.9-7.3c3.4-2,6.9-3.8,10.3-5.7c0.6-0.2,1.1-0.5,1.7-0.6c-0.2,0.7-0.5,1.3-0.8,1.9
	c-2.1,3.2-4.3,6.4-6.5,9.5C295.7,315.8,292.3,316.7,289.7,315.9z"/>
</svg>
