<?xml version="1.0" encoding="utf-8"?>
<!-- Generator: Adobe Illustrator 22.1.0, SVG Export Plug-In . SVG Version: 6.00 Build 0)  -->
<svg version="1.1" id="Layer_1" xmlns="http://www.w3.org/2000/svg" xmlns:xlink="http://www.w3.org/1999/xlink" x="0px" y="0px"
	 viewBox="0 0 380.3 514" style="enable-background:new 0 0 380.3 514;" xml:space="preserve">
<style type="text/css">
	.st0{fill:#ED1C24;}
</style>
<title>Untitled-1</title>
<path class="st0" d="M64.1,160.4c-0.9-1-1.4-1.5-1.8-2c-1.8-2.4-3.7-4.8-5.4-7.3c-1.9-3-2.3-6.8-1-10.2c1.4-3.8,3.6-7.3,6.5-10.3
	c0.6-0.7,1.3-1.4,2-2.1c-0.2-0.4-0.3-0.7-0.5-1c-6.2-9.8-6.6-20.1-3.2-30.9c2.2-6.9,5.6-13.3,10-19c0.9-1,1.3-2.3,1.4-3.7
	c0.6-11.5,2-22.9,4.1-34.2c1.5-7.5,3.2-15,6.3-22.1c1.4-3.4,3.2-6.6,5.2-9.7c4.4-6.6,10.8-8.9,18.5-7.9c5.7,0.8,11.3,2.4,16.5,4.8
	c11.4,5,21.9,11.7,31.8,19.1c1.9,1.6,4.5,2.2,6.9,1.5c11.9-2.8,24.1-3.8,36.2-2.9c7.8,0.4,15.6,1.7,23.1,3.9c1.4,0.5,2.9,0.2,4-0.7
	c10-7.1,20.5-13.3,31.6-18.5c5.4-2.5,10.9-4.8,16.7-5.7c2.8-0.4,5.6-0.6,8.4-0.5c3.7,0.1,6.7,2,9.3,4.5c3.1,3.2,5.7,7,7.5,11.1
	c3.5,7.7,6.1,15.8,7.6,24.2c1.7,7.9,2.7,15.9,2.8,24c0.1,1,0.5,2,1.1,2.8c5,8.2,8.8,17.1,11.3,26.4c1.9,6.7,2.4,13.8,1.3,20.7
	c-0.8,4.3-2.4,8.3-4.9,11.9c-0.4,0.5-0.7,1.1-1,1.6c0,0.1,0,0.2,0,0.5c0.5,0.6,1.3,1.3,2,2.1c2.6,2.7,4.6,5.8,6,9.2
	c1.6,3.8,1.3,8-0.8,11.5c-1.9,3.2-4.2,6.1-6.9,8.6c-0.6,0.6-1.3,1.1-2.2,1.9l2.4,2.1c17.7,15.3,33.1,33.1,45.6,52.8
	c6.8,10.8,12.2,22.3,15.3,34.8c2.8,11.7,3.4,23.4,0.3,35.1c-1.1,4.4-2.9,8.7-5.1,12.6c-0.6,1.1-0.8,2.4-0.6,3.7
	c3.5,18.4,5.7,37,6.7,55.7c0.8,13.6,0.9,27.2,0.3,40.8c-1,18.4-3.2,36.6-8.5,54.3c-2,6.9-4.7,13.6-8.2,19.9
	c-2.2,3.9-4.9,7.5-8.1,10.7c-3.9,3.7-8.3,6.3-13.7,6.9c-0.3,0.1-0.5,0.2-0.8,0.3c-0.1,0.5-0.2,1-0.3,1.6c-0.5,5.8-3.5,10-8,13.3
	c-4.3,3.1-9.2,4.8-14.3,5.9c-9.9,2.2-19.8,2.3-29.8,1.7c-6.5-0.4-12.9-1.1-19.1-3.1c-3.2-1-6.3-2.4-9.2-4c-6-3.4-9.4-8.5-9.8-15.5
	c0-0.5-0.1-0.9-0.2-1.5c-2.7-0.4-5.3-0.8-7.9-1c-0.9,0-1.9,0.3-2.6,0.8c-8.5,5-17.8,8.5-27.5,10.3c-21,3.8-40.7,0.6-59.2-10
	c-1.7-1-3.7-1.4-5.7-0.9c-4.7,1-9.4,1.8-14.1,2.7c-0.5,0.1-0.9,0.2-1.4,0.4c-0.1,0.4-0.2,0.8-0.3,1.2c-0.7,6.6-4.5,11.1-10,14.4
	c-3.9,2.2-8.1,3.8-12.5,4.6c-9.9,2.2-19.8,2.3-29.8,1.7c-5.9-0.3-11.8-1.2-17.5-2.6c-2-0.5-4-1.2-5.9-2c-7.2-3-12.9-7.4-14.5-15.7
	c-0.5-0.2-0.9-0.3-1.4-0.4c-6.3-0.9-11.3-4.2-15.6-8.7c-5.2-5.6-8.7-12.2-11.5-19.2c-3.7-9.7-6.4-19.7-8-30
	c-3.2-19.8-4.5-39.9-3.7-60C0.6,365,1.1,354.7,2,344.4c1.5-17.8,4.2-35.5,8.2-53c0.4-1.4,0.2-2.9-0.3-4.2c-3.5-9-4.8-18.7-3.9-28.2
	c1.3-16,6.9-30.5,14.6-44.3c11.1-19.7,25.1-37,41.2-52.8C62.6,161.4,63.4,160.9,64.1,160.4z M154.1,246.3c-0.5,0.2-0.9,0.5-1.4,0.7
	c-18.8,8.7-31.7,23.1-40.3,41.7c-0.4,1-0.5,2.1-0.2,3.2c3,11.9,0.7,24.6-6.4,34.6c-0.8,1.2-1.2,2.6-1,4c1,7.5,1.7,14.9,2.6,22.4
	c1,8.4,2,16.8,3,25.2c1.2,10.2,2.5,20.5,3.7,30.7c0.8,6.6,1.4,13.2,2.5,19.7c2.8,17,11.2,32.5,23.9,44.1
	c18.1,16.8,39.6,24.1,64.1,21.3c18.9-2,36.4-11,49-25.2c16.6-18.3,23.4-40,20.5-64.6c-1-8.7-2-17.3-3.1-26c-1-8.4-2-16.8-3-25.2
	c-1.2-10.2-2.4-20.3-3.7-30.5c-0.7-5.8-1.5-11.6-2.7-17.3c-2.3-10.9-7.4-20.6-13.9-29.5c-13.9-19.2-32.2-31.3-56-34.9
	c0.4,0,0.8,0,1.2,0c0.4,0,0.8,0,1.2,0c8.8,0.8,17.4,2.9,25.6,6.2c20.1,8.4,35.2,22,43.9,42.3c4.2,9.8,6.1,20,7.3,30.4
	c0.9,8.7,2,17.3,3.1,26c1.2,10.2,2.4,20.3,3.7,30.5c1,8.7,2.1,17.4,3.2,26.2c0.9,7.1,1,14.2,0.4,21.3c-0.9,8.7-3.1,17.2-6.5,25.2
	c-0.2,0.6-0.3,1.1-0.4,1.7c1-0.5,1.6-0.8,2.2-1.2c11.8-6.1,23.6-6.2,35.4,0c4.4,2.5,8.4,5.6,11.8,9.3c7.5,7.8,12.9,17.5,15.6,28
	c0.2,0.8,0.4,1.7,0.6,2.6c0.5,0,1,0,1.5-0.1c4.3-0.9,8.3-3.2,11.3-6.4c3.1-3.3,5.7-7,7.6-11c5.6-11.2,8.5-23.2,10.5-35.5
	c2.3-15.3,3.4-30.8,3.3-46.4c0.1-15-0.7-29.9-2.2-44.8c-1.3-11.8-2.9-23.5-4.4-35.2c-0.2-0.6-0.4-1.1-0.6-1.7
	c-5.2,6-11.1,11.3-17.8,15.7c-0.5,0.5-0.8,1.1-0.9,1.8c-0.4,1.6-0.5,3.3-1,4.9c-2.6,8.7-7.3,15.4-16.4,18.2
	c-9.8,3.2-20.4,2.6-29.7-1.6c-9.8-4.3-16.4-11.8-20.8-21.3c-3.3-7.1-5.1-14.6-4.4-22.6c0.3-5.6,2.7-10.8,6.6-14.8
	c3.4-3.4,7.6-5.9,12.2-7.4c1.3-0.3,2.5-1.1,3.2-2.3c1.6-2.8,3.4-5.4,4.8-8.3c3.3-7.1,4.5-14.8,4.8-22.6c0.2-9.8-0.8-19.5-3.1-29
	c-3.2-14.2-8.3-27.9-14-41.2c-0.2-0.5-0.5-1-0.9-1.6c-10.2,4-20.8,7-31.6,9c-10.7,2-21.6,3.5-32.5,5.3c0,0.7,0,1.5,0,2.2
	c0.1,3.5-0.2,7-1,10.5c-3.7,15.1-16.5,22.1-28.7,20.9c-14.9-1.5-27.6-13.6-30.3-28.3c-0.3-1.5-0.4-3-0.7-4.7
	c-25-2.3-49.8-5.8-73.6-14.8c-0.3,0.6-0.5,1-0.7,1.4c-5.2,14.3-9.5,28.9-11.4,44c-1.2,10-1.3,20,0.8,29.8c1.7,7.7,4.6,14.8,9.6,20.9
	c0.9,1.1,2.1,1.9,3.5,2.3c5,1.2,9.6,3.8,13.3,7.4c0.4,0.4,0.8,0.7,1.4,1.2C118.8,265.4,134.3,253.1,154.1,246.3L154.1,246.3z
	 M306.1,60.8c-0.6-5.3-1-10.7-1.8-16.1c-1.2-8.9-3.6-17.7-7.2-26c-1.6-3.9-3.9-7.6-6.7-10.7c-3.3-3.8-8.3-5.6-13.2-4.8
	c-1.3,0.2-2.5,0.4-3.8,0.7c-5.9,1.4-11.6,3.7-16.9,6.6c-10.9,5.8-21.2,12.6-30.8,20.3c-1,0.9-2.4,1.2-3.7,0.8
	c-8.3-2.1-16.8-3.3-25.4-3.5c-13-0.4-25.9,1.1-38.5,4.5c-1.1,0.4-2.2,0.1-3.1-0.6c-1.1-1-2.4-1.9-3.6-2.8c-9.1-7-18.8-13.1-29-18.3
	c-5.3-2.7-10.9-4.7-16.7-5.7c-6.2-1-11.2,0.7-14.8,6.1c-1,1.4-2,2.9-2.8,4.5c-2,4.6-4.2,9.2-5.8,14c-4.8,14.4-7.4,29.4-9.6,44.4
	c-0.2,1.3-0.7,2.6-1.4,3.7c-4.6,7.1-8.1,14.7-9.5,23.1c-1.7,10.4,0.5,19.8,7.8,27.5c2.8,2.9,5.9,5.6,9.1,8.1c5.4,4,11.3,7.3,17.4,10
	c17.5,8,36,12.6,55,15.3c8.5,1.2,17,1.8,25.5,2.7c1.7,0.2,3.3-0.2,4.8-0.9c8.5-4.2,17.2-4.7,25.9-0.6c2.2,1.1,4.7,1.5,7.1,1.2
	c0.9-0.1,1.8-0.2,2.6-0.3c12.5-1.1,24.9-3.4,37-6.8c14.6-4.1,28.5-9.9,41.3-18.2c5.9-3.7,11.2-8.3,15.8-13.5
	c3.5-3.9,5.7-8.7,6.5-13.9c0.6-4.8,0.5-9.6-0.5-14.3c-1.7-8.8-4.7-17.3-9-25.2C306.7,68.5,304.8,65.1,306.1,60.8L306.1,60.8z
	 M15.8,298.7c-0.2,1.1-0.4,1.8-0.6,2.5c-2.2,11.2-3.7,22.5-4.9,33.9c-1.4,12.7-2.5,25.3-2.7,38c-0.2,10.4,0,20.8,0.3,31.2
	c0.4,12.5,1.9,25,4.4,37.3c1.8,9.4,4.7,18.6,8.7,27.3c2.1,4.6,4.9,8.8,8.4,12.4c2.4,2.6,5.5,4.4,8.9,5.4c0.7,0.1,1.4,0.2,2.1,0.2
	c0.1-0.7,0.2-1.2,0.4-1.6c3.7-13.8,10.8-25.3,22.6-33.8c12.4-9,29-9.3,41.7-0.9c11.6,7.7,19.1,18.6,23.8,31.6c0.7,1.9,1.1,4,1.8,6.2
	l14.9-2.2c-0.1-0.3-0.3-0.5-0.4-0.7c-0.6-0.4-1.2-0.9-1.7-1.3c-19.2-14.7-30.7-33.9-34.1-57.9c-1-6.8-1.7-13.6-2.5-20.5
	c-1.4-11.3-2.7-22.7-4.1-34c-1.2-10-2.4-20-3.6-30c-0.2-2-0.5-3.9-0.8-5.9c-0.4,0.1-0.6,0-0.7,0.1c-0.6,0.4-1.1,0.9-1.7,1.3
	c-11.9,8.4-24.7,10.2-38.5,5.6c-3.1-1-5.8-2.8-7.9-5.2c-3.7-4.1-6.2-9-7.2-14.4c-0.2-1.6-1.2-2.9-2.6-3.7c-8.9-5.2-16.8-11.6-23-20
	C16.6,299.5,16.4,299.3,15.8,298.7z M41.3,317.2c0.2-0.2,0.3-0.2,0.3-0.3c0.1-0.4,0.1-0.8,0.1-1.2c0.2-5.3,1.6-10.5,4.1-15.1
	c3.7-6.8,8.8-12.8,15-17.6c5.6-4.6,12.3-7.7,19.4-8.9c0.4-0.1,0.7-0.2,1.1-0.4c-1.7-3.3-3.6-6.4-5-9.7c-3.7-8.4-5-17.3-5.2-26.4
	c0-8,0.8-16,2.6-23.8c2.8-12.6,6.9-25,12.3-36.8c0.4-0.8,0.7-1.6,1.1-2.5c-7.9-3.3-15.2-7.8-21.8-13.3c-0.4,0.5-0.6,0.9-0.9,1.3
	c-10.5,12.6-20.2,25.8-29.1,39.6c-8.3,13-15.5,26.5-20.6,41c-3.2,9.3-5.5,18.7-5.1,28.6c0.2,11.3,4.5,22.1,12.1,30.6
	c5.2,5.8,11.4,10.6,18.3,14.2C40.3,316.8,40.8,317,41.3,317.2z M348.8,320.8c0.4-0.2,0.8-0.4,1.2-0.6c6.8-4.1,12.7-9.5,17.5-15.8
	c6-8.1,9.3-17.9,9.4-27.9c0.2-8.8-1.7-17.3-4.6-25.6c-4.6-12.6-10.5-24.6-17.8-35.8c-11.5-18.2-25.1-34.9-39.5-50.9
	c-0.4-0.4-0.8-0.8-1.2-1.1c-2.2,1.5-4.4,3.1-6.6,4.5s-4.4,2.6-6.6,3.8s-4.7,2.3-7.1,3.5l1.5,3c5.6,10.5,10.2,21.4,13.9,32.6
	c4.4,13.7,7.1,27.5,6,42c-0.5,9-3.1,17.8-7.5,25.6c-0.3,0.5-0.5,1.1-0.8,1.7c2.7,0.6,5.2,0.9,7.6,1.6c9,2.5,16.1,7.9,22.5,14.5
	c4.8,5,8.6,10.5,10.5,17.2C347.8,315.5,348.2,318.1,348.8,320.8L348.8,320.8z M84.7,507.1c7-0.2,15.1-0.3,23.1-1.9
	c4.6-0.7,9-2.2,13.1-4.4c4.8-2.8,7.5-7,7.3-12.6c-0.3-9.8-4.5-19.1-11.7-25.7c-13.2-12.6-34-15.3-50.4-6.9
	C53.5,462,45.9,472,43.4,485.9c-1.3,7.2,1.6,12.8,8.1,16c3,1.4,6.2,2.5,9.5,3.3C68.5,506.9,76.1,507.1,84.7,507.1z M294.2,507.1
	c3.3-0.1,7.7-0.3,12.1-0.5c2.7-0.2,5.4-0.5,8.1-0.9c4.8-0.6,9.6-1.9,14-3.9c6.9-3.4,10.1-8.8,8.9-16.4c-1.5-9.7-5.6-18.1-13.4-24.5
	c-15.2-12.4-36.7-13.4-53-2.6c-1,0.7-1.8,1.6-2.4,2.6c-3.1,5-6.8,9.7-11,13.9c-1.8,1.8-3.1,4.1-3.7,6.6c-0.3,1-0.5,2-0.8,3
	c-1.8,8.6,1.4,14.8,9.4,18.2c2,0.9,4,1.5,6.1,2.1C276.6,506.8,284.8,507.1,294.2,507.1z M326.1,347.3c1.2,0.1,2.4,0.1,3.6,0
	c4.1-0.5,7.9-1.7,10.7-4.8c3.4-3.7,5.4-8.4,5.7-13.4c0.4-6.1-1.5-11.5-4.8-16.5c-6.1-9.4-14.5-17.1-24.4-22.5
	c-9.1-4.9-18.4-5.1-27.8-0.4c-8.5,4.2-11.8,11.8-11,20.8c0.7,8.5,4.7,15.5,10.8,21.3c7,6.8,15.5,11,24.7,13.7
	C317.6,346.7,321.8,347.4,326.1,347.3L326.1,347.3z M111.4,302.1c0-9.9-4.5-16.5-13.8-20s-18.1-2.4-26.4,2.8
	c-8.9,5.5-16.4,13-21.9,21.8c-1.5,2.3-2.7,4.7-3.6,7.3c-2.5,6.2-2.1,13.3,1.2,19.2c2.1,3.9,5.1,7,9.5,8.3c3,0.9,6.1,1.2,9.2,0.9
	c10.5-1.2,20.6-5.2,29.1-11.4c4.3-3,8-6.7,10.9-11C109.4,314.6,111.4,308.4,111.4,302.1z M176.5,212.5c3.7,3.8,8.7,6.2,14,6.7
	c8.9,0.9,16.7-2,23.7-7.3c1-0.7,1.5-1.9,1.4-3.1c0.5-9.4-2.7-18.6-8.8-25.6c-4.5-5.3-9.8-9.7-15.1-14c-0.7-0.7-1.8-0.9-2.7-0.5
	c-2.2,0.8-4.4,1.8-6.5,3c-9,5.7-13,14.2-12.9,24.7c0,3.7,1,7.3,2.9,10.4l11.2-1.1c-0.2-1.3-0.4-2.2-0.4-3.1c-0.4-4.2,2.8-8,7-8.3
	c4.2-0.4,8,2.8,8.3,7c0,0.5,0,0.9,0,1.4c-0.3,4.2-3.9,7.3-8.1,7.1c-0.2,0-0.3,0-0.5-0.1c-1-0.2-2,0.1-2.8,0.9
	c-1.7,1.6-4,2.4-6.4,2.3C179.6,212.8,178.3,212.6,176.5,212.5L176.5,212.5z M195.4,167.6v0.5l2.6,1.1c6.1,2.5,11.4,6.5,15.6,11.6
	c4.8,5.7,7.1,13.1,6.5,20.5c-0.1,1.5-0.4,2.9-0.7,4.9c0.4-0.4,0.8-0.8,1.1-1.2c6.3-8.9,5.4-21-2.2-28.9c-5.3-5.4-11.9-8-19.3-8.6
	C197.9,167.5,196.7,167.6,195.4,167.6L195.4,167.6z M154.9,177.9c-4.4-3.5-8.3-6.7-12.2-9.8c-0.9-0.7-3.7-0.7-5-0.2l9.6,9.8
	l-14.6,7.9l0.1,0.5c2.3,0.4,4.5,0.8,6.8,1c0.6,0,1.2-0.2,1.8-0.6c4.1-2.7,8.1-5.4,12.2-8.1C154,178.2,154.5,178.1,154.9,177.9
	L154.9,177.9z M294.4,171.8l0.4,0.4c1.8-0.8,3.5-1.7,5.3-2.4c1-0.4,1.8-1.3,2.2-2.3c1.6-4.1,3.3-8.1,5-12.2c0.2-0.6,0.4-1.2,0.7-2
	c-1.2-0.2-2.2-0.4-3.2-0.4c-3.3-0.3-6.7-0.5-10-1c-2.5-0.4-4.4,0.8-6.6,2.4l13.9,2.9L294.4,171.8z M104.6,167.8
	c-2.5-3.8-5-7.3-7.1-10.9c-1.4-2.3-3.4-3.1-6.2-4c1.3,2.5,2.3,4.5,3.3,6.5c1.1,2,2.2,4.1,3.1,6.2l-16,3.1l-0.1,0.5
	c1.8,0.9,3.6,1.8,5.4,2.8c0.8,0.5,1.8,0.6,2.7,0.2c4.4-1.4,8.9-2.6,13.3-3.9C103.4,168.2,103.8,168,104.6,167.8L104.6,167.8z
	 M241.9,186.1l0.3,0.5c1.8-0.3,3.6-0.6,5.4-0.8c1.3-0.1,2.4-0.8,3.1-1.9c2.6-3.5,5.3-6.8,7.9-10.2c0.4-0.5,0.7-1,1.2-1.7
	c-0.9-0.4-1.6-0.7-2.3-1c-3.2-1.2-6.5-2.3-9.6-3.7c-2.5-1.1-4.7-0.6-7.6,0.3c4.5,2.3,8.5,4.4,12.8,6.6L241.9,186.1z M251.4,480.9
	l-9.1,6.8l0.1,0.5l7.1,1C250.2,486.4,250.8,483.8,251.4,480.9L251.4,480.9z"/>
<path class="st0" d="M186.8,484.3c-6.8-0.7-13.4-2.2-19.8-4.6c-11-4.1-20.8-10.9-28.3-19.9c-7.5-8.8-11.7-19.2-13.8-30.5
	c-1.1-6-1.7-12.2-2.4-18.3c-1.2-10.2-2.5-20.3-3.7-30.5c-1.2-9.8-2.3-19.5-3.5-29.3c-0.7-6-1.4-11.9-2.1-17.9
	c-2-19.3,2.8-36.9,14.7-52.2c12.3-15.8,28.6-25,48.4-27.3c37.3-4.5,71.7,20.4,79,57.2c1.1,5.8,1.7,11.7,2.4,17.6
	c1.2,10,2.4,20,3.6,30c1,8.7,2.1,17.3,3.1,26c0.9,7.3,1.7,14.6,2.6,21.9c3.8,29.6-9.4,53.3-33.2,67.4c-3.9,2.4-8.1,4.2-12.5,5.5
	c0.2-0.2,0.5-0.4,0.8-0.5c18-8.7,29.2-23.1,35.1-42c2.7-7.9,3.8-16.2,3.4-24.6c-0.4-4.9-1-9.7-1.6-14.5c-1-8.7-2.1-17.3-3.1-26
	c-1.2-10.2-2.4-20.3-3.7-30.5c-1-8.2-1.8-16.5-3-24.8c-3-21-13.7-37-32-47.7c-38.7-22.5-87.8,0-96.4,44c-1.3,7-1.5,14.2-0.6,21.2
	c1.1,8.6,2.1,17.1,3.1,25.7c1.2,10.1,2.4,20.3,3.7,30.5c1.2,10,2.4,20,3.6,30c2.7,23.9,14.3,42.2,34.4,55.2
	c6.2,3.9,13.1,6.5,20.2,7.9C185.8,483.7,186.3,483.9,186.8,484.3L186.8,484.3z"/>
<path class="st0" d="M240,339.3c-19.1,2.9-38,3.8-57.3,4.7c0.3,7.3,0.7,14.3,1,21.6l52-5.7c0.9,7.4,1.8,14.6,2.4,22.1l-68.9,7.5
	c2.2,12.9,4.4,25.6,6.6,38.7l-23.4,3.9c-1.1-2.3-5.6-40.7-5.5-47c27.8-3.1,55.6-6,83.8-9.2c-0.3-2.8-0.6-5.5-0.9-8.4l-66.3,7.2
	c-1.8-16.5-3.6-32.7-5.4-49.2l79.4-8.7C238.4,324.4,239.2,331.8,240,339.3z M183.4,365.6c-1.4-8.3-2.8-16.3-4.2-24.5
	c9-1.5,17.8-3,26.5-4.3s17.7-2.4,26.7-3.6c-0.2-2.9-0.5-5.8-1.1-8.7l-65.5,7.2c1.3,12,2.5,23.7,3.9,35.5L183.4,365.6z M170.4,423.9
	c-0.5-11.6-1.1-22.8-1.6-34.3l-14.5,1.6c1.3,11.3,2.3,22.3,3.8,33.4L170.4,423.9z"/>
<path class="st0" d="M186.8,484.3L186.8,484.3z"/>
<path class="st0" d="M90.7,59.6c0.4-10.2,1.1-19.9,3.5-29.3c0.8-3.5,2.1-6.9,4-10c1.7-2.7,3.9-4.7,7.2-4.9c1.7-0.2,3.3,0,4.9,0.6
	c2.6,1,5.1,2.3,7.4,3.8c6.8,4.7,12.3,10.9,17.4,17.4c1.6,2,1,3.8-1.4,4.8c-3.1,1.2-6.5,1.8-9.8,1.8c-2.7,0.1-5.4,0.1-8.1,0
	c-1.4-0.1-2.9,0.5-3.8,1.6c-3.5,4.2-6.5,8.7-8.9,13.6c-1,1.8-2.1,3.6-3.4,5.2c-1.3,1.6-3.1,2.8-5.1,3.4c-2.5,0.8-3.9-0.2-4-2.8
	C90.6,62.9,90.7,60.9,90.7,59.6z"/>
<path class="st0" d="M291.3,58.4c0,1.7,0,3.4,0,5c0,2.8-1.6,3.8-4.3,2.9c-2.2-0.8-4.1-2.2-5.5-4.1c-1.1-1.5-2-3.1-2.9-4.7
	c-2.3-4.6-5.1-9-8.4-13c-1.1-1.5-3-2.3-4.8-2c-4.5,0.4-9.1,0.2-13.6-0.7c-1.3-0.2-2.5-0.6-3.7-1.1c-2.4-1-2.8-2.6-1.4-4.8
	c0-0.1,0.1-0.1,0.1-0.2c4.6-6,10-11.5,15.9-16.2c2.9-2.4,6.3-4.2,9.9-5.1c4.3-1,7.9,0.1,10.3,3.8c1.6,2.5,2.9,5.2,3.8,7.9
	c1.7,5.3,2.9,10.8,3.3,16.4c0.5,5.2,0.8,10.5,1.2,15.8L291.3,58.4z"/>
<path class="st0" d="M152.9,134.2c19.2-15.9,53.9-16.9,74.9,0.4c-12-4.8-24.3-7.8-37.3-7.9C177.6,126.8,164.9,129.3,152.9,134.2z"/>
<path class="st0" d="M118.9,79.1c3.1,0.7,6.2,1.5,9.3,2.1c6.3,1.3,12.7,1.4,19,0.2c4.6-1,8.7-3.1,12.9-5.2c3-1.5,5.8-3.3,8.8-5
	c0.7-0.4,1.3-0.8,2.2-1.3c0.1,1.5-0.3,3-1.1,4.3c-3.4,6.8-10,11.4-17.5,12.3c-11.6,1.8-22.4-0.9-32.6-6.4c-0.4-0.2-0.7-0.5-1.1-0.8
	L118.9,79.1z"/>
<path class="st0" d="M213.3,69.1c0.6,0.4,1.2,0.7,1.7,1.1c5.4,3.8,11.1,6.9,17.2,9.5c6.1,2.7,12.6,3.1,19.1,2.4
	c4.1-0.4,8.2-1.3,12.3-2c0.4-0.1,0.9-0.1,1.3,0.1c-0.4,0.3-0.8,0.6-1.2,0.9c-6.7,3.3-13.9,5.3-21.4,5.8c-4.7,0.3-9.5-0.2-14-1.5
	c-6.4-1.8-11.7-6.3-14.4-12.5c-0.4-1.2-0.8-2.3-1.1-3.5L213.3,69.1z"/>
<path class="st0" d="M183.9,100.9c2.2-2.7,10.2-2.8,13-0.1c-0.7,2.2-3.8,4.5-6.3,4.6C187.7,105.2,185.2,103.5,183.9,100.9z"/>
<path class="st0" d="M278.1,119.9c-8.2-0.2-16.3-2-23.8-5.4C259.3,113.5,273.3,116.7,278.1,119.9z"/>
<path class="st0" d="M128.9,114.3c-7.3,3.4-15.2,5.2-23.2,5.5C108.6,116.9,123.6,113.3,128.9,114.3z"/>
<path class="st0" d="M253.5,107c3.4-2,18.8-2,22.2,0C270.9,108.8,258.4,108.8,253.5,107z"/>
<path class="st0" d="M107.8,106.4c7.5-1.5,15.2-1.5,22.7,0C126.8,108.6,112.1,108.6,107.8,106.4z"/>
<path class="st0" d="M112.9,94.2c6.8,0.5,13.5,2.7,19.3,6.3C127.9,101.4,116.4,97.6,112.9,94.2z"/>
<path class="st0" d="M252.1,100.9c5.6-3.8,12.1-5.9,18.8-6.2C265.4,98.4,258.9,100.6,252.1,100.9z"/>
<path class="st0" d="M90.1,483.6c4.8,4.1,3.1,11.6-1.1,13.6C85.1,494.3,85,486.7,90.1,483.6z"/>
<path class="st0" d="M65.3,496.9c-3-3.7-1.4-11.4,4.4-12.8C73.3,488.4,70.3,495.5,65.3,496.9z"/>
<path class="st0" d="M76.1,496.9c-3.5-4.5-1.7-10.6,3.7-13C83.5,487.9,81.6,494.8,76.1,496.9z"/>
<path class="st0" d="M290.5,484.5c4.8,2.8,5.4,9.2,1.3,13.4C286.8,495.5,286.1,488.4,290.5,484.5z"/>
<path class="st0" d="M315.3,497.6c-4.4-1.3-6.9-6-5.6-10.4c0.2-0.8,0.6-1.5,1.1-2.2c4.4,1.2,6.9,5.7,5.7,10.1
	C316.3,495.9,315.9,496.8,315.3,497.6z"/>
<path class="st0" d="M300.7,484.7c5.6,2.6,7.2,8.6,3.8,13.1C299.1,495.4,297.3,489.5,300.7,484.7z"/>
<path class="st0" d="M289.7,316.4c-0.6-3.1,0.9-6.1,3.6-7.6c2.9-1.6,5.9-3.3,8.8-4.9c0.7-0.4,1.4-0.6,2.6-1.2
	c-0.2,0.6-0.4,1.2-0.7,1.7c-2.2,3.3-4.5,6.6-6.8,9.9C295.7,316.4,292.3,317.2,289.7,316.4z"/>
<path class="st0" d="M301.7,328.5c-0.7-3.8,0.5-6.5,3.3-8.2s5.5-3.5,8.3-5.2c0.6-0.4,1.4-0.7,2.6-1.3c-0.2,0.6-0.4,1.2-0.6,1.8
	c-2.1,3.4-4,6.9-6.3,10.2C307.3,328.2,304.6,328.7,301.7,328.5z"/>
<path class="st0" d="M327,324.7c-0.2,0.6-0.4,1.2-0.6,1.8c-1.6,3.4-3.2,6.8-5,10.1c-1.5,2.7-4.2,3.3-7,3.5c-1.1-3.5-0.1-6.5,2.5-8.5
	s4.9-3.8,7.4-5.6c0.8-0.6,1.6-1,2.4-1.6L327,324.7z"/>
<path class="st0" d="M74.4,308.3c1.7,0.9,3.5,1.8,5.2,2.8c2,1.1,4,2.3,6,3.5c2.6,1.7,3.8,4.8,2.9,7.7c-3.5,0.4-6.3-0.5-8.3-3.7
	c-1.6-2.6-3.4-5-5.1-7.5c-0.5-0.7-0.9-1.5-1.3-2.2L74.4,308.3z"/>
<path class="st0" d="M63.7,319.1c2.2,1.5,4.5,3,6.7,4.5c1.2,0.8,2.3,1.7,3.5,2.5c2.6,1.7,3.7,4.9,2.9,7.9c-2.7,0.7-6-0.4-7.3-2.7
	c-2.1-3.6-4-7.2-6-10.9c-0.1-0.3-0.2-0.6-0.2-0.9L63.7,319.1z"/>
<path class="st0" d="M84.6,296.7c1.1,0.4,1.8,0.6,2.5,0.9c3.2,1.6,6.5,3.1,9.6,4.8c2.8,1.5,3.4,4.2,3.6,7c-2.4,1.2-6.1,0.7-7.7-1.4
	c-2.7-3.4-5.2-6.9-7.7-10.3C84.7,297.3,84.6,297,84.6,296.7z"/>
</svg>
